G75*
%MOIN*%
%OFA0B0*%
%FSLAX25Y25*%
%IPPOS*%
%LPD*%
%AMOC8*
5,1,8,0,0,1.08239X$1,22.5*
%
%ADD10C,0.00000*%
%ADD11C,0.01000*%
%ADD12R,0.06000X0.06000*%
%ADD13OC8,0.06000*%
%ADD14C,0.05200*%
%ADD15C,0.06000*%
%ADD16OC8,0.05200*%
%ADD17C,0.01600*%
D10*
X0001500Y0013311D02*
X0001500Y0074335D01*
X0001502Y0074459D01*
X0001508Y0074582D01*
X0001517Y0074706D01*
X0001531Y0074828D01*
X0001548Y0074951D01*
X0001570Y0075073D01*
X0001595Y0075194D01*
X0001624Y0075314D01*
X0001656Y0075433D01*
X0001693Y0075552D01*
X0001733Y0075669D01*
X0001776Y0075784D01*
X0001824Y0075899D01*
X0001875Y0076011D01*
X0001929Y0076122D01*
X0001987Y0076232D01*
X0002048Y0076339D01*
X0002113Y0076445D01*
X0002181Y0076548D01*
X0002252Y0076649D01*
X0002326Y0076748D01*
X0002403Y0076845D01*
X0002484Y0076939D01*
X0002567Y0077030D01*
X0002653Y0077119D01*
X0002742Y0077205D01*
X0002833Y0077288D01*
X0002927Y0077369D01*
X0003024Y0077446D01*
X0003123Y0077520D01*
X0003224Y0077591D01*
X0003327Y0077659D01*
X0003433Y0077724D01*
X0003540Y0077785D01*
X0003650Y0077843D01*
X0003761Y0077897D01*
X0003873Y0077948D01*
X0003988Y0077996D01*
X0004103Y0078039D01*
X0004220Y0078079D01*
X0004339Y0078116D01*
X0004458Y0078148D01*
X0004578Y0078177D01*
X0004699Y0078202D01*
X0004821Y0078224D01*
X0004944Y0078241D01*
X0005066Y0078255D01*
X0005190Y0078264D01*
X0005313Y0078270D01*
X0005437Y0078272D01*
X0017248Y0078272D01*
X0017372Y0078274D01*
X0017495Y0078280D01*
X0017619Y0078289D01*
X0017741Y0078303D01*
X0017864Y0078320D01*
X0017986Y0078342D01*
X0018107Y0078367D01*
X0018227Y0078396D01*
X0018346Y0078428D01*
X0018465Y0078465D01*
X0018582Y0078505D01*
X0018697Y0078548D01*
X0018812Y0078596D01*
X0018924Y0078647D01*
X0019035Y0078701D01*
X0019145Y0078759D01*
X0019252Y0078820D01*
X0019358Y0078885D01*
X0019461Y0078953D01*
X0019562Y0079024D01*
X0019661Y0079098D01*
X0019758Y0079175D01*
X0019852Y0079256D01*
X0019943Y0079339D01*
X0020032Y0079425D01*
X0020118Y0079514D01*
X0020201Y0079605D01*
X0020282Y0079699D01*
X0020359Y0079796D01*
X0020433Y0079895D01*
X0020504Y0079996D01*
X0020572Y0080099D01*
X0020637Y0080205D01*
X0020698Y0080312D01*
X0020756Y0080422D01*
X0020810Y0080533D01*
X0020861Y0080645D01*
X0020909Y0080760D01*
X0020952Y0080875D01*
X0020992Y0080992D01*
X0021029Y0081111D01*
X0021061Y0081230D01*
X0021090Y0081350D01*
X0021115Y0081471D01*
X0021137Y0081593D01*
X0021154Y0081716D01*
X0021168Y0081838D01*
X0021177Y0081962D01*
X0021183Y0082085D01*
X0021185Y0082209D01*
X0021185Y0141264D01*
X0021183Y0141388D01*
X0021177Y0141511D01*
X0021168Y0141635D01*
X0021154Y0141757D01*
X0021137Y0141880D01*
X0021115Y0142002D01*
X0021090Y0142123D01*
X0021061Y0142243D01*
X0021029Y0142362D01*
X0020992Y0142481D01*
X0020952Y0142598D01*
X0020909Y0142713D01*
X0020861Y0142828D01*
X0020810Y0142940D01*
X0020756Y0143051D01*
X0020698Y0143161D01*
X0020637Y0143268D01*
X0020572Y0143374D01*
X0020504Y0143477D01*
X0020433Y0143578D01*
X0020359Y0143677D01*
X0020282Y0143774D01*
X0020201Y0143868D01*
X0020118Y0143959D01*
X0020032Y0144048D01*
X0019943Y0144134D01*
X0019852Y0144217D01*
X0019758Y0144298D01*
X0019661Y0144375D01*
X0019562Y0144449D01*
X0019461Y0144520D01*
X0019358Y0144588D01*
X0019252Y0144653D01*
X0019145Y0144714D01*
X0019035Y0144772D01*
X0018924Y0144826D01*
X0018812Y0144877D01*
X0018697Y0144925D01*
X0018582Y0144968D01*
X0018465Y0145008D01*
X0018346Y0145045D01*
X0018227Y0145077D01*
X0018107Y0145106D01*
X0017986Y0145131D01*
X0017864Y0145153D01*
X0017741Y0145170D01*
X0017619Y0145184D01*
X0017495Y0145193D01*
X0017372Y0145199D01*
X0017248Y0145201D01*
X0005437Y0145201D01*
X0005313Y0145203D01*
X0005190Y0145209D01*
X0005066Y0145218D01*
X0004944Y0145232D01*
X0004821Y0145249D01*
X0004699Y0145271D01*
X0004578Y0145296D01*
X0004458Y0145325D01*
X0004339Y0145357D01*
X0004220Y0145394D01*
X0004103Y0145434D01*
X0003988Y0145477D01*
X0003873Y0145525D01*
X0003761Y0145576D01*
X0003650Y0145630D01*
X0003540Y0145688D01*
X0003433Y0145749D01*
X0003327Y0145814D01*
X0003224Y0145882D01*
X0003123Y0145953D01*
X0003024Y0146027D01*
X0002927Y0146104D01*
X0002833Y0146185D01*
X0002742Y0146268D01*
X0002653Y0146354D01*
X0002567Y0146443D01*
X0002484Y0146534D01*
X0002403Y0146628D01*
X0002326Y0146725D01*
X0002252Y0146824D01*
X0002181Y0146925D01*
X0002113Y0147028D01*
X0002048Y0147134D01*
X0001987Y0147241D01*
X0001929Y0147351D01*
X0001875Y0147462D01*
X0001824Y0147574D01*
X0001776Y0147689D01*
X0001733Y0147804D01*
X0001693Y0147921D01*
X0001656Y0148040D01*
X0001624Y0148159D01*
X0001595Y0148279D01*
X0001570Y0148400D01*
X0001548Y0148522D01*
X0001531Y0148645D01*
X0001517Y0148767D01*
X0001508Y0148891D01*
X0001502Y0149014D01*
X0001500Y0149138D01*
X0001500Y0210161D01*
X0001503Y0210446D01*
X0001514Y0210732D01*
X0001531Y0211017D01*
X0001555Y0211301D01*
X0001586Y0211585D01*
X0001624Y0211868D01*
X0001669Y0212149D01*
X0001720Y0212430D01*
X0001778Y0212710D01*
X0001843Y0212988D01*
X0001915Y0213264D01*
X0001993Y0213538D01*
X0002078Y0213811D01*
X0002170Y0214081D01*
X0002268Y0214349D01*
X0002372Y0214615D01*
X0002483Y0214878D01*
X0002600Y0215138D01*
X0002723Y0215396D01*
X0002853Y0215650D01*
X0002989Y0215901D01*
X0003130Y0216149D01*
X0003278Y0216393D01*
X0003431Y0216634D01*
X0003591Y0216870D01*
X0003756Y0217103D01*
X0003926Y0217332D01*
X0004102Y0217557D01*
X0004284Y0217777D01*
X0004470Y0217993D01*
X0004662Y0218204D01*
X0004859Y0218411D01*
X0005061Y0218613D01*
X0005268Y0218810D01*
X0005479Y0219002D01*
X0005695Y0219188D01*
X0005915Y0219370D01*
X0006140Y0219546D01*
X0006369Y0219716D01*
X0006602Y0219881D01*
X0006838Y0220041D01*
X0007079Y0220194D01*
X0007323Y0220342D01*
X0007571Y0220483D01*
X0007822Y0220619D01*
X0008076Y0220749D01*
X0008334Y0220872D01*
X0008594Y0220989D01*
X0008857Y0221100D01*
X0009123Y0221204D01*
X0009391Y0221302D01*
X0009661Y0221394D01*
X0009934Y0221479D01*
X0010208Y0221557D01*
X0010484Y0221629D01*
X0010762Y0221694D01*
X0011042Y0221752D01*
X0011323Y0221803D01*
X0011604Y0221848D01*
X0011887Y0221886D01*
X0012171Y0221917D01*
X0012455Y0221941D01*
X0012740Y0221958D01*
X0013026Y0221969D01*
X0013311Y0221972D01*
X0245594Y0221972D01*
X0245879Y0221969D01*
X0246165Y0221958D01*
X0246450Y0221941D01*
X0246734Y0221917D01*
X0247018Y0221886D01*
X0247301Y0221848D01*
X0247582Y0221803D01*
X0247863Y0221752D01*
X0248143Y0221694D01*
X0248421Y0221629D01*
X0248697Y0221557D01*
X0248971Y0221479D01*
X0249244Y0221394D01*
X0249514Y0221302D01*
X0249782Y0221204D01*
X0250048Y0221100D01*
X0250311Y0220989D01*
X0250571Y0220872D01*
X0250829Y0220749D01*
X0251083Y0220619D01*
X0251334Y0220483D01*
X0251582Y0220342D01*
X0251826Y0220194D01*
X0252067Y0220041D01*
X0252303Y0219881D01*
X0252536Y0219716D01*
X0252765Y0219546D01*
X0252990Y0219370D01*
X0253210Y0219188D01*
X0253426Y0219002D01*
X0253637Y0218810D01*
X0253844Y0218613D01*
X0254046Y0218411D01*
X0254243Y0218204D01*
X0254435Y0217993D01*
X0254621Y0217777D01*
X0254803Y0217557D01*
X0254979Y0217332D01*
X0255149Y0217103D01*
X0255314Y0216870D01*
X0255474Y0216634D01*
X0255627Y0216393D01*
X0255775Y0216149D01*
X0255916Y0215901D01*
X0256052Y0215650D01*
X0256182Y0215396D01*
X0256305Y0215138D01*
X0256422Y0214878D01*
X0256533Y0214615D01*
X0256637Y0214349D01*
X0256735Y0214081D01*
X0256827Y0213811D01*
X0256912Y0213538D01*
X0256990Y0213264D01*
X0257062Y0212988D01*
X0257127Y0212710D01*
X0257185Y0212430D01*
X0257236Y0212149D01*
X0257281Y0211868D01*
X0257319Y0211585D01*
X0257350Y0211301D01*
X0257374Y0211017D01*
X0257391Y0210732D01*
X0257402Y0210446D01*
X0257405Y0210161D01*
X0257406Y0210161D02*
X0257406Y0013311D01*
X0257405Y0013311D02*
X0257402Y0013026D01*
X0257391Y0012740D01*
X0257374Y0012455D01*
X0257350Y0012171D01*
X0257319Y0011887D01*
X0257281Y0011604D01*
X0257236Y0011323D01*
X0257185Y0011042D01*
X0257127Y0010762D01*
X0257062Y0010484D01*
X0256990Y0010208D01*
X0256912Y0009934D01*
X0256827Y0009661D01*
X0256735Y0009391D01*
X0256637Y0009123D01*
X0256533Y0008857D01*
X0256422Y0008594D01*
X0256305Y0008334D01*
X0256182Y0008076D01*
X0256052Y0007822D01*
X0255916Y0007571D01*
X0255775Y0007323D01*
X0255627Y0007079D01*
X0255474Y0006838D01*
X0255314Y0006602D01*
X0255149Y0006369D01*
X0254979Y0006140D01*
X0254803Y0005915D01*
X0254621Y0005695D01*
X0254435Y0005479D01*
X0254243Y0005268D01*
X0254046Y0005061D01*
X0253844Y0004859D01*
X0253637Y0004662D01*
X0253426Y0004470D01*
X0253210Y0004284D01*
X0252990Y0004102D01*
X0252765Y0003926D01*
X0252536Y0003756D01*
X0252303Y0003591D01*
X0252067Y0003431D01*
X0251826Y0003278D01*
X0251582Y0003130D01*
X0251334Y0002989D01*
X0251083Y0002853D01*
X0250829Y0002723D01*
X0250571Y0002600D01*
X0250311Y0002483D01*
X0250048Y0002372D01*
X0249782Y0002268D01*
X0249514Y0002170D01*
X0249244Y0002078D01*
X0248971Y0001993D01*
X0248697Y0001915D01*
X0248421Y0001843D01*
X0248143Y0001778D01*
X0247863Y0001720D01*
X0247582Y0001669D01*
X0247301Y0001624D01*
X0247018Y0001586D01*
X0246734Y0001555D01*
X0246450Y0001531D01*
X0246165Y0001514D01*
X0245879Y0001503D01*
X0245594Y0001500D01*
X0013311Y0001500D01*
X0013026Y0001503D01*
X0012740Y0001514D01*
X0012455Y0001531D01*
X0012171Y0001555D01*
X0011887Y0001586D01*
X0011604Y0001624D01*
X0011323Y0001669D01*
X0011042Y0001720D01*
X0010762Y0001778D01*
X0010484Y0001843D01*
X0010208Y0001915D01*
X0009934Y0001993D01*
X0009661Y0002078D01*
X0009391Y0002170D01*
X0009123Y0002268D01*
X0008857Y0002372D01*
X0008594Y0002483D01*
X0008334Y0002600D01*
X0008076Y0002723D01*
X0007822Y0002853D01*
X0007571Y0002989D01*
X0007323Y0003130D01*
X0007079Y0003278D01*
X0006838Y0003431D01*
X0006602Y0003591D01*
X0006369Y0003756D01*
X0006140Y0003926D01*
X0005915Y0004102D01*
X0005695Y0004284D01*
X0005479Y0004470D01*
X0005268Y0004662D01*
X0005061Y0004859D01*
X0004859Y0005061D01*
X0004662Y0005268D01*
X0004470Y0005479D01*
X0004284Y0005695D01*
X0004102Y0005915D01*
X0003926Y0006140D01*
X0003756Y0006369D01*
X0003591Y0006602D01*
X0003431Y0006838D01*
X0003278Y0007079D01*
X0003130Y0007323D01*
X0002989Y0007571D01*
X0002853Y0007822D01*
X0002723Y0008076D01*
X0002600Y0008334D01*
X0002483Y0008594D01*
X0002372Y0008857D01*
X0002268Y0009123D01*
X0002170Y0009391D01*
X0002078Y0009661D01*
X0001993Y0009934D01*
X0001915Y0010208D01*
X0001843Y0010484D01*
X0001778Y0010762D01*
X0001720Y0011042D01*
X0001669Y0011323D01*
X0001624Y0011604D01*
X0001586Y0011887D01*
X0001555Y0012171D01*
X0001531Y0012455D01*
X0001514Y0012740D01*
X0001503Y0013026D01*
X0001500Y0013311D01*
X0009768Y0015280D02*
X0009770Y0015428D01*
X0009776Y0015576D01*
X0009786Y0015724D01*
X0009800Y0015871D01*
X0009818Y0016018D01*
X0009839Y0016164D01*
X0009865Y0016310D01*
X0009895Y0016455D01*
X0009928Y0016599D01*
X0009966Y0016742D01*
X0010007Y0016884D01*
X0010052Y0017025D01*
X0010100Y0017165D01*
X0010153Y0017304D01*
X0010209Y0017441D01*
X0010269Y0017576D01*
X0010332Y0017710D01*
X0010399Y0017842D01*
X0010470Y0017972D01*
X0010544Y0018100D01*
X0010621Y0018226D01*
X0010702Y0018350D01*
X0010786Y0018472D01*
X0010873Y0018591D01*
X0010964Y0018708D01*
X0011058Y0018823D01*
X0011154Y0018935D01*
X0011254Y0019045D01*
X0011356Y0019151D01*
X0011462Y0019255D01*
X0011570Y0019356D01*
X0011681Y0019454D01*
X0011794Y0019550D01*
X0011910Y0019642D01*
X0012028Y0019731D01*
X0012149Y0019816D01*
X0012272Y0019899D01*
X0012397Y0019978D01*
X0012524Y0020054D01*
X0012653Y0020126D01*
X0012784Y0020195D01*
X0012917Y0020260D01*
X0013052Y0020321D01*
X0013188Y0020379D01*
X0013325Y0020434D01*
X0013464Y0020484D01*
X0013605Y0020531D01*
X0013746Y0020574D01*
X0013889Y0020614D01*
X0014033Y0020649D01*
X0014177Y0020681D01*
X0014323Y0020708D01*
X0014469Y0020732D01*
X0014616Y0020752D01*
X0014763Y0020768D01*
X0014910Y0020780D01*
X0015058Y0020788D01*
X0015206Y0020792D01*
X0015354Y0020792D01*
X0015502Y0020788D01*
X0015650Y0020780D01*
X0015797Y0020768D01*
X0015944Y0020752D01*
X0016091Y0020732D01*
X0016237Y0020708D01*
X0016383Y0020681D01*
X0016527Y0020649D01*
X0016671Y0020614D01*
X0016814Y0020574D01*
X0016955Y0020531D01*
X0017096Y0020484D01*
X0017235Y0020434D01*
X0017372Y0020379D01*
X0017508Y0020321D01*
X0017643Y0020260D01*
X0017776Y0020195D01*
X0017907Y0020126D01*
X0018036Y0020054D01*
X0018163Y0019978D01*
X0018288Y0019899D01*
X0018411Y0019816D01*
X0018532Y0019731D01*
X0018650Y0019642D01*
X0018766Y0019550D01*
X0018879Y0019454D01*
X0018990Y0019356D01*
X0019098Y0019255D01*
X0019204Y0019151D01*
X0019306Y0019045D01*
X0019406Y0018935D01*
X0019502Y0018823D01*
X0019596Y0018708D01*
X0019687Y0018591D01*
X0019774Y0018472D01*
X0019858Y0018350D01*
X0019939Y0018226D01*
X0020016Y0018100D01*
X0020090Y0017972D01*
X0020161Y0017842D01*
X0020228Y0017710D01*
X0020291Y0017576D01*
X0020351Y0017441D01*
X0020407Y0017304D01*
X0020460Y0017165D01*
X0020508Y0017025D01*
X0020553Y0016884D01*
X0020594Y0016742D01*
X0020632Y0016599D01*
X0020665Y0016455D01*
X0020695Y0016310D01*
X0020721Y0016164D01*
X0020742Y0016018D01*
X0020760Y0015871D01*
X0020774Y0015724D01*
X0020784Y0015576D01*
X0020790Y0015428D01*
X0020792Y0015280D01*
X0020790Y0015132D01*
X0020784Y0014984D01*
X0020774Y0014836D01*
X0020760Y0014689D01*
X0020742Y0014542D01*
X0020721Y0014396D01*
X0020695Y0014250D01*
X0020665Y0014105D01*
X0020632Y0013961D01*
X0020594Y0013818D01*
X0020553Y0013676D01*
X0020508Y0013535D01*
X0020460Y0013395D01*
X0020407Y0013256D01*
X0020351Y0013119D01*
X0020291Y0012984D01*
X0020228Y0012850D01*
X0020161Y0012718D01*
X0020090Y0012588D01*
X0020016Y0012460D01*
X0019939Y0012334D01*
X0019858Y0012210D01*
X0019774Y0012088D01*
X0019687Y0011969D01*
X0019596Y0011852D01*
X0019502Y0011737D01*
X0019406Y0011625D01*
X0019306Y0011515D01*
X0019204Y0011409D01*
X0019098Y0011305D01*
X0018990Y0011204D01*
X0018879Y0011106D01*
X0018766Y0011010D01*
X0018650Y0010918D01*
X0018532Y0010829D01*
X0018411Y0010744D01*
X0018288Y0010661D01*
X0018163Y0010582D01*
X0018036Y0010506D01*
X0017907Y0010434D01*
X0017776Y0010365D01*
X0017643Y0010300D01*
X0017508Y0010239D01*
X0017372Y0010181D01*
X0017235Y0010126D01*
X0017096Y0010076D01*
X0016955Y0010029D01*
X0016814Y0009986D01*
X0016671Y0009946D01*
X0016527Y0009911D01*
X0016383Y0009879D01*
X0016237Y0009852D01*
X0016091Y0009828D01*
X0015944Y0009808D01*
X0015797Y0009792D01*
X0015650Y0009780D01*
X0015502Y0009772D01*
X0015354Y0009768D01*
X0015206Y0009768D01*
X0015058Y0009772D01*
X0014910Y0009780D01*
X0014763Y0009792D01*
X0014616Y0009808D01*
X0014469Y0009828D01*
X0014323Y0009852D01*
X0014177Y0009879D01*
X0014033Y0009911D01*
X0013889Y0009946D01*
X0013746Y0009986D01*
X0013605Y0010029D01*
X0013464Y0010076D01*
X0013325Y0010126D01*
X0013188Y0010181D01*
X0013052Y0010239D01*
X0012917Y0010300D01*
X0012784Y0010365D01*
X0012653Y0010434D01*
X0012524Y0010506D01*
X0012397Y0010582D01*
X0012272Y0010661D01*
X0012149Y0010744D01*
X0012028Y0010829D01*
X0011910Y0010918D01*
X0011794Y0011010D01*
X0011681Y0011106D01*
X0011570Y0011204D01*
X0011462Y0011305D01*
X0011356Y0011409D01*
X0011254Y0011515D01*
X0011154Y0011625D01*
X0011058Y0011737D01*
X0010964Y0011852D01*
X0010873Y0011969D01*
X0010786Y0012088D01*
X0010702Y0012210D01*
X0010621Y0012334D01*
X0010544Y0012460D01*
X0010470Y0012588D01*
X0010399Y0012718D01*
X0010332Y0012850D01*
X0010269Y0012984D01*
X0010209Y0013119D01*
X0010153Y0013256D01*
X0010100Y0013395D01*
X0010052Y0013535D01*
X0010007Y0013676D01*
X0009966Y0013818D01*
X0009928Y0013961D01*
X0009895Y0014105D01*
X0009865Y0014250D01*
X0009839Y0014396D01*
X0009818Y0014542D01*
X0009800Y0014689D01*
X0009786Y0014836D01*
X0009776Y0014984D01*
X0009770Y0015132D01*
X0009768Y0015280D01*
X0009768Y0208193D02*
X0009770Y0208341D01*
X0009776Y0208489D01*
X0009786Y0208637D01*
X0009800Y0208784D01*
X0009818Y0208931D01*
X0009839Y0209077D01*
X0009865Y0209223D01*
X0009895Y0209368D01*
X0009928Y0209512D01*
X0009966Y0209655D01*
X0010007Y0209797D01*
X0010052Y0209938D01*
X0010100Y0210078D01*
X0010153Y0210217D01*
X0010209Y0210354D01*
X0010269Y0210489D01*
X0010332Y0210623D01*
X0010399Y0210755D01*
X0010470Y0210885D01*
X0010544Y0211013D01*
X0010621Y0211139D01*
X0010702Y0211263D01*
X0010786Y0211385D01*
X0010873Y0211504D01*
X0010964Y0211621D01*
X0011058Y0211736D01*
X0011154Y0211848D01*
X0011254Y0211958D01*
X0011356Y0212064D01*
X0011462Y0212168D01*
X0011570Y0212269D01*
X0011681Y0212367D01*
X0011794Y0212463D01*
X0011910Y0212555D01*
X0012028Y0212644D01*
X0012149Y0212729D01*
X0012272Y0212812D01*
X0012397Y0212891D01*
X0012524Y0212967D01*
X0012653Y0213039D01*
X0012784Y0213108D01*
X0012917Y0213173D01*
X0013052Y0213234D01*
X0013188Y0213292D01*
X0013325Y0213347D01*
X0013464Y0213397D01*
X0013605Y0213444D01*
X0013746Y0213487D01*
X0013889Y0213527D01*
X0014033Y0213562D01*
X0014177Y0213594D01*
X0014323Y0213621D01*
X0014469Y0213645D01*
X0014616Y0213665D01*
X0014763Y0213681D01*
X0014910Y0213693D01*
X0015058Y0213701D01*
X0015206Y0213705D01*
X0015354Y0213705D01*
X0015502Y0213701D01*
X0015650Y0213693D01*
X0015797Y0213681D01*
X0015944Y0213665D01*
X0016091Y0213645D01*
X0016237Y0213621D01*
X0016383Y0213594D01*
X0016527Y0213562D01*
X0016671Y0213527D01*
X0016814Y0213487D01*
X0016955Y0213444D01*
X0017096Y0213397D01*
X0017235Y0213347D01*
X0017372Y0213292D01*
X0017508Y0213234D01*
X0017643Y0213173D01*
X0017776Y0213108D01*
X0017907Y0213039D01*
X0018036Y0212967D01*
X0018163Y0212891D01*
X0018288Y0212812D01*
X0018411Y0212729D01*
X0018532Y0212644D01*
X0018650Y0212555D01*
X0018766Y0212463D01*
X0018879Y0212367D01*
X0018990Y0212269D01*
X0019098Y0212168D01*
X0019204Y0212064D01*
X0019306Y0211958D01*
X0019406Y0211848D01*
X0019502Y0211736D01*
X0019596Y0211621D01*
X0019687Y0211504D01*
X0019774Y0211385D01*
X0019858Y0211263D01*
X0019939Y0211139D01*
X0020016Y0211013D01*
X0020090Y0210885D01*
X0020161Y0210755D01*
X0020228Y0210623D01*
X0020291Y0210489D01*
X0020351Y0210354D01*
X0020407Y0210217D01*
X0020460Y0210078D01*
X0020508Y0209938D01*
X0020553Y0209797D01*
X0020594Y0209655D01*
X0020632Y0209512D01*
X0020665Y0209368D01*
X0020695Y0209223D01*
X0020721Y0209077D01*
X0020742Y0208931D01*
X0020760Y0208784D01*
X0020774Y0208637D01*
X0020784Y0208489D01*
X0020790Y0208341D01*
X0020792Y0208193D01*
X0020790Y0208045D01*
X0020784Y0207897D01*
X0020774Y0207749D01*
X0020760Y0207602D01*
X0020742Y0207455D01*
X0020721Y0207309D01*
X0020695Y0207163D01*
X0020665Y0207018D01*
X0020632Y0206874D01*
X0020594Y0206731D01*
X0020553Y0206589D01*
X0020508Y0206448D01*
X0020460Y0206308D01*
X0020407Y0206169D01*
X0020351Y0206032D01*
X0020291Y0205897D01*
X0020228Y0205763D01*
X0020161Y0205631D01*
X0020090Y0205501D01*
X0020016Y0205373D01*
X0019939Y0205247D01*
X0019858Y0205123D01*
X0019774Y0205001D01*
X0019687Y0204882D01*
X0019596Y0204765D01*
X0019502Y0204650D01*
X0019406Y0204538D01*
X0019306Y0204428D01*
X0019204Y0204322D01*
X0019098Y0204218D01*
X0018990Y0204117D01*
X0018879Y0204019D01*
X0018766Y0203923D01*
X0018650Y0203831D01*
X0018532Y0203742D01*
X0018411Y0203657D01*
X0018288Y0203574D01*
X0018163Y0203495D01*
X0018036Y0203419D01*
X0017907Y0203347D01*
X0017776Y0203278D01*
X0017643Y0203213D01*
X0017508Y0203152D01*
X0017372Y0203094D01*
X0017235Y0203039D01*
X0017096Y0202989D01*
X0016955Y0202942D01*
X0016814Y0202899D01*
X0016671Y0202859D01*
X0016527Y0202824D01*
X0016383Y0202792D01*
X0016237Y0202765D01*
X0016091Y0202741D01*
X0015944Y0202721D01*
X0015797Y0202705D01*
X0015650Y0202693D01*
X0015502Y0202685D01*
X0015354Y0202681D01*
X0015206Y0202681D01*
X0015058Y0202685D01*
X0014910Y0202693D01*
X0014763Y0202705D01*
X0014616Y0202721D01*
X0014469Y0202741D01*
X0014323Y0202765D01*
X0014177Y0202792D01*
X0014033Y0202824D01*
X0013889Y0202859D01*
X0013746Y0202899D01*
X0013605Y0202942D01*
X0013464Y0202989D01*
X0013325Y0203039D01*
X0013188Y0203094D01*
X0013052Y0203152D01*
X0012917Y0203213D01*
X0012784Y0203278D01*
X0012653Y0203347D01*
X0012524Y0203419D01*
X0012397Y0203495D01*
X0012272Y0203574D01*
X0012149Y0203657D01*
X0012028Y0203742D01*
X0011910Y0203831D01*
X0011794Y0203923D01*
X0011681Y0204019D01*
X0011570Y0204117D01*
X0011462Y0204218D01*
X0011356Y0204322D01*
X0011254Y0204428D01*
X0011154Y0204538D01*
X0011058Y0204650D01*
X0010964Y0204765D01*
X0010873Y0204882D01*
X0010786Y0205001D01*
X0010702Y0205123D01*
X0010621Y0205247D01*
X0010544Y0205373D01*
X0010470Y0205501D01*
X0010399Y0205631D01*
X0010332Y0205763D01*
X0010269Y0205897D01*
X0010209Y0206032D01*
X0010153Y0206169D01*
X0010100Y0206308D01*
X0010052Y0206448D01*
X0010007Y0206589D01*
X0009966Y0206731D01*
X0009928Y0206874D01*
X0009895Y0207018D01*
X0009865Y0207163D01*
X0009839Y0207309D01*
X0009818Y0207455D01*
X0009800Y0207602D01*
X0009786Y0207749D01*
X0009776Y0207897D01*
X0009770Y0208045D01*
X0009768Y0208193D01*
X0238114Y0208193D02*
X0238116Y0208341D01*
X0238122Y0208489D01*
X0238132Y0208637D01*
X0238146Y0208784D01*
X0238164Y0208931D01*
X0238185Y0209077D01*
X0238211Y0209223D01*
X0238241Y0209368D01*
X0238274Y0209512D01*
X0238312Y0209655D01*
X0238353Y0209797D01*
X0238398Y0209938D01*
X0238446Y0210078D01*
X0238499Y0210217D01*
X0238555Y0210354D01*
X0238615Y0210489D01*
X0238678Y0210623D01*
X0238745Y0210755D01*
X0238816Y0210885D01*
X0238890Y0211013D01*
X0238967Y0211139D01*
X0239048Y0211263D01*
X0239132Y0211385D01*
X0239219Y0211504D01*
X0239310Y0211621D01*
X0239404Y0211736D01*
X0239500Y0211848D01*
X0239600Y0211958D01*
X0239702Y0212064D01*
X0239808Y0212168D01*
X0239916Y0212269D01*
X0240027Y0212367D01*
X0240140Y0212463D01*
X0240256Y0212555D01*
X0240374Y0212644D01*
X0240495Y0212729D01*
X0240618Y0212812D01*
X0240743Y0212891D01*
X0240870Y0212967D01*
X0240999Y0213039D01*
X0241130Y0213108D01*
X0241263Y0213173D01*
X0241398Y0213234D01*
X0241534Y0213292D01*
X0241671Y0213347D01*
X0241810Y0213397D01*
X0241951Y0213444D01*
X0242092Y0213487D01*
X0242235Y0213527D01*
X0242379Y0213562D01*
X0242523Y0213594D01*
X0242669Y0213621D01*
X0242815Y0213645D01*
X0242962Y0213665D01*
X0243109Y0213681D01*
X0243256Y0213693D01*
X0243404Y0213701D01*
X0243552Y0213705D01*
X0243700Y0213705D01*
X0243848Y0213701D01*
X0243996Y0213693D01*
X0244143Y0213681D01*
X0244290Y0213665D01*
X0244437Y0213645D01*
X0244583Y0213621D01*
X0244729Y0213594D01*
X0244873Y0213562D01*
X0245017Y0213527D01*
X0245160Y0213487D01*
X0245301Y0213444D01*
X0245442Y0213397D01*
X0245581Y0213347D01*
X0245718Y0213292D01*
X0245854Y0213234D01*
X0245989Y0213173D01*
X0246122Y0213108D01*
X0246253Y0213039D01*
X0246382Y0212967D01*
X0246509Y0212891D01*
X0246634Y0212812D01*
X0246757Y0212729D01*
X0246878Y0212644D01*
X0246996Y0212555D01*
X0247112Y0212463D01*
X0247225Y0212367D01*
X0247336Y0212269D01*
X0247444Y0212168D01*
X0247550Y0212064D01*
X0247652Y0211958D01*
X0247752Y0211848D01*
X0247848Y0211736D01*
X0247942Y0211621D01*
X0248033Y0211504D01*
X0248120Y0211385D01*
X0248204Y0211263D01*
X0248285Y0211139D01*
X0248362Y0211013D01*
X0248436Y0210885D01*
X0248507Y0210755D01*
X0248574Y0210623D01*
X0248637Y0210489D01*
X0248697Y0210354D01*
X0248753Y0210217D01*
X0248806Y0210078D01*
X0248854Y0209938D01*
X0248899Y0209797D01*
X0248940Y0209655D01*
X0248978Y0209512D01*
X0249011Y0209368D01*
X0249041Y0209223D01*
X0249067Y0209077D01*
X0249088Y0208931D01*
X0249106Y0208784D01*
X0249120Y0208637D01*
X0249130Y0208489D01*
X0249136Y0208341D01*
X0249138Y0208193D01*
X0249136Y0208045D01*
X0249130Y0207897D01*
X0249120Y0207749D01*
X0249106Y0207602D01*
X0249088Y0207455D01*
X0249067Y0207309D01*
X0249041Y0207163D01*
X0249011Y0207018D01*
X0248978Y0206874D01*
X0248940Y0206731D01*
X0248899Y0206589D01*
X0248854Y0206448D01*
X0248806Y0206308D01*
X0248753Y0206169D01*
X0248697Y0206032D01*
X0248637Y0205897D01*
X0248574Y0205763D01*
X0248507Y0205631D01*
X0248436Y0205501D01*
X0248362Y0205373D01*
X0248285Y0205247D01*
X0248204Y0205123D01*
X0248120Y0205001D01*
X0248033Y0204882D01*
X0247942Y0204765D01*
X0247848Y0204650D01*
X0247752Y0204538D01*
X0247652Y0204428D01*
X0247550Y0204322D01*
X0247444Y0204218D01*
X0247336Y0204117D01*
X0247225Y0204019D01*
X0247112Y0203923D01*
X0246996Y0203831D01*
X0246878Y0203742D01*
X0246757Y0203657D01*
X0246634Y0203574D01*
X0246509Y0203495D01*
X0246382Y0203419D01*
X0246253Y0203347D01*
X0246122Y0203278D01*
X0245989Y0203213D01*
X0245854Y0203152D01*
X0245718Y0203094D01*
X0245581Y0203039D01*
X0245442Y0202989D01*
X0245301Y0202942D01*
X0245160Y0202899D01*
X0245017Y0202859D01*
X0244873Y0202824D01*
X0244729Y0202792D01*
X0244583Y0202765D01*
X0244437Y0202741D01*
X0244290Y0202721D01*
X0244143Y0202705D01*
X0243996Y0202693D01*
X0243848Y0202685D01*
X0243700Y0202681D01*
X0243552Y0202681D01*
X0243404Y0202685D01*
X0243256Y0202693D01*
X0243109Y0202705D01*
X0242962Y0202721D01*
X0242815Y0202741D01*
X0242669Y0202765D01*
X0242523Y0202792D01*
X0242379Y0202824D01*
X0242235Y0202859D01*
X0242092Y0202899D01*
X0241951Y0202942D01*
X0241810Y0202989D01*
X0241671Y0203039D01*
X0241534Y0203094D01*
X0241398Y0203152D01*
X0241263Y0203213D01*
X0241130Y0203278D01*
X0240999Y0203347D01*
X0240870Y0203419D01*
X0240743Y0203495D01*
X0240618Y0203574D01*
X0240495Y0203657D01*
X0240374Y0203742D01*
X0240256Y0203831D01*
X0240140Y0203923D01*
X0240027Y0204019D01*
X0239916Y0204117D01*
X0239808Y0204218D01*
X0239702Y0204322D01*
X0239600Y0204428D01*
X0239500Y0204538D01*
X0239404Y0204650D01*
X0239310Y0204765D01*
X0239219Y0204882D01*
X0239132Y0205001D01*
X0239048Y0205123D01*
X0238967Y0205247D01*
X0238890Y0205373D01*
X0238816Y0205501D01*
X0238745Y0205631D01*
X0238678Y0205763D01*
X0238615Y0205897D01*
X0238555Y0206032D01*
X0238499Y0206169D01*
X0238446Y0206308D01*
X0238398Y0206448D01*
X0238353Y0206589D01*
X0238312Y0206731D01*
X0238274Y0206874D01*
X0238241Y0207018D01*
X0238211Y0207163D01*
X0238185Y0207309D01*
X0238164Y0207455D01*
X0238146Y0207602D01*
X0238132Y0207749D01*
X0238122Y0207897D01*
X0238116Y0208045D01*
X0238114Y0208193D01*
X0238114Y0015280D02*
X0238116Y0015428D01*
X0238122Y0015576D01*
X0238132Y0015724D01*
X0238146Y0015871D01*
X0238164Y0016018D01*
X0238185Y0016164D01*
X0238211Y0016310D01*
X0238241Y0016455D01*
X0238274Y0016599D01*
X0238312Y0016742D01*
X0238353Y0016884D01*
X0238398Y0017025D01*
X0238446Y0017165D01*
X0238499Y0017304D01*
X0238555Y0017441D01*
X0238615Y0017576D01*
X0238678Y0017710D01*
X0238745Y0017842D01*
X0238816Y0017972D01*
X0238890Y0018100D01*
X0238967Y0018226D01*
X0239048Y0018350D01*
X0239132Y0018472D01*
X0239219Y0018591D01*
X0239310Y0018708D01*
X0239404Y0018823D01*
X0239500Y0018935D01*
X0239600Y0019045D01*
X0239702Y0019151D01*
X0239808Y0019255D01*
X0239916Y0019356D01*
X0240027Y0019454D01*
X0240140Y0019550D01*
X0240256Y0019642D01*
X0240374Y0019731D01*
X0240495Y0019816D01*
X0240618Y0019899D01*
X0240743Y0019978D01*
X0240870Y0020054D01*
X0240999Y0020126D01*
X0241130Y0020195D01*
X0241263Y0020260D01*
X0241398Y0020321D01*
X0241534Y0020379D01*
X0241671Y0020434D01*
X0241810Y0020484D01*
X0241951Y0020531D01*
X0242092Y0020574D01*
X0242235Y0020614D01*
X0242379Y0020649D01*
X0242523Y0020681D01*
X0242669Y0020708D01*
X0242815Y0020732D01*
X0242962Y0020752D01*
X0243109Y0020768D01*
X0243256Y0020780D01*
X0243404Y0020788D01*
X0243552Y0020792D01*
X0243700Y0020792D01*
X0243848Y0020788D01*
X0243996Y0020780D01*
X0244143Y0020768D01*
X0244290Y0020752D01*
X0244437Y0020732D01*
X0244583Y0020708D01*
X0244729Y0020681D01*
X0244873Y0020649D01*
X0245017Y0020614D01*
X0245160Y0020574D01*
X0245301Y0020531D01*
X0245442Y0020484D01*
X0245581Y0020434D01*
X0245718Y0020379D01*
X0245854Y0020321D01*
X0245989Y0020260D01*
X0246122Y0020195D01*
X0246253Y0020126D01*
X0246382Y0020054D01*
X0246509Y0019978D01*
X0246634Y0019899D01*
X0246757Y0019816D01*
X0246878Y0019731D01*
X0246996Y0019642D01*
X0247112Y0019550D01*
X0247225Y0019454D01*
X0247336Y0019356D01*
X0247444Y0019255D01*
X0247550Y0019151D01*
X0247652Y0019045D01*
X0247752Y0018935D01*
X0247848Y0018823D01*
X0247942Y0018708D01*
X0248033Y0018591D01*
X0248120Y0018472D01*
X0248204Y0018350D01*
X0248285Y0018226D01*
X0248362Y0018100D01*
X0248436Y0017972D01*
X0248507Y0017842D01*
X0248574Y0017710D01*
X0248637Y0017576D01*
X0248697Y0017441D01*
X0248753Y0017304D01*
X0248806Y0017165D01*
X0248854Y0017025D01*
X0248899Y0016884D01*
X0248940Y0016742D01*
X0248978Y0016599D01*
X0249011Y0016455D01*
X0249041Y0016310D01*
X0249067Y0016164D01*
X0249088Y0016018D01*
X0249106Y0015871D01*
X0249120Y0015724D01*
X0249130Y0015576D01*
X0249136Y0015428D01*
X0249138Y0015280D01*
X0249136Y0015132D01*
X0249130Y0014984D01*
X0249120Y0014836D01*
X0249106Y0014689D01*
X0249088Y0014542D01*
X0249067Y0014396D01*
X0249041Y0014250D01*
X0249011Y0014105D01*
X0248978Y0013961D01*
X0248940Y0013818D01*
X0248899Y0013676D01*
X0248854Y0013535D01*
X0248806Y0013395D01*
X0248753Y0013256D01*
X0248697Y0013119D01*
X0248637Y0012984D01*
X0248574Y0012850D01*
X0248507Y0012718D01*
X0248436Y0012588D01*
X0248362Y0012460D01*
X0248285Y0012334D01*
X0248204Y0012210D01*
X0248120Y0012088D01*
X0248033Y0011969D01*
X0247942Y0011852D01*
X0247848Y0011737D01*
X0247752Y0011625D01*
X0247652Y0011515D01*
X0247550Y0011409D01*
X0247444Y0011305D01*
X0247336Y0011204D01*
X0247225Y0011106D01*
X0247112Y0011010D01*
X0246996Y0010918D01*
X0246878Y0010829D01*
X0246757Y0010744D01*
X0246634Y0010661D01*
X0246509Y0010582D01*
X0246382Y0010506D01*
X0246253Y0010434D01*
X0246122Y0010365D01*
X0245989Y0010300D01*
X0245854Y0010239D01*
X0245718Y0010181D01*
X0245581Y0010126D01*
X0245442Y0010076D01*
X0245301Y0010029D01*
X0245160Y0009986D01*
X0245017Y0009946D01*
X0244873Y0009911D01*
X0244729Y0009879D01*
X0244583Y0009852D01*
X0244437Y0009828D01*
X0244290Y0009808D01*
X0244143Y0009792D01*
X0243996Y0009780D01*
X0243848Y0009772D01*
X0243700Y0009768D01*
X0243552Y0009768D01*
X0243404Y0009772D01*
X0243256Y0009780D01*
X0243109Y0009792D01*
X0242962Y0009808D01*
X0242815Y0009828D01*
X0242669Y0009852D01*
X0242523Y0009879D01*
X0242379Y0009911D01*
X0242235Y0009946D01*
X0242092Y0009986D01*
X0241951Y0010029D01*
X0241810Y0010076D01*
X0241671Y0010126D01*
X0241534Y0010181D01*
X0241398Y0010239D01*
X0241263Y0010300D01*
X0241130Y0010365D01*
X0240999Y0010434D01*
X0240870Y0010506D01*
X0240743Y0010582D01*
X0240618Y0010661D01*
X0240495Y0010744D01*
X0240374Y0010829D01*
X0240256Y0010918D01*
X0240140Y0011010D01*
X0240027Y0011106D01*
X0239916Y0011204D01*
X0239808Y0011305D01*
X0239702Y0011409D01*
X0239600Y0011515D01*
X0239500Y0011625D01*
X0239404Y0011737D01*
X0239310Y0011852D01*
X0239219Y0011969D01*
X0239132Y0012088D01*
X0239048Y0012210D01*
X0238967Y0012334D01*
X0238890Y0012460D01*
X0238816Y0012588D01*
X0238745Y0012718D01*
X0238678Y0012850D01*
X0238615Y0012984D01*
X0238555Y0013119D01*
X0238499Y0013256D01*
X0238446Y0013395D01*
X0238398Y0013535D01*
X0238353Y0013676D01*
X0238312Y0013818D01*
X0238274Y0013961D01*
X0238241Y0014105D01*
X0238211Y0014250D01*
X0238185Y0014396D01*
X0238164Y0014542D01*
X0238146Y0014689D01*
X0238132Y0014836D01*
X0238122Y0014984D01*
X0238116Y0015132D01*
X0238114Y0015280D01*
D11*
X0228711Y0016478D02*
X0030194Y0016478D01*
X0030036Y0017476D02*
X0228869Y0017476D01*
X0229027Y0018475D02*
X0029878Y0018475D01*
X0029720Y0019473D02*
X0229185Y0019473D01*
X0229261Y0019947D02*
X0228521Y0015280D01*
X0229261Y0010612D01*
X0231406Y0006401D01*
X0233407Y0004400D01*
X0202126Y0004400D01*
X0202557Y0004831D01*
X0203075Y0006081D01*
X0203075Y0008601D01*
X0202557Y0009851D01*
X0201601Y0010807D01*
X0201017Y0011391D01*
X0199767Y0011909D01*
X0196663Y0011909D01*
X0196143Y0011694D01*
X0195624Y0011909D01*
X0194456Y0011909D01*
X0193772Y0011909D01*
X0193103Y0011909D01*
X0192785Y0011777D01*
X0192584Y0011694D01*
X0192064Y0011909D01*
X0188376Y0011909D01*
X0187126Y0011391D01*
X0186170Y0010435D01*
X0185652Y0009185D01*
X0185652Y0007833D01*
X0186170Y0006583D01*
X0186820Y0005933D01*
X0186820Y0004400D01*
X0025498Y0004400D01*
X0027499Y0006401D01*
X0029645Y0010612D01*
X0030384Y0015280D01*
X0029645Y0019947D01*
X0027499Y0024158D01*
X0024158Y0027499D01*
X0019947Y0029645D01*
X0015280Y0030384D01*
X0010612Y0029645D01*
X0006401Y0027499D01*
X0004400Y0025498D01*
X0004400Y0074335D01*
X0004420Y0074537D01*
X0004575Y0074911D01*
X0004861Y0075197D01*
X0005235Y0075352D01*
X0005437Y0075372D01*
X0018608Y0075372D01*
X0021121Y0076413D01*
X0023044Y0078336D01*
X0024085Y0080849D01*
X0024085Y0142624D01*
X0023044Y0145137D01*
X0021121Y0147060D01*
X0021121Y0147060D01*
X0018608Y0148101D01*
X0005437Y0148101D01*
X0005235Y0148121D01*
X0004861Y0148276D01*
X0004575Y0148562D01*
X0004420Y0148935D01*
X0004400Y0149138D01*
X0004400Y0197974D01*
X0006401Y0195973D01*
X0010612Y0193827D01*
X0015280Y0193088D01*
X0019947Y0193827D01*
X0024158Y0195973D01*
X0025800Y0197615D01*
X0025800Y0183764D01*
X0026000Y0183281D01*
X0026000Y0180222D01*
X0027800Y0178422D01*
X0027800Y0176578D01*
X0026000Y0174778D01*
X0026000Y0170222D01*
X0027800Y0168422D01*
X0027800Y0166578D01*
X0026000Y0164778D01*
X0026000Y0160222D01*
X0027800Y0158422D01*
X0027800Y0156578D01*
X0026000Y0154778D01*
X0026000Y0150222D01*
X0027800Y0148422D01*
X0027800Y0146578D01*
X0026000Y0144778D01*
X0026000Y0140222D01*
X0027800Y0138422D01*
X0027800Y0136578D01*
X0026000Y0134778D01*
X0026000Y0130222D01*
X0027800Y0128422D01*
X0027800Y0116578D01*
X0026000Y0114778D01*
X0026000Y0110222D01*
X0027800Y0108422D01*
X0027800Y0106578D01*
X0026000Y0104778D01*
X0026000Y0100222D01*
X0027800Y0098422D01*
X0027800Y0096578D01*
X0026000Y0094778D01*
X0026000Y0090222D01*
X0027800Y0088422D01*
X0027800Y0083304D01*
X0026829Y0082334D01*
X0025992Y0080312D01*
X0025992Y0072924D01*
X0026829Y0070903D01*
X0028377Y0069355D01*
X0030398Y0068518D01*
X0032586Y0068518D01*
X0034608Y0069355D01*
X0036155Y0070903D01*
X0036492Y0071717D01*
X0036829Y0070903D01*
X0038377Y0069355D01*
X0040398Y0068518D01*
X0042586Y0068518D01*
X0044608Y0069355D01*
X0046155Y0070903D01*
X0046492Y0071717D01*
X0046829Y0070903D01*
X0048377Y0069355D01*
X0050398Y0068518D01*
X0052586Y0068518D01*
X0054608Y0069355D01*
X0056155Y0070903D01*
X0056492Y0071717D01*
X0056829Y0070903D01*
X0058377Y0069355D01*
X0060398Y0068518D01*
X0062586Y0068518D01*
X0064608Y0069355D01*
X0066155Y0070903D01*
X0066492Y0071717D01*
X0066829Y0070903D01*
X0068377Y0069355D01*
X0070398Y0068518D01*
X0072586Y0068518D01*
X0074608Y0069355D01*
X0076155Y0070903D01*
X0076492Y0071717D01*
X0076829Y0070903D01*
X0078377Y0069355D01*
X0080398Y0068518D01*
X0082586Y0068518D01*
X0084608Y0069355D01*
X0086155Y0070903D01*
X0086492Y0071717D01*
X0086829Y0070903D01*
X0088377Y0069355D01*
X0090398Y0068518D01*
X0092586Y0068518D01*
X0094608Y0069355D01*
X0096155Y0070903D01*
X0096492Y0071717D01*
X0096829Y0070903D01*
X0098377Y0069355D01*
X0100398Y0068518D01*
X0102586Y0068518D01*
X0104608Y0069355D01*
X0106155Y0070903D01*
X0106992Y0072924D01*
X0106992Y0080312D01*
X0106155Y0082334D01*
X0104608Y0083881D01*
X0102586Y0084718D01*
X0101200Y0084718D01*
X0101200Y0088765D01*
X0101326Y0088700D01*
X0101940Y0088501D01*
X0102577Y0088400D01*
X0105200Y0088400D01*
X0105200Y0092200D01*
X0105800Y0092200D01*
X0105800Y0092800D01*
X0105200Y0092800D01*
X0105200Y0096600D01*
X0102577Y0096600D01*
X0101940Y0096499D01*
X0101326Y0096300D01*
X0101200Y0096235D01*
X0101200Y0098765D01*
X0101326Y0098700D01*
X0101940Y0098501D01*
X0102577Y0098400D01*
X0105200Y0098400D01*
X0105200Y0102200D01*
X0105800Y0102200D01*
X0105800Y0102800D01*
X0105200Y0102800D01*
X0105200Y0106600D01*
X0102577Y0106600D01*
X0101940Y0106499D01*
X0101326Y0106300D01*
X0100751Y0106007D01*
X0100229Y0105627D01*
X0099773Y0105171D01*
X0099473Y0104759D01*
X0094670Y0109563D01*
X0095400Y0111326D01*
X0095400Y0113674D01*
X0094502Y0115842D01*
X0092844Y0117500D01*
X0094502Y0119158D01*
X0095400Y0121326D01*
X0095400Y0123674D01*
X0094502Y0125842D01*
X0092844Y0127500D01*
X0094144Y0128800D01*
X0098822Y0128800D01*
X0099784Y0127837D01*
X0100599Y0127500D01*
X0099784Y0127163D01*
X0098237Y0125615D01*
X0097400Y0123594D01*
X0097400Y0121406D01*
X0098237Y0119384D01*
X0099784Y0117837D01*
X0100599Y0117500D01*
X0099784Y0117163D01*
X0098237Y0115615D01*
X0097400Y0113594D01*
X0097400Y0111406D01*
X0098237Y0109384D01*
X0099784Y0107837D01*
X0101806Y0107000D01*
X0109194Y0107000D01*
X0111215Y0107837D01*
X0112763Y0109384D01*
X0113600Y0111406D01*
X0113600Y0113594D01*
X0112763Y0115615D01*
X0111215Y0117163D01*
X0110401Y0117500D01*
X0111215Y0117837D01*
X0112763Y0119384D01*
X0113600Y0121406D01*
X0113600Y0123594D01*
X0112763Y0125615D01*
X0111215Y0127163D01*
X0110401Y0127500D01*
X0111215Y0127837D01*
X0112763Y0129384D01*
X0113600Y0131406D01*
X0113600Y0133594D01*
X0112763Y0135615D01*
X0111215Y0137163D01*
X0110401Y0137500D01*
X0111215Y0137837D01*
X0112763Y0139384D01*
X0113600Y0141406D01*
X0113600Y0143594D01*
X0112763Y0145615D01*
X0111215Y0147163D01*
X0110401Y0147500D01*
X0111215Y0147837D01*
X0112763Y0149384D01*
X0113600Y0151406D01*
X0113600Y0153594D01*
X0112763Y0155615D01*
X0111215Y0157163D01*
X0110401Y0157500D01*
X0111215Y0157837D01*
X0112763Y0159384D01*
X0113530Y0161237D01*
X0124363Y0150404D01*
X0125404Y0149363D01*
X0126764Y0148800D01*
X0128822Y0148800D01*
X0129784Y0147837D01*
X0130599Y0147500D01*
X0129784Y0147163D01*
X0128237Y0145615D01*
X0127400Y0143594D01*
X0127400Y0141406D01*
X0128237Y0139384D01*
X0129784Y0137837D01*
X0130599Y0137500D01*
X0129784Y0137163D01*
X0128237Y0135615D01*
X0127400Y0133594D01*
X0127400Y0131406D01*
X0128237Y0129384D01*
X0129784Y0127837D01*
X0130599Y0127500D01*
X0129784Y0127163D01*
X0128237Y0125615D01*
X0127400Y0123594D01*
X0127400Y0121406D01*
X0128237Y0119384D01*
X0129784Y0117837D01*
X0130599Y0117500D01*
X0129784Y0117163D01*
X0128237Y0115615D01*
X0127400Y0113594D01*
X0127400Y0111406D01*
X0128237Y0109384D01*
X0129784Y0107837D01*
X0130599Y0107500D01*
X0129784Y0107163D01*
X0128237Y0105615D01*
X0127400Y0103594D01*
X0127400Y0101406D01*
X0128237Y0099384D01*
X0129784Y0097837D01*
X0130599Y0097500D01*
X0129784Y0097163D01*
X0128237Y0095615D01*
X0127400Y0093594D01*
X0127400Y0091406D01*
X0128237Y0089384D01*
X0129784Y0087837D01*
X0131806Y0087000D01*
X0139194Y0087000D01*
X0141215Y0087837D01*
X0142763Y0089384D01*
X0143600Y0091406D01*
X0143600Y0093594D01*
X0143081Y0094848D01*
X0147033Y0098800D01*
X0149822Y0098800D01*
X0150784Y0097837D01*
X0152806Y0097000D01*
X0160194Y0097000D01*
X0162215Y0097837D01*
X0163763Y0099384D01*
X0164600Y0101406D01*
X0164600Y0103594D01*
X0163763Y0105615D01*
X0162215Y0107163D01*
X0161401Y0107500D01*
X0162215Y0107837D01*
X0163763Y0109384D01*
X0164600Y0111406D01*
X0164600Y0113594D01*
X0163763Y0115615D01*
X0162215Y0117163D01*
X0161401Y0117500D01*
X0162215Y0117837D01*
X0163763Y0119384D01*
X0164600Y0121406D01*
X0164600Y0123594D01*
X0163763Y0125615D01*
X0162215Y0127163D01*
X0161401Y0127500D01*
X0162215Y0127837D01*
X0163763Y0129384D01*
X0164600Y0131406D01*
X0164600Y0133594D01*
X0163763Y0135615D01*
X0162215Y0137163D01*
X0161401Y0137500D01*
X0162215Y0137837D01*
X0163763Y0139384D01*
X0164600Y0141406D01*
X0164600Y0143594D01*
X0163763Y0145615D01*
X0162215Y0147163D01*
X0161401Y0147500D01*
X0162215Y0147837D01*
X0163763Y0149384D01*
X0164600Y0151406D01*
X0164600Y0153594D01*
X0163763Y0155615D01*
X0162215Y0157163D01*
X0160194Y0158000D01*
X0152806Y0158000D01*
X0150784Y0157163D01*
X0149237Y0155615D01*
X0149200Y0155525D01*
X0149200Y0158236D01*
X0148637Y0159596D01*
X0147596Y0160637D01*
X0142866Y0165367D01*
X0142763Y0165615D01*
X0141215Y0167163D01*
X0139194Y0168000D01*
X0135233Y0168000D01*
X0115433Y0187800D01*
X0155967Y0187800D01*
X0178919Y0164848D01*
X0178400Y0163594D01*
X0178400Y0161406D01*
X0179237Y0159384D01*
X0180784Y0157837D01*
X0181599Y0157500D01*
X0180784Y0157163D01*
X0179237Y0155615D01*
X0178400Y0153594D01*
X0178400Y0151406D01*
X0179237Y0149384D01*
X0180784Y0147837D01*
X0182806Y0147000D01*
X0190194Y0147000D01*
X0190753Y0147231D01*
X0190753Y0146259D01*
X0190674Y0146300D01*
X0190060Y0146499D01*
X0189423Y0146600D01*
X0186800Y0146600D01*
X0186800Y0142800D01*
X0186200Y0142800D01*
X0186200Y0146600D01*
X0183577Y0146600D01*
X0182940Y0146499D01*
X0182326Y0146300D01*
X0181751Y0146007D01*
X0181229Y0145627D01*
X0180773Y0145171D01*
X0180393Y0144649D01*
X0180100Y0144074D01*
X0179901Y0143460D01*
X0179800Y0142823D01*
X0179800Y0142800D01*
X0186200Y0142800D01*
X0186200Y0142200D01*
X0186800Y0142200D01*
X0186800Y0138400D01*
X0187167Y0138400D01*
X0186767Y0138000D01*
X0182806Y0138000D01*
X0180784Y0137163D01*
X0179237Y0135615D01*
X0178400Y0133594D01*
X0178400Y0131406D01*
X0179237Y0129384D01*
X0180784Y0127837D01*
X0181599Y0127500D01*
X0180784Y0127163D01*
X0179237Y0125615D01*
X0178400Y0123594D01*
X0178400Y0121406D01*
X0179237Y0119384D01*
X0180784Y0117837D01*
X0181599Y0117500D01*
X0180784Y0117163D01*
X0179237Y0115615D01*
X0178400Y0113594D01*
X0178400Y0111406D01*
X0179237Y0109384D01*
X0180784Y0107837D01*
X0181599Y0107500D01*
X0180784Y0107163D01*
X0179237Y0105615D01*
X0178400Y0103594D01*
X0178400Y0101406D01*
X0179237Y0099384D01*
X0180784Y0097837D01*
X0181599Y0097500D01*
X0180784Y0097163D01*
X0179237Y0095615D01*
X0178400Y0093594D01*
X0178400Y0091406D01*
X0179237Y0089384D01*
X0180784Y0087837D01*
X0182806Y0087000D01*
X0190194Y0087000D01*
X0192215Y0087837D01*
X0193763Y0089384D01*
X0194600Y0091406D01*
X0194600Y0093594D01*
X0194081Y0094848D01*
X0217589Y0118357D01*
X0218153Y0119717D01*
X0218153Y0182375D01*
X0220000Y0184222D01*
X0220000Y0188778D01*
X0218153Y0190625D01*
X0218153Y0198549D01*
X0219453Y0199849D01*
X0222009Y0197293D01*
X0226897Y0197293D01*
X0230353Y0200749D01*
X0230353Y0201382D01*
X0231406Y0199315D01*
X0234748Y0195973D01*
X0238958Y0193827D01*
X0243626Y0193088D01*
X0248294Y0193827D01*
X0252504Y0195973D01*
X0254506Y0197974D01*
X0254506Y0025498D01*
X0252504Y0027499D01*
X0248294Y0029645D01*
X0243626Y0030384D01*
X0238958Y0029645D01*
X0234748Y0027499D01*
X0231406Y0024158D01*
X0229261Y0019947D01*
X0229528Y0020472D02*
X0029378Y0020472D01*
X0028869Y0021470D02*
X0230037Y0021470D01*
X0230545Y0022469D02*
X0028360Y0022469D01*
X0027851Y0023467D02*
X0231054Y0023467D01*
X0231714Y0024466D02*
X0027192Y0024466D01*
X0026193Y0025464D02*
X0232712Y0025464D01*
X0233711Y0026463D02*
X0025195Y0026463D01*
X0024196Y0027461D02*
X0234709Y0027461D01*
X0236632Y0028460D02*
X0022273Y0028460D01*
X0020313Y0029458D02*
X0238592Y0029458D01*
X0248660Y0029458D02*
X0254506Y0029458D01*
X0254506Y0028460D02*
X0250620Y0028460D01*
X0252543Y0027461D02*
X0254506Y0027461D01*
X0254506Y0026463D02*
X0253541Y0026463D01*
X0254506Y0030457D02*
X0004400Y0030457D01*
X0004400Y0031455D02*
X0254506Y0031455D01*
X0254506Y0032454D02*
X0004400Y0032454D01*
X0004400Y0033452D02*
X0254506Y0033452D01*
X0254506Y0034451D02*
X0004400Y0034451D01*
X0004400Y0035449D02*
X0254506Y0035449D01*
X0254506Y0036448D02*
X0004400Y0036448D01*
X0004400Y0037446D02*
X0254506Y0037446D01*
X0254506Y0038445D02*
X0004400Y0038445D01*
X0004400Y0039443D02*
X0048289Y0039443D01*
X0048377Y0039355D02*
X0050398Y0038518D01*
X0052586Y0038518D01*
X0054608Y0039355D01*
X0056155Y0040903D01*
X0056492Y0041717D01*
X0056829Y0040903D01*
X0058377Y0039355D01*
X0060398Y0038518D01*
X0062586Y0038518D01*
X0064608Y0039355D01*
X0066155Y0040903D01*
X0066492Y0041717D01*
X0066829Y0040903D01*
X0068377Y0039355D01*
X0070398Y0038518D01*
X0072586Y0038518D01*
X0074608Y0039355D01*
X0076155Y0040903D01*
X0076492Y0041717D01*
X0076829Y0040903D01*
X0078377Y0039355D01*
X0080398Y0038518D01*
X0082586Y0038518D01*
X0084608Y0039355D01*
X0086155Y0040903D01*
X0086492Y0041717D01*
X0086829Y0040903D01*
X0088377Y0039355D01*
X0090398Y0038518D01*
X0092586Y0038518D01*
X0094608Y0039355D01*
X0096155Y0040903D01*
X0096992Y0042924D01*
X0096992Y0050312D01*
X0096155Y0052334D01*
X0094608Y0053881D01*
X0092586Y0054718D01*
X0090398Y0054718D01*
X0088377Y0053881D01*
X0086829Y0052334D01*
X0086492Y0051519D01*
X0086155Y0052334D01*
X0084608Y0053881D01*
X0082586Y0054718D01*
X0080398Y0054718D01*
X0078377Y0053881D01*
X0076829Y0052334D01*
X0076492Y0051519D01*
X0076155Y0052334D01*
X0074608Y0053881D01*
X0072586Y0054718D01*
X0070398Y0054718D01*
X0068377Y0053881D01*
X0066829Y0052334D01*
X0066492Y0051519D01*
X0066155Y0052334D01*
X0064608Y0053881D01*
X0062586Y0054718D01*
X0060398Y0054718D01*
X0058377Y0053881D01*
X0056829Y0052334D01*
X0056492Y0051519D01*
X0056155Y0052334D01*
X0054608Y0053881D01*
X0052586Y0054718D01*
X0050398Y0054718D01*
X0048377Y0053881D01*
X0046829Y0052334D01*
X0045992Y0050312D01*
X0045992Y0042924D01*
X0046829Y0040903D01*
X0048377Y0039355D01*
X0047290Y0040442D02*
X0043505Y0040442D01*
X0043641Y0040511D02*
X0044163Y0040891D01*
X0044619Y0041347D01*
X0044999Y0041869D01*
X0045292Y0042444D01*
X0045491Y0043058D01*
X0045592Y0043695D01*
X0045592Y0046318D01*
X0041792Y0046318D01*
X0041792Y0039918D01*
X0041815Y0039918D01*
X0042452Y0040019D01*
X0043066Y0040218D01*
X0043641Y0040511D01*
X0044687Y0041440D02*
X0046607Y0041440D01*
X0046193Y0042439D02*
X0045289Y0042439D01*
X0045551Y0043437D02*
X0045992Y0043437D01*
X0045992Y0044436D02*
X0045592Y0044436D01*
X0045592Y0045434D02*
X0045992Y0045434D01*
X0045992Y0046433D02*
X0041792Y0046433D01*
X0041792Y0046318D02*
X0041792Y0046918D01*
X0045592Y0046918D01*
X0045592Y0049541D01*
X0045491Y0050178D01*
X0045292Y0050792D01*
X0044999Y0051367D01*
X0044619Y0051889D01*
X0044163Y0052345D01*
X0043641Y0052725D01*
X0043066Y0053018D01*
X0042452Y0053217D01*
X0041815Y0053318D01*
X0041792Y0053318D01*
X0041792Y0046918D01*
X0041192Y0046918D01*
X0041192Y0046318D01*
X0037392Y0046318D01*
X0037392Y0043695D01*
X0037493Y0043058D01*
X0037693Y0042444D01*
X0037985Y0041869D01*
X0038365Y0041347D01*
X0038821Y0040891D01*
X0039343Y0040511D01*
X0039918Y0040218D01*
X0040532Y0040019D01*
X0041169Y0039918D01*
X0041192Y0039918D01*
X0041192Y0046318D01*
X0041792Y0046318D01*
X0041192Y0046433D02*
X0031792Y0046433D01*
X0031792Y0046318D02*
X0031792Y0046918D01*
X0035592Y0046918D01*
X0035592Y0049541D01*
X0035491Y0050178D01*
X0035292Y0050792D01*
X0034999Y0051367D01*
X0034619Y0051889D01*
X0034163Y0052345D01*
X0033641Y0052725D01*
X0033066Y0053018D01*
X0032452Y0053217D01*
X0031815Y0053318D01*
X0031792Y0053318D01*
X0031792Y0046918D01*
X0031192Y0046918D01*
X0031192Y0046318D01*
X0027392Y0046318D01*
X0027392Y0043695D01*
X0027493Y0043058D01*
X0027693Y0042444D01*
X0027985Y0041869D01*
X0028365Y0041347D01*
X0028821Y0040891D01*
X0029343Y0040511D01*
X0029918Y0040218D01*
X0030532Y0040019D01*
X0031169Y0039918D01*
X0031192Y0039918D01*
X0031192Y0046318D01*
X0031792Y0046318D01*
X0031792Y0039918D01*
X0031815Y0039918D01*
X0032452Y0040019D01*
X0033066Y0040218D01*
X0033641Y0040511D01*
X0034163Y0040891D01*
X0034619Y0041347D01*
X0034999Y0041869D01*
X0035292Y0042444D01*
X0035491Y0043058D01*
X0035592Y0043695D01*
X0035592Y0046318D01*
X0031792Y0046318D01*
X0031192Y0046433D02*
X0004400Y0046433D01*
X0004400Y0045434D02*
X0027392Y0045434D01*
X0027392Y0044436D02*
X0004400Y0044436D01*
X0004400Y0043437D02*
X0027433Y0043437D01*
X0027695Y0042439D02*
X0004400Y0042439D01*
X0004400Y0041440D02*
X0028297Y0041440D01*
X0029480Y0040442D02*
X0004400Y0040442D01*
X0004400Y0047432D02*
X0027392Y0047432D01*
X0027392Y0046918D02*
X0031192Y0046918D01*
X0031192Y0053318D01*
X0031169Y0053318D01*
X0030532Y0053217D01*
X0029918Y0053018D01*
X0029343Y0052725D01*
X0028821Y0052345D01*
X0028365Y0051889D01*
X0027985Y0051367D01*
X0027693Y0050792D01*
X0027493Y0050178D01*
X0027392Y0049541D01*
X0027392Y0046918D01*
X0027392Y0048430D02*
X0004400Y0048430D01*
X0004400Y0049429D02*
X0027392Y0049429D01*
X0027574Y0050427D02*
X0004400Y0050427D01*
X0004400Y0051426D02*
X0028028Y0051426D01*
X0028929Y0052424D02*
X0004400Y0052424D01*
X0004400Y0053423D02*
X0047918Y0053423D01*
X0046920Y0052424D02*
X0044055Y0052424D01*
X0044956Y0051426D02*
X0046453Y0051426D01*
X0046040Y0050427D02*
X0045410Y0050427D01*
X0045592Y0049429D02*
X0045992Y0049429D01*
X0045992Y0048430D02*
X0045592Y0048430D01*
X0045592Y0047432D02*
X0045992Y0047432D01*
X0041792Y0047432D02*
X0041192Y0047432D01*
X0041192Y0046918D02*
X0041192Y0053318D01*
X0041169Y0053318D01*
X0040532Y0053217D01*
X0039918Y0053018D01*
X0039343Y0052725D01*
X0038821Y0052345D01*
X0038365Y0051889D01*
X0037985Y0051367D01*
X0037693Y0050792D01*
X0037493Y0050178D01*
X0037392Y0049541D01*
X0037392Y0046918D01*
X0041192Y0046918D01*
X0041192Y0045434D02*
X0041792Y0045434D01*
X0041792Y0044436D02*
X0041192Y0044436D01*
X0041192Y0043437D02*
X0041792Y0043437D01*
X0041792Y0042439D02*
X0041192Y0042439D01*
X0041192Y0041440D02*
X0041792Y0041440D01*
X0041792Y0040442D02*
X0041192Y0040442D01*
X0039480Y0040442D02*
X0033505Y0040442D01*
X0034687Y0041440D02*
X0038297Y0041440D01*
X0037695Y0042439D02*
X0035289Y0042439D01*
X0035551Y0043437D02*
X0037433Y0043437D01*
X0037392Y0044436D02*
X0035592Y0044436D01*
X0035592Y0045434D02*
X0037392Y0045434D01*
X0037392Y0047432D02*
X0035592Y0047432D01*
X0035592Y0048430D02*
X0037392Y0048430D01*
X0037392Y0049429D02*
X0035592Y0049429D01*
X0035410Y0050427D02*
X0037574Y0050427D01*
X0038028Y0051426D02*
X0034956Y0051426D01*
X0034055Y0052424D02*
X0038929Y0052424D01*
X0041192Y0052424D02*
X0041792Y0052424D01*
X0041792Y0051426D02*
X0041192Y0051426D01*
X0041192Y0050427D02*
X0041792Y0050427D01*
X0041792Y0049429D02*
X0041192Y0049429D01*
X0041192Y0048430D02*
X0041792Y0048430D01*
X0049681Y0054421D02*
X0004400Y0054421D01*
X0004400Y0055420D02*
X0254506Y0055420D01*
X0254506Y0056418D02*
X0004400Y0056418D01*
X0004400Y0057417D02*
X0254506Y0057417D01*
X0254506Y0058415D02*
X0004400Y0058415D01*
X0004400Y0059414D02*
X0254506Y0059414D01*
X0254506Y0060412D02*
X0004400Y0060412D01*
X0004400Y0061411D02*
X0254506Y0061411D01*
X0254506Y0062409D02*
X0004400Y0062409D01*
X0004400Y0063408D02*
X0254506Y0063408D01*
X0254506Y0064406D02*
X0004400Y0064406D01*
X0004400Y0065405D02*
X0254506Y0065405D01*
X0254506Y0066403D02*
X0004400Y0066403D01*
X0004400Y0067402D02*
X0254506Y0067402D01*
X0254506Y0068400D02*
X0004400Y0068400D01*
X0004400Y0069399D02*
X0028333Y0069399D01*
X0027335Y0070397D02*
X0004400Y0070397D01*
X0004400Y0071396D02*
X0026625Y0071396D01*
X0026212Y0072394D02*
X0004400Y0072394D01*
X0004400Y0073393D02*
X0025992Y0073393D01*
X0025992Y0074391D02*
X0004406Y0074391D01*
X0018652Y0075390D02*
X0025992Y0075390D01*
X0025992Y0076388D02*
X0021063Y0076388D01*
X0021121Y0076413D02*
X0021121Y0076413D01*
X0022095Y0077387D02*
X0025992Y0077387D01*
X0025992Y0078385D02*
X0023065Y0078385D01*
X0023044Y0078336D02*
X0023044Y0078336D01*
X0023478Y0079384D02*
X0025992Y0079384D01*
X0026021Y0080382D02*
X0023892Y0080382D01*
X0024085Y0081381D02*
X0026435Y0081381D01*
X0026875Y0082379D02*
X0024085Y0082379D01*
X0024085Y0083378D02*
X0027800Y0083378D01*
X0027800Y0084376D02*
X0024085Y0084376D01*
X0024085Y0085375D02*
X0027800Y0085375D01*
X0027800Y0086373D02*
X0024085Y0086373D01*
X0024085Y0087372D02*
X0027800Y0087372D01*
X0027800Y0088370D02*
X0024085Y0088370D01*
X0024085Y0089369D02*
X0026853Y0089369D01*
X0026000Y0090368D02*
X0024085Y0090368D01*
X0024085Y0091366D02*
X0026000Y0091366D01*
X0026000Y0092365D02*
X0024085Y0092365D01*
X0024085Y0093363D02*
X0026000Y0093363D01*
X0026000Y0094362D02*
X0024085Y0094362D01*
X0024085Y0095360D02*
X0026582Y0095360D01*
X0027580Y0096359D02*
X0024085Y0096359D01*
X0024085Y0097357D02*
X0027800Y0097357D01*
X0027800Y0098356D02*
X0024085Y0098356D01*
X0024085Y0099354D02*
X0026868Y0099354D01*
X0026000Y0100353D02*
X0024085Y0100353D01*
X0024085Y0101351D02*
X0026000Y0101351D01*
X0026000Y0102350D02*
X0024085Y0102350D01*
X0024085Y0103348D02*
X0026000Y0103348D01*
X0026000Y0104347D02*
X0024085Y0104347D01*
X0024085Y0105345D02*
X0026567Y0105345D01*
X0027566Y0106344D02*
X0024085Y0106344D01*
X0024085Y0107342D02*
X0027800Y0107342D01*
X0027800Y0108341D02*
X0024085Y0108341D01*
X0024085Y0109339D02*
X0026883Y0109339D01*
X0026000Y0110338D02*
X0024085Y0110338D01*
X0024085Y0111336D02*
X0026000Y0111336D01*
X0026000Y0112335D02*
X0024085Y0112335D01*
X0024085Y0113333D02*
X0026000Y0113333D01*
X0026000Y0114332D02*
X0024085Y0114332D01*
X0024085Y0115330D02*
X0026552Y0115330D01*
X0027551Y0116329D02*
X0024085Y0116329D01*
X0024085Y0117327D02*
X0027800Y0117327D01*
X0027800Y0118326D02*
X0024085Y0118326D01*
X0024085Y0119324D02*
X0027800Y0119324D01*
X0027800Y0120323D02*
X0024085Y0120323D01*
X0024085Y0121321D02*
X0027800Y0121321D01*
X0027800Y0122320D02*
X0024085Y0122320D01*
X0024085Y0123318D02*
X0027800Y0123318D01*
X0027800Y0124317D02*
X0024085Y0124317D01*
X0024085Y0125315D02*
X0027800Y0125315D01*
X0027800Y0126314D02*
X0024085Y0126314D01*
X0024085Y0127312D02*
X0027800Y0127312D01*
X0027800Y0128311D02*
X0024085Y0128311D01*
X0024085Y0129309D02*
X0026912Y0129309D01*
X0026000Y0130308D02*
X0024085Y0130308D01*
X0024085Y0131306D02*
X0026000Y0131306D01*
X0026000Y0132305D02*
X0024085Y0132305D01*
X0024085Y0133303D02*
X0026000Y0133303D01*
X0026000Y0134302D02*
X0024085Y0134302D01*
X0024085Y0135301D02*
X0026522Y0135301D01*
X0027521Y0136299D02*
X0024085Y0136299D01*
X0024085Y0137298D02*
X0027800Y0137298D01*
X0027800Y0138296D02*
X0024085Y0138296D01*
X0024085Y0139295D02*
X0026927Y0139295D01*
X0026000Y0140293D02*
X0024085Y0140293D01*
X0024085Y0141292D02*
X0026000Y0141292D01*
X0026000Y0142290D02*
X0024085Y0142290D01*
X0023810Y0143289D02*
X0026000Y0143289D01*
X0026000Y0144287D02*
X0023396Y0144287D01*
X0023044Y0145137D02*
X0023044Y0145137D01*
X0022895Y0145286D02*
X0026507Y0145286D01*
X0027506Y0146284D02*
X0021897Y0146284D01*
X0020583Y0147283D02*
X0027800Y0147283D01*
X0027800Y0148281D02*
X0004855Y0148281D01*
X0004400Y0149280D02*
X0026942Y0149280D01*
X0026000Y0150278D02*
X0004400Y0150278D01*
X0004400Y0151277D02*
X0026000Y0151277D01*
X0026000Y0152275D02*
X0004400Y0152275D01*
X0004400Y0153274D02*
X0026000Y0153274D01*
X0026000Y0154272D02*
X0004400Y0154272D01*
X0004400Y0155271D02*
X0026493Y0155271D01*
X0027491Y0156269D02*
X0004400Y0156269D01*
X0004400Y0157268D02*
X0027800Y0157268D01*
X0027800Y0158266D02*
X0004400Y0158266D01*
X0004400Y0159265D02*
X0026957Y0159265D01*
X0026000Y0160263D02*
X0004400Y0160263D01*
X0004400Y0161262D02*
X0026000Y0161262D01*
X0026000Y0162260D02*
X0004400Y0162260D01*
X0004400Y0163259D02*
X0026000Y0163259D01*
X0026000Y0164257D02*
X0004400Y0164257D01*
X0004400Y0165256D02*
X0026478Y0165256D01*
X0027476Y0166254D02*
X0004400Y0166254D01*
X0004400Y0167253D02*
X0027800Y0167253D01*
X0027800Y0168251D02*
X0004400Y0168251D01*
X0004400Y0169250D02*
X0026972Y0169250D01*
X0026000Y0170248D02*
X0004400Y0170248D01*
X0004400Y0171247D02*
X0026000Y0171247D01*
X0026000Y0172245D02*
X0004400Y0172245D01*
X0004400Y0173244D02*
X0026000Y0173244D01*
X0026000Y0174242D02*
X0004400Y0174242D01*
X0004400Y0175241D02*
X0026463Y0175241D01*
X0027461Y0176239D02*
X0004400Y0176239D01*
X0004400Y0177238D02*
X0027800Y0177238D01*
X0027800Y0178237D02*
X0004400Y0178237D01*
X0004400Y0179235D02*
X0026987Y0179235D01*
X0026000Y0180234D02*
X0004400Y0180234D01*
X0004400Y0181232D02*
X0026000Y0181232D01*
X0026000Y0182231D02*
X0004400Y0182231D01*
X0004400Y0183229D02*
X0026000Y0183229D01*
X0025800Y0184228D02*
X0004400Y0184228D01*
X0004400Y0185226D02*
X0025800Y0185226D01*
X0025800Y0186225D02*
X0004400Y0186225D01*
X0004400Y0187223D02*
X0025800Y0187223D01*
X0025800Y0188222D02*
X0004400Y0188222D01*
X0004400Y0189220D02*
X0025800Y0189220D01*
X0025800Y0190219D02*
X0004400Y0190219D01*
X0004400Y0191217D02*
X0025800Y0191217D01*
X0025800Y0192216D02*
X0004400Y0192216D01*
X0004400Y0193214D02*
X0014484Y0193214D01*
X0016075Y0193214D02*
X0025800Y0193214D01*
X0025800Y0194213D02*
X0020703Y0194213D01*
X0022663Y0195211D02*
X0025800Y0195211D01*
X0025800Y0196210D02*
X0024395Y0196210D01*
X0025393Y0197208D02*
X0025800Y0197208D01*
X0033200Y0197208D02*
X0190753Y0197208D01*
X0190753Y0196210D02*
X0034023Y0196210D01*
X0033200Y0197033D02*
X0035033Y0195200D01*
X0158236Y0195200D01*
X0159596Y0194637D01*
X0186233Y0168000D01*
X0190194Y0168000D01*
X0190753Y0167769D01*
X0190753Y0198549D01*
X0189453Y0199849D01*
X0186897Y0197293D01*
X0182009Y0197293D01*
X0179453Y0199849D01*
X0176897Y0197293D01*
X0172009Y0197293D01*
X0169453Y0199849D01*
X0166897Y0197293D01*
X0162009Y0197293D01*
X0159453Y0199849D01*
X0156897Y0197293D01*
X0152009Y0197293D01*
X0149453Y0199849D01*
X0146897Y0197293D01*
X0142009Y0197293D01*
X0139453Y0199849D01*
X0136897Y0197293D01*
X0132009Y0197293D01*
X0129453Y0199849D01*
X0126897Y0197293D01*
X0122009Y0197293D01*
X0119453Y0199849D01*
X0116897Y0197293D01*
X0112009Y0197293D01*
X0109453Y0199849D01*
X0106897Y0197293D01*
X0102009Y0197293D01*
X0099453Y0199849D01*
X0096897Y0197293D01*
X0092009Y0197293D01*
X0089453Y0199849D01*
X0086897Y0197293D01*
X0082009Y0197293D01*
X0078553Y0200749D01*
X0078553Y0200929D01*
X0076317Y0198693D01*
X0074953Y0198693D01*
X0074953Y0202693D01*
X0073953Y0202693D01*
X0073953Y0198693D01*
X0072589Y0198693D01*
X0070353Y0200929D01*
X0070353Y0200749D01*
X0066897Y0197293D01*
X0062009Y0197293D01*
X0059453Y0199849D01*
X0056897Y0197293D01*
X0052009Y0197293D01*
X0049453Y0199849D01*
X0046897Y0197293D01*
X0042009Y0197293D01*
X0040157Y0199144D01*
X0039911Y0198550D01*
X0039095Y0197734D01*
X0038030Y0197293D01*
X0033200Y0197293D01*
X0033200Y0197033D01*
X0035021Y0195211D02*
X0190753Y0195211D01*
X0190753Y0194213D02*
X0160020Y0194213D01*
X0161018Y0193214D02*
X0190753Y0193214D01*
X0190753Y0192216D02*
X0162017Y0192216D01*
X0163015Y0191217D02*
X0190753Y0191217D01*
X0190753Y0190219D02*
X0176580Y0190219D01*
X0176198Y0190600D02*
X0174800Y0190600D01*
X0174800Y0186800D01*
X0178600Y0186800D01*
X0178600Y0188198D01*
X0176198Y0190600D01*
X0174800Y0190219D02*
X0174200Y0190219D01*
X0174200Y0190600D02*
X0172802Y0190600D01*
X0170400Y0188198D01*
X0170400Y0186800D01*
X0174200Y0186800D01*
X0174200Y0190600D01*
X0174200Y0189220D02*
X0174800Y0189220D01*
X0174800Y0188222D02*
X0174200Y0188222D01*
X0174200Y0187223D02*
X0174800Y0187223D01*
X0174800Y0186800D02*
X0174200Y0186800D01*
X0174200Y0186200D01*
X0174800Y0186200D01*
X0174800Y0186800D01*
X0174800Y0186225D02*
X0190753Y0186225D01*
X0190753Y0187223D02*
X0178600Y0187223D01*
X0178577Y0188222D02*
X0190753Y0188222D01*
X0190753Y0189220D02*
X0177578Y0189220D01*
X0178600Y0186200D02*
X0174800Y0186200D01*
X0174800Y0182400D01*
X0176198Y0182400D01*
X0178600Y0184802D01*
X0178600Y0186200D01*
X0178600Y0185226D02*
X0190753Y0185226D01*
X0190753Y0184228D02*
X0178026Y0184228D01*
X0177027Y0183229D02*
X0190753Y0183229D01*
X0190753Y0182231D02*
X0172002Y0182231D01*
X0172802Y0182400D02*
X0174200Y0182400D01*
X0174200Y0186200D01*
X0170400Y0186200D01*
X0170400Y0184802D01*
X0172802Y0182400D01*
X0171973Y0183229D02*
X0171004Y0183229D01*
X0170974Y0184228D02*
X0170005Y0184228D01*
X0170400Y0185226D02*
X0169006Y0185226D01*
X0168008Y0186225D02*
X0174200Y0186225D01*
X0174200Y0185226D02*
X0174800Y0185226D01*
X0174800Y0184228D02*
X0174200Y0184228D01*
X0174200Y0183229D02*
X0174800Y0183229D01*
X0173001Y0181232D02*
X0190753Y0181232D01*
X0190753Y0180234D02*
X0173999Y0180234D01*
X0174998Y0179235D02*
X0190753Y0179235D01*
X0190753Y0178237D02*
X0175996Y0178237D01*
X0176995Y0177238D02*
X0190753Y0177238D01*
X0190753Y0176239D02*
X0177993Y0176239D01*
X0178992Y0175241D02*
X0190753Y0175241D01*
X0190753Y0174242D02*
X0179990Y0174242D01*
X0180989Y0173244D02*
X0190753Y0173244D01*
X0190753Y0172245D02*
X0181987Y0172245D01*
X0182986Y0171247D02*
X0190753Y0171247D01*
X0190753Y0170248D02*
X0183984Y0170248D01*
X0184983Y0169250D02*
X0190753Y0169250D01*
X0190753Y0168251D02*
X0185981Y0168251D01*
X0178675Y0164257D02*
X0162806Y0164257D01*
X0162900Y0164074D02*
X0162607Y0164649D01*
X0162227Y0165171D01*
X0161771Y0165627D01*
X0161249Y0166007D01*
X0160674Y0166300D01*
X0160060Y0166499D01*
X0159423Y0166600D01*
X0156800Y0166600D01*
X0156800Y0162800D01*
X0156200Y0162800D01*
X0156200Y0166600D01*
X0153577Y0166600D01*
X0152940Y0166499D01*
X0152326Y0166300D01*
X0151751Y0166007D01*
X0151229Y0165627D01*
X0150773Y0165171D01*
X0150393Y0164649D01*
X0150100Y0164074D01*
X0149901Y0163460D01*
X0149800Y0162823D01*
X0149800Y0162800D01*
X0156200Y0162800D01*
X0156200Y0162200D01*
X0156800Y0162200D01*
X0156800Y0162800D01*
X0163200Y0162800D01*
X0163200Y0162823D01*
X0163099Y0163460D01*
X0162900Y0164074D01*
X0163131Y0163259D02*
X0178400Y0163259D01*
X0178400Y0162260D02*
X0156800Y0162260D01*
X0156800Y0162200D02*
X0163200Y0162200D01*
X0163200Y0162177D01*
X0163099Y0161540D01*
X0162900Y0160926D01*
X0162607Y0160351D01*
X0162227Y0159829D01*
X0161771Y0159373D01*
X0161249Y0158993D01*
X0160674Y0158700D01*
X0160060Y0158501D01*
X0159423Y0158400D01*
X0156800Y0158400D01*
X0156800Y0162200D01*
X0156200Y0162200D02*
X0156200Y0158400D01*
X0153577Y0158400D01*
X0152940Y0158501D01*
X0152326Y0158700D01*
X0151751Y0158993D01*
X0151229Y0159373D01*
X0150773Y0159829D01*
X0150393Y0160351D01*
X0150100Y0160926D01*
X0149901Y0161540D01*
X0149800Y0162177D01*
X0149800Y0162200D01*
X0156200Y0162200D01*
X0156200Y0162260D02*
X0145972Y0162260D01*
X0146971Y0161262D02*
X0149991Y0161262D01*
X0150457Y0160263D02*
X0147969Y0160263D01*
X0148774Y0159265D02*
X0151378Y0159265D01*
X0151038Y0157268D02*
X0149200Y0157268D01*
X0149187Y0158266D02*
X0180356Y0158266D01*
X0181038Y0157268D02*
X0161962Y0157268D01*
X0163109Y0156269D02*
X0179891Y0156269D01*
X0179095Y0155271D02*
X0163905Y0155271D01*
X0164319Y0154272D02*
X0178681Y0154272D01*
X0178400Y0153274D02*
X0164600Y0153274D01*
X0164600Y0152275D02*
X0178400Y0152275D01*
X0178454Y0151277D02*
X0164546Y0151277D01*
X0164133Y0150278D02*
X0178867Y0150278D01*
X0179342Y0149280D02*
X0163658Y0149280D01*
X0162659Y0148281D02*
X0180341Y0148281D01*
X0182124Y0147283D02*
X0161926Y0147283D01*
X0163094Y0146284D02*
X0182296Y0146284D01*
X0180887Y0145286D02*
X0163899Y0145286D01*
X0164313Y0144287D02*
X0180209Y0144287D01*
X0179874Y0143289D02*
X0164600Y0143289D01*
X0164600Y0142290D02*
X0186200Y0142290D01*
X0186200Y0142200D02*
X0179800Y0142200D01*
X0179800Y0142177D01*
X0179901Y0141540D01*
X0180100Y0140926D01*
X0180393Y0140351D01*
X0180773Y0139829D01*
X0181229Y0139373D01*
X0181751Y0138993D01*
X0182326Y0138700D01*
X0182940Y0138501D01*
X0183577Y0138400D01*
X0186200Y0138400D01*
X0186200Y0142200D01*
X0186200Y0141292D02*
X0186800Y0141292D01*
X0186800Y0140293D02*
X0186200Y0140293D01*
X0186200Y0139295D02*
X0186800Y0139295D01*
X0187063Y0138296D02*
X0162674Y0138296D01*
X0161890Y0137298D02*
X0181110Y0137298D01*
X0179921Y0136299D02*
X0163079Y0136299D01*
X0163893Y0135301D02*
X0179107Y0135301D01*
X0178693Y0134302D02*
X0164307Y0134302D01*
X0164600Y0133303D02*
X0178400Y0133303D01*
X0178400Y0132305D02*
X0164600Y0132305D01*
X0164559Y0131306D02*
X0178441Y0131306D01*
X0178855Y0130308D02*
X0164145Y0130308D01*
X0163688Y0129309D02*
X0179312Y0129309D01*
X0180311Y0128311D02*
X0162689Y0128311D01*
X0161854Y0127312D02*
X0181146Y0127312D01*
X0179936Y0126314D02*
X0163064Y0126314D01*
X0163887Y0125315D02*
X0179113Y0125315D01*
X0178699Y0124317D02*
X0164301Y0124317D01*
X0164600Y0123318D02*
X0178400Y0123318D01*
X0178400Y0122320D02*
X0164600Y0122320D01*
X0164565Y0121321D02*
X0178435Y0121321D01*
X0178849Y0120323D02*
X0164151Y0120323D01*
X0163702Y0119324D02*
X0179297Y0119324D01*
X0180296Y0118326D02*
X0162704Y0118326D01*
X0161818Y0117327D02*
X0181182Y0117327D01*
X0179951Y0116329D02*
X0163049Y0116329D01*
X0163881Y0115330D02*
X0179119Y0115330D01*
X0178706Y0114332D02*
X0164294Y0114332D01*
X0164600Y0113333D02*
X0178400Y0113333D01*
X0178400Y0112335D02*
X0164600Y0112335D01*
X0164571Y0111336D02*
X0178429Y0111336D01*
X0178842Y0110338D02*
X0164158Y0110338D01*
X0163717Y0109339D02*
X0179283Y0109339D01*
X0180281Y0108341D02*
X0162719Y0108341D01*
X0161782Y0107342D02*
X0181218Y0107342D01*
X0179966Y0106344D02*
X0163034Y0106344D01*
X0163875Y0105345D02*
X0179125Y0105345D01*
X0178712Y0104347D02*
X0164288Y0104347D01*
X0164600Y0103348D02*
X0178400Y0103348D01*
X0178400Y0102350D02*
X0164600Y0102350D01*
X0164577Y0101351D02*
X0178423Y0101351D01*
X0178836Y0100353D02*
X0164164Y0100353D01*
X0163732Y0099354D02*
X0179268Y0099354D01*
X0180266Y0098356D02*
X0162734Y0098356D01*
X0161056Y0097357D02*
X0181254Y0097357D01*
X0179980Y0096359D02*
X0160492Y0096359D01*
X0160674Y0096300D02*
X0160060Y0096499D01*
X0159423Y0096600D01*
X0156800Y0096600D01*
X0156800Y0092800D01*
X0156200Y0092800D01*
X0156200Y0096600D01*
X0153577Y0096600D01*
X0152940Y0096499D01*
X0152326Y0096300D01*
X0151751Y0096007D01*
X0151229Y0095627D01*
X0150773Y0095171D01*
X0150393Y0094649D01*
X0150100Y0094074D01*
X0149901Y0093460D01*
X0149800Y0092823D01*
X0149800Y0092800D01*
X0156200Y0092800D01*
X0156200Y0092200D01*
X0156800Y0092200D01*
X0156800Y0092800D01*
X0163200Y0092800D01*
X0163200Y0092823D01*
X0163099Y0093460D01*
X0162900Y0094074D01*
X0162607Y0094649D01*
X0162227Y0095171D01*
X0161771Y0095627D01*
X0161249Y0096007D01*
X0160674Y0096300D01*
X0162038Y0095360D02*
X0179132Y0095360D01*
X0178718Y0094362D02*
X0162753Y0094362D01*
X0163114Y0093363D02*
X0178400Y0093363D01*
X0178400Y0092365D02*
X0156800Y0092365D01*
X0156800Y0092200D02*
X0163200Y0092200D01*
X0163200Y0092177D01*
X0163099Y0091540D01*
X0162900Y0090926D01*
X0162607Y0090351D01*
X0162227Y0089829D01*
X0161771Y0089373D01*
X0161249Y0088993D01*
X0160674Y0088700D01*
X0160060Y0088501D01*
X0159423Y0088400D01*
X0156800Y0088400D01*
X0156800Y0092200D01*
X0156200Y0092200D02*
X0156200Y0088400D01*
X0153577Y0088400D01*
X0152940Y0088501D01*
X0152326Y0088700D01*
X0151751Y0088993D01*
X0151229Y0089373D01*
X0150773Y0089829D01*
X0150393Y0090351D01*
X0150100Y0090926D01*
X0149901Y0091540D01*
X0149800Y0092177D01*
X0149800Y0092200D01*
X0156200Y0092200D01*
X0156200Y0092365D02*
X0143600Y0092365D01*
X0143600Y0093363D02*
X0149886Y0093363D01*
X0150247Y0094362D02*
X0143282Y0094362D01*
X0143593Y0095360D02*
X0150962Y0095360D01*
X0152508Y0096359D02*
X0144591Y0096359D01*
X0145590Y0097357D02*
X0151944Y0097357D01*
X0150266Y0098356D02*
X0146588Y0098356D01*
X0143583Y0091366D02*
X0149957Y0091366D01*
X0150385Y0090368D02*
X0143170Y0090368D01*
X0142747Y0089369D02*
X0151234Y0089369D01*
X0156200Y0089369D02*
X0156800Y0089369D01*
X0156800Y0090368D02*
X0156200Y0090368D01*
X0156200Y0091366D02*
X0156800Y0091366D01*
X0156800Y0093363D02*
X0156200Y0093363D01*
X0156200Y0094362D02*
X0156800Y0094362D01*
X0156800Y0095360D02*
X0156200Y0095360D01*
X0156200Y0096359D02*
X0156800Y0096359D01*
X0163043Y0091366D02*
X0178417Y0091366D01*
X0178830Y0090368D02*
X0162615Y0090368D01*
X0161766Y0089369D02*
X0179253Y0089369D01*
X0180251Y0088370D02*
X0141749Y0088370D01*
X0140092Y0087372D02*
X0181908Y0087372D01*
X0191092Y0087372D02*
X0254506Y0087372D01*
X0254506Y0088370D02*
X0192749Y0088370D01*
X0193747Y0089369D02*
X0254506Y0089369D01*
X0254506Y0090368D02*
X0194170Y0090368D01*
X0194583Y0091366D02*
X0254506Y0091366D01*
X0254506Y0092365D02*
X0194600Y0092365D01*
X0194600Y0093363D02*
X0254506Y0093363D01*
X0254506Y0094362D02*
X0194282Y0094362D01*
X0194593Y0095360D02*
X0254506Y0095360D01*
X0254506Y0096359D02*
X0195591Y0096359D01*
X0196590Y0097357D02*
X0254506Y0097357D01*
X0254506Y0098356D02*
X0197588Y0098356D01*
X0198587Y0099354D02*
X0254506Y0099354D01*
X0254506Y0100353D02*
X0199585Y0100353D01*
X0200584Y0101351D02*
X0254506Y0101351D01*
X0254506Y0102350D02*
X0201582Y0102350D01*
X0202581Y0103348D02*
X0254506Y0103348D01*
X0254506Y0104347D02*
X0203579Y0104347D01*
X0204578Y0105345D02*
X0254506Y0105345D01*
X0254506Y0106344D02*
X0205576Y0106344D01*
X0206575Y0107342D02*
X0254506Y0107342D01*
X0254506Y0108341D02*
X0207573Y0108341D01*
X0208572Y0109339D02*
X0254506Y0109339D01*
X0254506Y0110338D02*
X0209570Y0110338D01*
X0210569Y0111336D02*
X0254506Y0111336D01*
X0254506Y0112335D02*
X0211567Y0112335D01*
X0212566Y0113333D02*
X0254506Y0113333D01*
X0254506Y0114332D02*
X0213564Y0114332D01*
X0214563Y0115330D02*
X0254506Y0115330D01*
X0254506Y0116329D02*
X0215561Y0116329D01*
X0216560Y0117327D02*
X0254506Y0117327D01*
X0254506Y0118326D02*
X0217558Y0118326D01*
X0217990Y0119324D02*
X0254506Y0119324D01*
X0254506Y0120323D02*
X0218153Y0120323D01*
X0218153Y0121321D02*
X0254506Y0121321D01*
X0254506Y0122320D02*
X0218153Y0122320D01*
X0218153Y0123318D02*
X0254506Y0123318D01*
X0254506Y0124317D02*
X0218153Y0124317D01*
X0218153Y0125315D02*
X0254506Y0125315D01*
X0254506Y0126314D02*
X0218153Y0126314D01*
X0218153Y0127312D02*
X0254506Y0127312D01*
X0254506Y0128311D02*
X0218153Y0128311D01*
X0218153Y0129309D02*
X0254506Y0129309D01*
X0254506Y0130308D02*
X0218153Y0130308D01*
X0218153Y0131306D02*
X0254506Y0131306D01*
X0254506Y0132305D02*
X0218153Y0132305D01*
X0218153Y0133303D02*
X0254506Y0133303D01*
X0254506Y0134302D02*
X0218153Y0134302D01*
X0218153Y0135301D02*
X0254506Y0135301D01*
X0254506Y0136299D02*
X0218153Y0136299D01*
X0218153Y0137298D02*
X0254506Y0137298D01*
X0254506Y0138296D02*
X0218153Y0138296D01*
X0218153Y0139295D02*
X0254506Y0139295D01*
X0254506Y0140293D02*
X0218153Y0140293D01*
X0218153Y0141292D02*
X0254506Y0141292D01*
X0254506Y0142290D02*
X0218153Y0142290D01*
X0218153Y0143289D02*
X0254506Y0143289D01*
X0254506Y0144287D02*
X0218153Y0144287D01*
X0218153Y0145286D02*
X0254506Y0145286D01*
X0254506Y0146284D02*
X0218153Y0146284D01*
X0218153Y0147283D02*
X0254506Y0147283D01*
X0254506Y0148281D02*
X0218153Y0148281D01*
X0218153Y0149280D02*
X0254506Y0149280D01*
X0254506Y0150278D02*
X0218153Y0150278D01*
X0218153Y0151277D02*
X0254506Y0151277D01*
X0254506Y0152275D02*
X0218153Y0152275D01*
X0218153Y0153274D02*
X0254506Y0153274D01*
X0254506Y0154272D02*
X0218153Y0154272D01*
X0218153Y0155271D02*
X0254506Y0155271D01*
X0254506Y0156269D02*
X0218153Y0156269D01*
X0218153Y0157268D02*
X0254506Y0157268D01*
X0254506Y0158266D02*
X0218153Y0158266D01*
X0218153Y0159265D02*
X0254506Y0159265D01*
X0254506Y0160263D02*
X0218153Y0160263D01*
X0218153Y0161262D02*
X0254506Y0161262D01*
X0254506Y0162260D02*
X0218153Y0162260D01*
X0218153Y0163259D02*
X0254506Y0163259D01*
X0254506Y0164257D02*
X0218153Y0164257D01*
X0218153Y0165256D02*
X0254506Y0165256D01*
X0254506Y0166254D02*
X0218153Y0166254D01*
X0218153Y0167253D02*
X0254506Y0167253D01*
X0254506Y0168251D02*
X0218153Y0168251D01*
X0218153Y0169250D02*
X0254506Y0169250D01*
X0254506Y0170248D02*
X0218153Y0170248D01*
X0218153Y0171247D02*
X0254506Y0171247D01*
X0254506Y0172245D02*
X0218153Y0172245D01*
X0218153Y0173244D02*
X0254506Y0173244D01*
X0254506Y0174242D02*
X0218153Y0174242D01*
X0218153Y0175241D02*
X0254506Y0175241D01*
X0254506Y0176239D02*
X0218153Y0176239D01*
X0218153Y0177238D02*
X0254506Y0177238D01*
X0254506Y0178237D02*
X0218153Y0178237D01*
X0218153Y0179235D02*
X0254506Y0179235D01*
X0254506Y0180234D02*
X0218153Y0180234D01*
X0218153Y0181232D02*
X0254506Y0181232D01*
X0254506Y0182231D02*
X0218153Y0182231D01*
X0219007Y0183229D02*
X0254506Y0183229D01*
X0254506Y0184228D02*
X0220000Y0184228D01*
X0220000Y0185226D02*
X0254506Y0185226D01*
X0254506Y0186225D02*
X0220000Y0186225D01*
X0220000Y0187223D02*
X0254506Y0187223D01*
X0254506Y0188222D02*
X0220000Y0188222D01*
X0219558Y0189220D02*
X0254506Y0189220D01*
X0254506Y0190219D02*
X0218560Y0190219D01*
X0218153Y0191217D02*
X0254506Y0191217D01*
X0254506Y0192216D02*
X0218153Y0192216D01*
X0218153Y0193214D02*
X0242831Y0193214D01*
X0244421Y0193214D02*
X0254506Y0193214D01*
X0254506Y0194213D02*
X0249050Y0194213D01*
X0251009Y0195211D02*
X0254506Y0195211D01*
X0254506Y0196210D02*
X0252741Y0196210D01*
X0253740Y0197208D02*
X0254506Y0197208D01*
X0238202Y0194213D02*
X0218153Y0194213D01*
X0218153Y0195211D02*
X0236243Y0195211D01*
X0234511Y0196210D02*
X0218153Y0196210D01*
X0218153Y0197208D02*
X0233512Y0197208D01*
X0232514Y0198207D02*
X0227810Y0198207D01*
X0228809Y0199205D02*
X0231515Y0199205D01*
X0230953Y0200204D02*
X0229807Y0200204D01*
X0230353Y0201202D02*
X0230444Y0201202D01*
X0221095Y0198207D02*
X0218153Y0198207D01*
X0218809Y0199205D02*
X0220097Y0199205D01*
X0190753Y0198207D02*
X0187810Y0198207D01*
X0188809Y0199205D02*
X0190097Y0199205D01*
X0181095Y0198207D02*
X0177810Y0198207D01*
X0178809Y0199205D02*
X0180097Y0199205D01*
X0171095Y0198207D02*
X0167810Y0198207D01*
X0168809Y0199205D02*
X0170097Y0199205D01*
X0161095Y0198207D02*
X0157810Y0198207D01*
X0158809Y0199205D02*
X0160097Y0199205D01*
X0151095Y0198207D02*
X0147810Y0198207D01*
X0148809Y0199205D02*
X0150097Y0199205D01*
X0141095Y0198207D02*
X0137810Y0198207D01*
X0138809Y0199205D02*
X0140097Y0199205D01*
X0131095Y0198207D02*
X0127810Y0198207D01*
X0128809Y0199205D02*
X0130097Y0199205D01*
X0121095Y0198207D02*
X0117810Y0198207D01*
X0118809Y0199205D02*
X0120097Y0199205D01*
X0111095Y0198207D02*
X0107810Y0198207D01*
X0108809Y0199205D02*
X0110097Y0199205D01*
X0101095Y0198207D02*
X0097810Y0198207D01*
X0098809Y0199205D02*
X0100097Y0199205D01*
X0091095Y0198207D02*
X0087810Y0198207D01*
X0088809Y0199205D02*
X0090097Y0199205D01*
X0081095Y0198207D02*
X0067810Y0198207D01*
X0068809Y0199205D02*
X0072076Y0199205D01*
X0071078Y0200204D02*
X0069807Y0200204D01*
X0073953Y0200204D02*
X0074953Y0200204D01*
X0074953Y0201202D02*
X0073953Y0201202D01*
X0073953Y0202201D02*
X0074953Y0202201D01*
X0074953Y0199205D02*
X0073953Y0199205D01*
X0076829Y0199205D02*
X0080097Y0199205D01*
X0079098Y0200204D02*
X0077828Y0200204D01*
X0061095Y0198207D02*
X0057810Y0198207D01*
X0058809Y0199205D02*
X0060097Y0199205D01*
X0051095Y0198207D02*
X0047810Y0198207D01*
X0048809Y0199205D02*
X0050097Y0199205D01*
X0041095Y0198207D02*
X0039568Y0198207D01*
X0009856Y0194213D02*
X0004400Y0194213D01*
X0004400Y0195211D02*
X0007896Y0195211D01*
X0006164Y0196210D02*
X0004400Y0196210D01*
X0004400Y0197208D02*
X0005166Y0197208D01*
X0093031Y0127312D02*
X0100146Y0127312D01*
X0099311Y0128311D02*
X0093655Y0128311D01*
X0094030Y0126314D02*
X0098936Y0126314D01*
X0098113Y0125315D02*
X0094720Y0125315D01*
X0095134Y0124317D02*
X0097699Y0124317D01*
X0097400Y0123318D02*
X0095400Y0123318D01*
X0095400Y0122320D02*
X0097400Y0122320D01*
X0097435Y0121321D02*
X0095398Y0121321D01*
X0094984Y0120323D02*
X0097849Y0120323D01*
X0098297Y0119324D02*
X0094571Y0119324D01*
X0093670Y0118326D02*
X0099296Y0118326D01*
X0100182Y0117327D02*
X0093017Y0117327D01*
X0094015Y0116329D02*
X0098951Y0116329D01*
X0098119Y0115330D02*
X0094714Y0115330D01*
X0095127Y0114332D02*
X0097706Y0114332D01*
X0097400Y0113333D02*
X0095400Y0113333D01*
X0095400Y0112335D02*
X0097400Y0112335D01*
X0097429Y0111336D02*
X0095400Y0111336D01*
X0094990Y0110338D02*
X0097842Y0110338D01*
X0098283Y0109339D02*
X0094893Y0109339D01*
X0095892Y0108341D02*
X0099281Y0108341D01*
X0100980Y0107342D02*
X0096890Y0107342D01*
X0097889Y0106344D02*
X0101462Y0106344D01*
X0099947Y0105345D02*
X0098887Y0105345D01*
X0105200Y0105345D02*
X0105800Y0105345D01*
X0105800Y0104347D02*
X0105200Y0104347D01*
X0105200Y0103348D02*
X0105800Y0103348D01*
X0105800Y0102800D02*
X0105800Y0106600D01*
X0108423Y0106600D01*
X0109060Y0106499D01*
X0109674Y0106300D01*
X0110249Y0106007D01*
X0110771Y0105627D01*
X0111227Y0105171D01*
X0111607Y0104649D01*
X0111900Y0104074D01*
X0112099Y0103460D01*
X0112200Y0102823D01*
X0112200Y0102800D01*
X0105800Y0102800D01*
X0105800Y0102350D02*
X0127400Y0102350D01*
X0127400Y0103348D02*
X0112117Y0103348D01*
X0111761Y0104347D02*
X0127712Y0104347D01*
X0128125Y0105345D02*
X0111053Y0105345D01*
X0109538Y0106344D02*
X0128966Y0106344D01*
X0130218Y0107342D02*
X0110020Y0107342D01*
X0111719Y0108341D02*
X0129281Y0108341D01*
X0128283Y0109339D02*
X0112717Y0109339D01*
X0113158Y0110338D02*
X0127842Y0110338D01*
X0127429Y0111336D02*
X0113571Y0111336D01*
X0113600Y0112335D02*
X0127400Y0112335D01*
X0127400Y0113333D02*
X0113600Y0113333D01*
X0113294Y0114332D02*
X0127706Y0114332D01*
X0128119Y0115330D02*
X0112881Y0115330D01*
X0112049Y0116329D02*
X0128951Y0116329D01*
X0130182Y0117327D02*
X0110818Y0117327D01*
X0111704Y0118326D02*
X0129296Y0118326D01*
X0128297Y0119324D02*
X0112702Y0119324D01*
X0113151Y0120323D02*
X0127849Y0120323D01*
X0127435Y0121321D02*
X0113565Y0121321D01*
X0113600Y0122320D02*
X0127400Y0122320D01*
X0127400Y0123318D02*
X0113600Y0123318D01*
X0113301Y0124317D02*
X0127699Y0124317D01*
X0128113Y0125315D02*
X0112887Y0125315D01*
X0112064Y0126314D02*
X0128936Y0126314D01*
X0130146Y0127312D02*
X0110854Y0127312D01*
X0111689Y0128311D02*
X0129311Y0128311D01*
X0128312Y0129309D02*
X0112688Y0129309D01*
X0113145Y0130308D02*
X0127855Y0130308D01*
X0127441Y0131306D02*
X0113559Y0131306D01*
X0113600Y0132305D02*
X0127400Y0132305D01*
X0127400Y0133303D02*
X0113600Y0133303D01*
X0113307Y0134302D02*
X0127693Y0134302D01*
X0128107Y0135301D02*
X0112893Y0135301D01*
X0112079Y0136299D02*
X0128921Y0136299D01*
X0130110Y0137298D02*
X0110890Y0137298D01*
X0111674Y0138296D02*
X0129326Y0138296D01*
X0128327Y0139295D02*
X0112673Y0139295D01*
X0113139Y0140293D02*
X0127861Y0140293D01*
X0127447Y0141292D02*
X0113553Y0141292D01*
X0113600Y0142290D02*
X0127400Y0142290D01*
X0127400Y0143289D02*
X0113600Y0143289D01*
X0113313Y0144287D02*
X0127687Y0144287D01*
X0128101Y0145286D02*
X0112899Y0145286D01*
X0112094Y0146284D02*
X0128906Y0146284D01*
X0130074Y0147283D02*
X0110926Y0147283D01*
X0111659Y0148281D02*
X0129341Y0148281D01*
X0125606Y0149280D02*
X0112658Y0149280D01*
X0113133Y0150278D02*
X0124489Y0150278D01*
X0123491Y0151277D02*
X0113546Y0151277D01*
X0113600Y0152275D02*
X0122492Y0152275D01*
X0121494Y0153274D02*
X0113600Y0153274D01*
X0113319Y0154272D02*
X0120495Y0154272D01*
X0119497Y0155271D02*
X0112905Y0155271D01*
X0112109Y0156269D02*
X0118498Y0156269D01*
X0117500Y0157268D02*
X0110962Y0157268D01*
X0111644Y0158266D02*
X0116501Y0158266D01*
X0115503Y0159265D02*
X0112643Y0159265D01*
X0113127Y0160263D02*
X0114504Y0160263D01*
X0128990Y0174242D02*
X0169525Y0174242D01*
X0170523Y0173244D02*
X0129989Y0173244D01*
X0130987Y0172245D02*
X0171522Y0172245D01*
X0172520Y0171247D02*
X0131986Y0171247D01*
X0132984Y0170248D02*
X0173519Y0170248D01*
X0174517Y0169250D02*
X0133983Y0169250D01*
X0134981Y0168251D02*
X0175516Y0168251D01*
X0176515Y0167253D02*
X0140998Y0167253D01*
X0142124Y0166254D02*
X0152237Y0166254D01*
X0150858Y0165256D02*
X0142977Y0165256D01*
X0143975Y0164257D02*
X0150194Y0164257D01*
X0149869Y0163259D02*
X0144974Y0163259D01*
X0149200Y0156269D02*
X0149891Y0156269D01*
X0156200Y0159265D02*
X0156800Y0159265D01*
X0156800Y0160263D02*
X0156200Y0160263D01*
X0156200Y0161262D02*
X0156800Y0161262D01*
X0156800Y0163259D02*
X0156200Y0163259D01*
X0156200Y0164257D02*
X0156800Y0164257D01*
X0156800Y0165256D02*
X0156200Y0165256D01*
X0156200Y0166254D02*
X0156800Y0166254D01*
X0160763Y0166254D02*
X0177513Y0166254D01*
X0178512Y0165256D02*
X0162142Y0165256D01*
X0163009Y0161262D02*
X0178460Y0161262D01*
X0178873Y0160263D02*
X0162543Y0160263D01*
X0161622Y0159265D02*
X0179357Y0159265D01*
X0186200Y0146284D02*
X0186800Y0146284D01*
X0186800Y0145286D02*
X0186200Y0145286D01*
X0186200Y0144287D02*
X0186800Y0144287D01*
X0186800Y0143289D02*
X0186200Y0143289D01*
X0190704Y0146284D02*
X0190753Y0146284D01*
X0181337Y0139295D02*
X0163673Y0139295D01*
X0164139Y0140293D02*
X0180436Y0140293D01*
X0179982Y0141292D02*
X0164553Y0141292D01*
X0168526Y0175241D02*
X0127992Y0175241D01*
X0126993Y0176239D02*
X0167528Y0176239D01*
X0166529Y0177238D02*
X0125995Y0177238D01*
X0124996Y0178237D02*
X0165531Y0178237D01*
X0164532Y0179235D02*
X0123998Y0179235D01*
X0122999Y0180234D02*
X0163534Y0180234D01*
X0162535Y0181232D02*
X0122001Y0181232D01*
X0121002Y0182231D02*
X0161537Y0182231D01*
X0160538Y0183229D02*
X0120004Y0183229D01*
X0119005Y0184228D02*
X0159540Y0184228D01*
X0158541Y0185226D02*
X0118006Y0185226D01*
X0117008Y0186225D02*
X0157543Y0186225D01*
X0156544Y0187223D02*
X0116009Y0187223D01*
X0164014Y0190219D02*
X0172420Y0190219D01*
X0171422Y0189220D02*
X0165012Y0189220D01*
X0166011Y0188222D02*
X0170423Y0188222D01*
X0170400Y0187223D02*
X0167009Y0187223D01*
X0105800Y0106344D02*
X0105200Y0106344D01*
X0105800Y0102200D02*
X0112200Y0102200D01*
X0112200Y0102177D01*
X0112099Y0101540D01*
X0111900Y0100926D01*
X0111607Y0100351D01*
X0111227Y0099829D01*
X0110771Y0099373D01*
X0110249Y0098993D01*
X0109674Y0098700D01*
X0109060Y0098501D01*
X0108423Y0098400D01*
X0105800Y0098400D01*
X0105800Y0102200D01*
X0105800Y0101351D02*
X0105200Y0101351D01*
X0105200Y0100353D02*
X0105800Y0100353D01*
X0105800Y0099354D02*
X0105200Y0099354D01*
X0105800Y0096600D02*
X0105800Y0092800D01*
X0112200Y0092800D01*
X0112200Y0092823D01*
X0112099Y0093460D01*
X0111900Y0094074D01*
X0111607Y0094649D01*
X0111227Y0095171D01*
X0110771Y0095627D01*
X0110249Y0096007D01*
X0109674Y0096300D01*
X0109060Y0096499D01*
X0108423Y0096600D01*
X0105800Y0096600D01*
X0105800Y0096359D02*
X0105200Y0096359D01*
X0105200Y0095360D02*
X0105800Y0095360D01*
X0105800Y0094362D02*
X0105200Y0094362D01*
X0105200Y0093363D02*
X0105800Y0093363D01*
X0105800Y0092365D02*
X0127400Y0092365D01*
X0127400Y0093363D02*
X0112114Y0093363D01*
X0111753Y0094362D02*
X0127718Y0094362D01*
X0128132Y0095360D02*
X0111038Y0095360D01*
X0109492Y0096359D02*
X0128980Y0096359D01*
X0130254Y0097357D02*
X0101200Y0097357D01*
X0101200Y0096359D02*
X0101508Y0096359D01*
X0101200Y0098356D02*
X0129266Y0098356D01*
X0128268Y0099354D02*
X0110745Y0099354D01*
X0111607Y0100353D02*
X0127836Y0100353D01*
X0127423Y0101351D02*
X0112038Y0101351D01*
X0112200Y0092200D02*
X0105800Y0092200D01*
X0105800Y0088400D01*
X0108423Y0088400D01*
X0109060Y0088501D01*
X0109674Y0088700D01*
X0110249Y0088993D01*
X0110771Y0089373D01*
X0111227Y0089829D01*
X0111607Y0090351D01*
X0111900Y0090926D01*
X0112099Y0091540D01*
X0112200Y0092177D01*
X0112200Y0092200D01*
X0112043Y0091366D02*
X0127417Y0091366D01*
X0127830Y0090368D02*
X0111615Y0090368D01*
X0110766Y0089369D02*
X0128253Y0089369D01*
X0129251Y0088370D02*
X0101200Y0088370D01*
X0101200Y0087372D02*
X0130908Y0087372D01*
X0106963Y0080382D02*
X0254506Y0080382D01*
X0254506Y0079384D02*
X0106992Y0079384D01*
X0106992Y0078385D02*
X0254506Y0078385D01*
X0254506Y0077387D02*
X0106992Y0077387D01*
X0106992Y0076388D02*
X0254506Y0076388D01*
X0254506Y0075390D02*
X0106992Y0075390D01*
X0106992Y0074391D02*
X0254506Y0074391D01*
X0254506Y0073393D02*
X0106992Y0073393D01*
X0106773Y0072394D02*
X0254506Y0072394D01*
X0254506Y0071396D02*
X0106359Y0071396D01*
X0105649Y0070397D02*
X0254506Y0070397D01*
X0254506Y0069399D02*
X0104651Y0069399D01*
X0098333Y0069399D02*
X0094651Y0069399D01*
X0095649Y0070397D02*
X0097335Y0070397D01*
X0096625Y0071396D02*
X0096359Y0071396D01*
X0088333Y0069399D02*
X0084651Y0069399D01*
X0085649Y0070397D02*
X0087335Y0070397D01*
X0086625Y0071396D02*
X0086359Y0071396D01*
X0078333Y0069399D02*
X0074651Y0069399D01*
X0075649Y0070397D02*
X0077335Y0070397D01*
X0076625Y0071396D02*
X0076359Y0071396D01*
X0068333Y0069399D02*
X0064651Y0069399D01*
X0065649Y0070397D02*
X0067335Y0070397D01*
X0066625Y0071396D02*
X0066359Y0071396D01*
X0058333Y0069399D02*
X0054651Y0069399D01*
X0055649Y0070397D02*
X0057335Y0070397D01*
X0056625Y0071396D02*
X0056359Y0071396D01*
X0048333Y0069399D02*
X0044651Y0069399D01*
X0045649Y0070397D02*
X0047335Y0070397D01*
X0046625Y0071396D02*
X0046359Y0071396D01*
X0038333Y0069399D02*
X0034651Y0069399D01*
X0035649Y0070397D02*
X0037335Y0070397D01*
X0036625Y0071396D02*
X0036359Y0071396D01*
X0053303Y0054421D02*
X0059681Y0054421D01*
X0057918Y0053423D02*
X0055066Y0053423D01*
X0056064Y0052424D02*
X0056920Y0052424D01*
X0063303Y0054421D02*
X0069681Y0054421D01*
X0067918Y0053423D02*
X0065066Y0053423D01*
X0066064Y0052424D02*
X0066920Y0052424D01*
X0073303Y0054421D02*
X0079681Y0054421D01*
X0077918Y0053423D02*
X0075066Y0053423D01*
X0076064Y0052424D02*
X0076920Y0052424D01*
X0083303Y0054421D02*
X0089681Y0054421D01*
X0087918Y0053423D02*
X0085066Y0053423D01*
X0086064Y0052424D02*
X0086920Y0052424D01*
X0093303Y0054421D02*
X0254506Y0054421D01*
X0254506Y0053423D02*
X0095066Y0053423D01*
X0096064Y0052424D02*
X0098929Y0052424D01*
X0098821Y0052345D02*
X0098365Y0051889D01*
X0097985Y0051367D01*
X0097693Y0050792D01*
X0097493Y0050178D01*
X0097392Y0049541D01*
X0097392Y0046918D01*
X0101192Y0046918D01*
X0101192Y0046318D01*
X0097392Y0046318D01*
X0097392Y0043695D01*
X0097493Y0043058D01*
X0097693Y0042444D01*
X0097985Y0041869D01*
X0098365Y0041347D01*
X0098821Y0040891D01*
X0099343Y0040511D01*
X0099918Y0040218D01*
X0100532Y0040019D01*
X0101169Y0039918D01*
X0101192Y0039918D01*
X0101192Y0046318D01*
X0101792Y0046318D01*
X0101792Y0039918D01*
X0101815Y0039918D01*
X0102452Y0040019D01*
X0103066Y0040218D01*
X0103641Y0040511D01*
X0104163Y0040891D01*
X0104619Y0041347D01*
X0104999Y0041869D01*
X0105292Y0042444D01*
X0105491Y0043058D01*
X0105592Y0043695D01*
X0105592Y0046318D01*
X0101792Y0046318D01*
X0101792Y0046918D01*
X0105592Y0046918D01*
X0105592Y0049541D01*
X0105491Y0050178D01*
X0105292Y0050792D01*
X0104999Y0051367D01*
X0104619Y0051889D01*
X0104163Y0052345D01*
X0103641Y0052725D01*
X0103066Y0053018D01*
X0102452Y0053217D01*
X0101815Y0053318D01*
X0101792Y0053318D01*
X0101792Y0046918D01*
X0101192Y0046918D01*
X0101192Y0053318D01*
X0101169Y0053318D01*
X0100532Y0053217D01*
X0099918Y0053018D01*
X0099343Y0052725D01*
X0098821Y0052345D01*
X0098028Y0051426D02*
X0096531Y0051426D01*
X0096945Y0050427D02*
X0097574Y0050427D01*
X0097392Y0049429D02*
X0096992Y0049429D01*
X0096992Y0048430D02*
X0097392Y0048430D01*
X0097392Y0047432D02*
X0096992Y0047432D01*
X0096992Y0046433D02*
X0101192Y0046433D01*
X0101792Y0046433D02*
X0254506Y0046433D01*
X0254506Y0045434D02*
X0105592Y0045434D01*
X0105592Y0044436D02*
X0254506Y0044436D01*
X0254506Y0043437D02*
X0105551Y0043437D01*
X0105289Y0042439D02*
X0254506Y0042439D01*
X0254506Y0041440D02*
X0104687Y0041440D01*
X0103505Y0040442D02*
X0254506Y0040442D01*
X0254506Y0039443D02*
X0094696Y0039443D01*
X0095694Y0040442D02*
X0099480Y0040442D01*
X0098297Y0041440D02*
X0096378Y0041440D01*
X0096791Y0042439D02*
X0097695Y0042439D01*
X0097433Y0043437D02*
X0096992Y0043437D01*
X0096992Y0044436D02*
X0097392Y0044436D01*
X0097392Y0045434D02*
X0096992Y0045434D01*
X0101192Y0045434D02*
X0101792Y0045434D01*
X0101792Y0044436D02*
X0101192Y0044436D01*
X0101192Y0043437D02*
X0101792Y0043437D01*
X0101792Y0042439D02*
X0101192Y0042439D01*
X0101192Y0041440D02*
X0101792Y0041440D01*
X0101792Y0040442D02*
X0101192Y0040442D01*
X0101192Y0047432D02*
X0101792Y0047432D01*
X0101792Y0048430D02*
X0101192Y0048430D01*
X0101192Y0049429D02*
X0101792Y0049429D01*
X0101792Y0050427D02*
X0101192Y0050427D01*
X0101192Y0051426D02*
X0101792Y0051426D01*
X0101792Y0052424D02*
X0101192Y0052424D01*
X0104055Y0052424D02*
X0254506Y0052424D01*
X0254506Y0051426D02*
X0104956Y0051426D01*
X0105410Y0050427D02*
X0254506Y0050427D01*
X0254506Y0049429D02*
X0105592Y0049429D01*
X0105592Y0048430D02*
X0254506Y0048430D01*
X0254506Y0047432D02*
X0105592Y0047432D01*
X0088289Y0039443D02*
X0084696Y0039443D01*
X0085694Y0040442D02*
X0087290Y0040442D01*
X0086607Y0041440D02*
X0086378Y0041440D01*
X0078289Y0039443D02*
X0074696Y0039443D01*
X0075694Y0040442D02*
X0077290Y0040442D01*
X0076607Y0041440D02*
X0076378Y0041440D01*
X0068289Y0039443D02*
X0064696Y0039443D01*
X0065694Y0040442D02*
X0067290Y0040442D01*
X0066607Y0041440D02*
X0066378Y0041440D01*
X0058289Y0039443D02*
X0054696Y0039443D01*
X0055694Y0040442D02*
X0057290Y0040442D01*
X0056607Y0041440D02*
X0056378Y0041440D01*
X0031792Y0041440D02*
X0031192Y0041440D01*
X0031192Y0040442D02*
X0031792Y0040442D01*
X0031792Y0042439D02*
X0031192Y0042439D01*
X0031192Y0043437D02*
X0031792Y0043437D01*
X0031792Y0044436D02*
X0031192Y0044436D01*
X0031192Y0045434D02*
X0031792Y0045434D01*
X0031792Y0047432D02*
X0031192Y0047432D01*
X0031192Y0048430D02*
X0031792Y0048430D01*
X0031792Y0049429D02*
X0031192Y0049429D01*
X0031192Y0050427D02*
X0031792Y0050427D01*
X0031792Y0051426D02*
X0031192Y0051426D01*
X0031192Y0052424D02*
X0031792Y0052424D01*
X0010246Y0029458D02*
X0004400Y0029458D01*
X0004400Y0028460D02*
X0008286Y0028460D01*
X0006363Y0027461D02*
X0004400Y0027461D01*
X0004400Y0026463D02*
X0005364Y0026463D01*
X0028055Y0007491D02*
X0185794Y0007491D01*
X0185652Y0008490D02*
X0028564Y0008490D01*
X0029072Y0009488D02*
X0185778Y0009488D01*
X0186222Y0010487D02*
X0029581Y0010487D01*
X0029783Y0011485D02*
X0187353Y0011485D01*
X0189052Y0008509D02*
X0191388Y0008509D01*
X0190220Y0008509D02*
X0190220Y0005006D01*
X0193196Y0005590D02*
X0193196Y0007925D01*
X0193780Y0008509D01*
X0194947Y0008509D01*
X0195531Y0007925D01*
X0195531Y0005590D01*
X0194947Y0005006D01*
X0193780Y0005006D01*
X0193196Y0005590D01*
X0197339Y0006174D02*
X0199091Y0006174D01*
X0199675Y0006757D01*
X0199675Y0007925D01*
X0199091Y0008509D01*
X0197339Y0008509D01*
X0197339Y0005006D01*
X0202221Y0004496D02*
X0233312Y0004496D01*
X0232313Y0005494D02*
X0202832Y0005494D01*
X0203075Y0006493D02*
X0231359Y0006493D01*
X0230851Y0007491D02*
X0203075Y0007491D01*
X0203075Y0008490D02*
X0230342Y0008490D01*
X0229833Y0009488D02*
X0202708Y0009488D01*
X0201922Y0010487D02*
X0229324Y0010487D01*
X0229122Y0011485D02*
X0200790Y0011485D01*
X0194456Y0011909D02*
X0194456Y0011909D01*
X0193103Y0011909D02*
X0193103Y0011909D01*
X0193103Y0011909D01*
X0186260Y0006493D02*
X0027546Y0006493D01*
X0026592Y0005494D02*
X0186820Y0005494D01*
X0186820Y0004496D02*
X0025594Y0004496D01*
X0029941Y0012484D02*
X0228964Y0012484D01*
X0228806Y0013482D02*
X0030100Y0013482D01*
X0030258Y0014481D02*
X0228648Y0014481D01*
X0228553Y0015479D02*
X0030353Y0015479D01*
X0106549Y0081381D02*
X0254506Y0081381D01*
X0254506Y0082379D02*
X0106109Y0082379D01*
X0105110Y0083378D02*
X0254506Y0083378D01*
X0254506Y0084376D02*
X0103411Y0084376D01*
X0101200Y0085375D02*
X0254506Y0085375D01*
X0254506Y0086373D02*
X0101200Y0086373D01*
X0105200Y0089369D02*
X0105800Y0089369D01*
X0105800Y0090368D02*
X0105200Y0090368D01*
X0105200Y0091366D02*
X0105800Y0091366D01*
D12*
X0034453Y0203193D03*
D13*
X0044453Y0203193D03*
X0054453Y0203193D03*
X0064453Y0203193D03*
X0074453Y0203193D03*
X0084453Y0203193D03*
X0094453Y0203193D03*
X0104453Y0203193D03*
X0114453Y0203193D03*
X0124453Y0203193D03*
X0134453Y0203193D03*
X0144453Y0203193D03*
X0154453Y0203193D03*
X0164453Y0203193D03*
X0174453Y0203193D03*
X0184453Y0203193D03*
X0194453Y0203193D03*
X0204453Y0203193D03*
X0214453Y0203193D03*
X0224453Y0203193D03*
X0224453Y0213193D03*
X0214453Y0213193D03*
X0204453Y0213193D03*
X0194453Y0213193D03*
X0184453Y0213193D03*
X0174453Y0213193D03*
X0164453Y0213193D03*
X0154453Y0213193D03*
X0144453Y0213193D03*
X0134453Y0213193D03*
X0124453Y0213193D03*
X0114453Y0213193D03*
X0104453Y0213193D03*
X0094453Y0213193D03*
X0084453Y0213193D03*
X0074453Y0213193D03*
X0064453Y0213193D03*
X0054453Y0213193D03*
X0044453Y0213193D03*
X0034453Y0213193D03*
D14*
X0102900Y0162500D02*
X0108100Y0162500D01*
X0108100Y0152500D02*
X0102900Y0152500D01*
X0102900Y0142500D02*
X0108100Y0142500D01*
X0108100Y0132500D02*
X0102900Y0132500D01*
X0102900Y0122500D02*
X0108100Y0122500D01*
X0108100Y0112500D02*
X0102900Y0112500D01*
X0102900Y0102500D02*
X0108100Y0102500D01*
X0108100Y0092500D02*
X0102900Y0092500D01*
X0101492Y0079218D02*
X0101492Y0074018D01*
X0091492Y0074018D02*
X0091492Y0079218D01*
X0081492Y0079218D02*
X0081492Y0074018D01*
X0071492Y0074018D02*
X0071492Y0079218D01*
X0061492Y0079218D02*
X0061492Y0074018D01*
X0051492Y0074018D02*
X0051492Y0079218D01*
X0041492Y0079218D02*
X0041492Y0074018D01*
X0031492Y0074018D02*
X0031492Y0079218D01*
X0031492Y0049218D02*
X0031492Y0044018D01*
X0041492Y0044018D02*
X0041492Y0049218D01*
X0051492Y0049218D02*
X0051492Y0044018D01*
X0061492Y0044018D02*
X0061492Y0049218D01*
X0071492Y0049218D02*
X0071492Y0044018D01*
X0081492Y0044018D02*
X0081492Y0049218D01*
X0091492Y0049218D02*
X0091492Y0044018D01*
X0101492Y0044018D02*
X0101492Y0049218D01*
X0132900Y0092500D02*
X0138100Y0092500D01*
X0138100Y0102500D02*
X0132900Y0102500D01*
X0132900Y0112500D02*
X0138100Y0112500D01*
X0138100Y0122500D02*
X0132900Y0122500D01*
X0132900Y0132500D02*
X0138100Y0132500D01*
X0138100Y0142500D02*
X0132900Y0142500D01*
X0132900Y0152500D02*
X0138100Y0152500D01*
X0138100Y0162500D02*
X0132900Y0162500D01*
X0153900Y0162500D02*
X0159100Y0162500D01*
X0159100Y0152500D02*
X0153900Y0152500D01*
X0153900Y0142500D02*
X0159100Y0142500D01*
X0159100Y0132500D02*
X0153900Y0132500D01*
X0153900Y0122500D02*
X0159100Y0122500D01*
X0159100Y0112500D02*
X0153900Y0112500D01*
X0153900Y0102500D02*
X0159100Y0102500D01*
X0159100Y0092500D02*
X0153900Y0092500D01*
X0183900Y0092500D02*
X0189100Y0092500D01*
X0189100Y0102500D02*
X0183900Y0102500D01*
X0183900Y0112500D02*
X0189100Y0112500D01*
X0189100Y0122500D02*
X0183900Y0122500D01*
X0183900Y0132500D02*
X0189100Y0132500D01*
X0189100Y0142500D02*
X0183900Y0142500D01*
X0183900Y0152500D02*
X0189100Y0152500D01*
X0189100Y0162500D02*
X0183900Y0162500D01*
D15*
X0089500Y0162500D02*
X0083500Y0162500D01*
X0083500Y0152500D02*
X0089500Y0152500D01*
X0089500Y0142500D02*
X0083500Y0142500D01*
X0083500Y0132500D02*
X0089500Y0132500D01*
X0089500Y0122500D02*
X0083500Y0122500D01*
X0083500Y0112500D02*
X0089500Y0112500D01*
X0089500Y0102500D02*
X0083500Y0102500D01*
X0083500Y0092500D02*
X0089500Y0092500D01*
X0089500Y0172500D02*
X0083500Y0172500D01*
X0083500Y0182500D02*
X0089500Y0182500D01*
D16*
X0071500Y0182500D03*
X0071500Y0172500D03*
X0071500Y0162500D03*
X0071500Y0152500D03*
X0071500Y0142500D03*
X0071500Y0132500D03*
X0071500Y0112500D03*
X0071500Y0102500D03*
X0071500Y0092500D03*
X0031500Y0092500D03*
X0031500Y0102500D03*
X0031500Y0112500D03*
X0031500Y0132500D03*
X0031500Y0142500D03*
X0031500Y0152500D03*
X0031500Y0162500D03*
X0031500Y0172500D03*
X0031500Y0182500D03*
X0174500Y0186500D03*
X0214500Y0186500D03*
D17*
X0214500Y0185547D01*
X0214453Y0185500D01*
X0214453Y0120453D01*
X0186500Y0092500D01*
X0166500Y0102500D02*
X0156500Y0092500D01*
X0144500Y0092500D01*
X0135500Y0083500D01*
X0114500Y0083500D01*
X0105500Y0092500D01*
X0105500Y0083500D01*
X0110500Y0078500D01*
X0110500Y0063500D01*
X0105500Y0058500D01*
X0100500Y0053500D01*
X0048500Y0053500D01*
X0041618Y0046618D01*
X0041492Y0046618D01*
X0031492Y0046618D01*
X0031492Y0076618D02*
X0031500Y0076626D01*
X0031500Y0092500D01*
X0031500Y0102500D01*
X0031500Y0112500D01*
X0031500Y0132500D01*
X0031500Y0142500D01*
X0031500Y0152500D01*
X0031500Y0162500D01*
X0031500Y0172500D01*
X0031500Y0182500D01*
X0029500Y0184500D01*
X0029500Y0195500D01*
X0033500Y0191500D01*
X0106500Y0191500D01*
X0157500Y0191500D01*
X0186500Y0162500D01*
X0166500Y0162500D02*
X0186500Y0142500D01*
X0194453Y0140453D02*
X0186500Y0132500D01*
X0194453Y0140453D02*
X0194453Y0203193D01*
X0204453Y0203193D02*
X0204453Y0130453D01*
X0186500Y0112500D01*
X0166500Y0102500D02*
X0166500Y0152500D01*
X0156500Y0162500D01*
X0166500Y0162500D01*
X0156500Y0152500D02*
X0148500Y0144500D01*
X0148500Y0125500D01*
X0135500Y0112500D01*
X0135500Y0122500D02*
X0135500Y0132500D01*
X0145500Y0142500D01*
X0145500Y0157500D01*
X0140500Y0162500D01*
X0135500Y0162500D01*
X0106500Y0191500D01*
X0106500Y0182500D02*
X0086500Y0182500D01*
X0071500Y0182500D01*
X0071500Y0172500D02*
X0086500Y0172500D01*
X0107500Y0172500D01*
X0127500Y0152500D01*
X0135500Y0152500D01*
X0131500Y0157500D02*
X0106500Y0182500D01*
X0105500Y0162500D02*
X0086500Y0162500D01*
X0071500Y0162500D01*
X0071500Y0152500D02*
X0086500Y0152500D01*
X0105500Y0152500D01*
X0105500Y0142500D02*
X0086500Y0142500D01*
X0071500Y0142500D01*
X0071500Y0132500D02*
X0086500Y0132500D01*
X0105500Y0132500D01*
X0086500Y0132500D02*
X0086500Y0122500D01*
X0086500Y0112500D02*
X0097500Y0101500D01*
X0097500Y0082500D01*
X0091618Y0076618D01*
X0091492Y0076618D01*
X0081492Y0076618D02*
X0094500Y0089626D01*
X0094500Y0094500D01*
X0086500Y0102500D01*
X0071500Y0102500D01*
X0071500Y0092500D02*
X0086500Y0092500D01*
X0086500Y0091626D01*
X0071492Y0076618D01*
X0105500Y0092500D02*
X0105500Y0102500D01*
X0086500Y0112500D02*
X0071500Y0112500D01*
X0131500Y0157500D02*
X0140500Y0157500D01*
X0142500Y0155500D01*
X0142500Y0149500D01*
X0135500Y0142500D01*
X0155500Y0122500D02*
X0135500Y0102500D01*
X0135500Y0092500D02*
X0145500Y0102500D01*
X0156500Y0102500D01*
X0156500Y0122500D02*
X0155500Y0122500D01*
X0105500Y0058500D02*
X0105500Y0050626D01*
X0101492Y0046618D01*
X0214453Y0185500D02*
X0214453Y0203193D01*
X0034453Y0213193D02*
X0034193Y0213193D01*
X0029500Y0208500D01*
X0029500Y0195500D01*
M02*
