G75*
%MOIN*%
%OFA0B0*%
%FSLAX25Y25*%
%IPPOS*%
%LPD*%
%AMOC8*
5,1,8,0,0,1.08239X$1,22.5*
%
%ADD10C,0.00600*%
%ADD11C,0.00500*%
%ADD12R,0.03400X0.02400*%
D10*
X0026492Y0050118D02*
X0026492Y0057618D01*
X0026618Y0057620D01*
X0026743Y0057626D01*
X0026868Y0057636D01*
X0026993Y0057650D01*
X0027118Y0057667D01*
X0027242Y0057689D01*
X0027365Y0057714D01*
X0027487Y0057744D01*
X0027608Y0057777D01*
X0027728Y0057814D01*
X0027847Y0057854D01*
X0027964Y0057899D01*
X0028081Y0057947D01*
X0028195Y0057999D01*
X0028308Y0058054D01*
X0028419Y0058113D01*
X0028528Y0058175D01*
X0028635Y0058241D01*
X0028740Y0058310D01*
X0028843Y0058382D01*
X0028944Y0058457D01*
X0029042Y0058536D01*
X0029137Y0058618D01*
X0029230Y0058702D01*
X0029320Y0058790D01*
X0029408Y0058880D01*
X0029492Y0058973D01*
X0029574Y0059068D01*
X0029653Y0059166D01*
X0029728Y0059267D01*
X0029800Y0059370D01*
X0029869Y0059475D01*
X0029935Y0059582D01*
X0029997Y0059691D01*
X0030056Y0059802D01*
X0030111Y0059915D01*
X0030163Y0060029D01*
X0030211Y0060146D01*
X0030256Y0060263D01*
X0030296Y0060382D01*
X0030333Y0060502D01*
X0030366Y0060623D01*
X0030396Y0060745D01*
X0030421Y0060868D01*
X0030443Y0060992D01*
X0030460Y0061117D01*
X0030474Y0061242D01*
X0030484Y0061367D01*
X0030490Y0061492D01*
X0030492Y0061618D01*
X0030490Y0061744D01*
X0030484Y0061869D01*
X0030474Y0061994D01*
X0030460Y0062119D01*
X0030443Y0062244D01*
X0030421Y0062368D01*
X0030396Y0062491D01*
X0030366Y0062613D01*
X0030333Y0062734D01*
X0030296Y0062854D01*
X0030256Y0062973D01*
X0030211Y0063090D01*
X0030163Y0063207D01*
X0030111Y0063321D01*
X0030056Y0063434D01*
X0029997Y0063545D01*
X0029935Y0063654D01*
X0029869Y0063761D01*
X0029800Y0063866D01*
X0029728Y0063969D01*
X0029653Y0064070D01*
X0029574Y0064168D01*
X0029492Y0064263D01*
X0029408Y0064356D01*
X0029320Y0064446D01*
X0029230Y0064534D01*
X0029137Y0064618D01*
X0029042Y0064700D01*
X0028944Y0064779D01*
X0028843Y0064854D01*
X0028740Y0064926D01*
X0028635Y0064995D01*
X0028528Y0065061D01*
X0028419Y0065123D01*
X0028308Y0065182D01*
X0028195Y0065237D01*
X0028081Y0065289D01*
X0027964Y0065337D01*
X0027847Y0065382D01*
X0027728Y0065422D01*
X0027608Y0065459D01*
X0027487Y0065492D01*
X0027365Y0065522D01*
X0027242Y0065547D01*
X0027118Y0065569D01*
X0026993Y0065586D01*
X0026868Y0065600D01*
X0026743Y0065610D01*
X0026618Y0065616D01*
X0026492Y0065618D01*
X0026492Y0073118D01*
X0106492Y0073118D01*
X0106492Y0050118D01*
X0026492Y0050118D01*
X0040000Y0088000D02*
X0041500Y0088000D01*
X0042000Y0088500D01*
X0061000Y0088500D01*
X0061500Y0088000D01*
X0063000Y0088000D01*
X0063060Y0088002D01*
X0063121Y0088007D01*
X0063180Y0088016D01*
X0063239Y0088029D01*
X0063298Y0088045D01*
X0063355Y0088065D01*
X0063410Y0088088D01*
X0063465Y0088115D01*
X0063517Y0088144D01*
X0063568Y0088177D01*
X0063617Y0088213D01*
X0063663Y0088251D01*
X0063707Y0088293D01*
X0063749Y0088337D01*
X0063787Y0088383D01*
X0063823Y0088432D01*
X0063856Y0088483D01*
X0063885Y0088535D01*
X0063912Y0088590D01*
X0063935Y0088645D01*
X0063955Y0088702D01*
X0063971Y0088761D01*
X0063984Y0088820D01*
X0063993Y0088879D01*
X0063998Y0088940D01*
X0064000Y0089000D01*
X0064000Y0096000D01*
X0063998Y0096060D01*
X0063993Y0096121D01*
X0063984Y0096180D01*
X0063971Y0096239D01*
X0063955Y0096298D01*
X0063935Y0096355D01*
X0063912Y0096410D01*
X0063885Y0096465D01*
X0063856Y0096517D01*
X0063823Y0096568D01*
X0063787Y0096617D01*
X0063749Y0096663D01*
X0063707Y0096707D01*
X0063663Y0096749D01*
X0063617Y0096787D01*
X0063568Y0096823D01*
X0063517Y0096856D01*
X0063465Y0096885D01*
X0063410Y0096912D01*
X0063355Y0096935D01*
X0063298Y0096955D01*
X0063239Y0096971D01*
X0063180Y0096984D01*
X0063121Y0096993D01*
X0063060Y0096998D01*
X0063000Y0097000D01*
X0061500Y0097000D01*
X0061000Y0096500D01*
X0042000Y0096500D01*
X0041500Y0097000D01*
X0040000Y0097000D01*
X0040000Y0098000D02*
X0041500Y0098000D01*
X0042000Y0098500D01*
X0061000Y0098500D01*
X0061500Y0098000D01*
X0063000Y0098000D01*
X0063060Y0098002D01*
X0063121Y0098007D01*
X0063180Y0098016D01*
X0063239Y0098029D01*
X0063298Y0098045D01*
X0063355Y0098065D01*
X0063410Y0098088D01*
X0063465Y0098115D01*
X0063517Y0098144D01*
X0063568Y0098177D01*
X0063617Y0098213D01*
X0063663Y0098251D01*
X0063707Y0098293D01*
X0063749Y0098337D01*
X0063787Y0098383D01*
X0063823Y0098432D01*
X0063856Y0098483D01*
X0063885Y0098535D01*
X0063912Y0098590D01*
X0063935Y0098645D01*
X0063955Y0098702D01*
X0063971Y0098761D01*
X0063984Y0098820D01*
X0063993Y0098879D01*
X0063998Y0098940D01*
X0064000Y0099000D01*
X0064000Y0106000D01*
X0063998Y0106060D01*
X0063993Y0106121D01*
X0063984Y0106180D01*
X0063971Y0106239D01*
X0063955Y0106298D01*
X0063935Y0106355D01*
X0063912Y0106410D01*
X0063885Y0106465D01*
X0063856Y0106517D01*
X0063823Y0106568D01*
X0063787Y0106617D01*
X0063749Y0106663D01*
X0063707Y0106707D01*
X0063663Y0106749D01*
X0063617Y0106787D01*
X0063568Y0106823D01*
X0063517Y0106856D01*
X0063465Y0106885D01*
X0063410Y0106912D01*
X0063355Y0106935D01*
X0063298Y0106955D01*
X0063239Y0106971D01*
X0063180Y0106984D01*
X0063121Y0106993D01*
X0063060Y0106998D01*
X0063000Y0107000D01*
X0061500Y0107000D01*
X0061000Y0106500D01*
X0042000Y0106500D01*
X0041500Y0107000D01*
X0040000Y0107000D01*
X0039940Y0106998D01*
X0039879Y0106993D01*
X0039820Y0106984D01*
X0039761Y0106971D01*
X0039702Y0106955D01*
X0039645Y0106935D01*
X0039590Y0106912D01*
X0039535Y0106885D01*
X0039483Y0106856D01*
X0039432Y0106823D01*
X0039383Y0106787D01*
X0039337Y0106749D01*
X0039293Y0106707D01*
X0039251Y0106663D01*
X0039213Y0106617D01*
X0039177Y0106568D01*
X0039144Y0106517D01*
X0039115Y0106465D01*
X0039088Y0106410D01*
X0039065Y0106355D01*
X0039045Y0106298D01*
X0039029Y0106239D01*
X0039016Y0106180D01*
X0039007Y0106121D01*
X0039002Y0106060D01*
X0039000Y0106000D01*
X0039000Y0099000D01*
X0039002Y0098940D01*
X0039007Y0098879D01*
X0039016Y0098820D01*
X0039029Y0098761D01*
X0039045Y0098702D01*
X0039065Y0098645D01*
X0039088Y0098590D01*
X0039115Y0098535D01*
X0039144Y0098483D01*
X0039177Y0098432D01*
X0039213Y0098383D01*
X0039251Y0098337D01*
X0039293Y0098293D01*
X0039337Y0098251D01*
X0039383Y0098213D01*
X0039432Y0098177D01*
X0039483Y0098144D01*
X0039535Y0098115D01*
X0039590Y0098088D01*
X0039645Y0098065D01*
X0039702Y0098045D01*
X0039761Y0098029D01*
X0039820Y0098016D01*
X0039879Y0098007D01*
X0039940Y0098002D01*
X0040000Y0098000D01*
X0040000Y0097000D02*
X0039940Y0096998D01*
X0039879Y0096993D01*
X0039820Y0096984D01*
X0039761Y0096971D01*
X0039702Y0096955D01*
X0039645Y0096935D01*
X0039590Y0096912D01*
X0039535Y0096885D01*
X0039483Y0096856D01*
X0039432Y0096823D01*
X0039383Y0096787D01*
X0039337Y0096749D01*
X0039293Y0096707D01*
X0039251Y0096663D01*
X0039213Y0096617D01*
X0039177Y0096568D01*
X0039144Y0096517D01*
X0039115Y0096465D01*
X0039088Y0096410D01*
X0039065Y0096355D01*
X0039045Y0096298D01*
X0039029Y0096239D01*
X0039016Y0096180D01*
X0039007Y0096121D01*
X0039002Y0096060D01*
X0039000Y0096000D01*
X0039000Y0089000D01*
X0039002Y0088940D01*
X0039007Y0088879D01*
X0039016Y0088820D01*
X0039029Y0088761D01*
X0039045Y0088702D01*
X0039065Y0088645D01*
X0039088Y0088590D01*
X0039115Y0088535D01*
X0039144Y0088483D01*
X0039177Y0088432D01*
X0039213Y0088383D01*
X0039251Y0088337D01*
X0039293Y0088293D01*
X0039337Y0088251D01*
X0039383Y0088213D01*
X0039432Y0088177D01*
X0039483Y0088144D01*
X0039535Y0088115D01*
X0039590Y0088088D01*
X0039645Y0088065D01*
X0039702Y0088045D01*
X0039761Y0088029D01*
X0039820Y0088016D01*
X0039879Y0088007D01*
X0039940Y0088002D01*
X0040000Y0088000D01*
X0040000Y0108000D02*
X0041500Y0108000D01*
X0042000Y0108500D01*
X0061000Y0108500D01*
X0061500Y0108000D01*
X0063000Y0108000D01*
X0063060Y0108002D01*
X0063121Y0108007D01*
X0063180Y0108016D01*
X0063239Y0108029D01*
X0063298Y0108045D01*
X0063355Y0108065D01*
X0063410Y0108088D01*
X0063465Y0108115D01*
X0063517Y0108144D01*
X0063568Y0108177D01*
X0063617Y0108213D01*
X0063663Y0108251D01*
X0063707Y0108293D01*
X0063749Y0108337D01*
X0063787Y0108383D01*
X0063823Y0108432D01*
X0063856Y0108483D01*
X0063885Y0108535D01*
X0063912Y0108590D01*
X0063935Y0108645D01*
X0063955Y0108702D01*
X0063971Y0108761D01*
X0063984Y0108820D01*
X0063993Y0108879D01*
X0063998Y0108940D01*
X0064000Y0109000D01*
X0064000Y0116000D01*
X0063998Y0116060D01*
X0063993Y0116121D01*
X0063984Y0116180D01*
X0063971Y0116239D01*
X0063955Y0116298D01*
X0063935Y0116355D01*
X0063912Y0116410D01*
X0063885Y0116465D01*
X0063856Y0116517D01*
X0063823Y0116568D01*
X0063787Y0116617D01*
X0063749Y0116663D01*
X0063707Y0116707D01*
X0063663Y0116749D01*
X0063617Y0116787D01*
X0063568Y0116823D01*
X0063517Y0116856D01*
X0063465Y0116885D01*
X0063410Y0116912D01*
X0063355Y0116935D01*
X0063298Y0116955D01*
X0063239Y0116971D01*
X0063180Y0116984D01*
X0063121Y0116993D01*
X0063060Y0116998D01*
X0063000Y0117000D01*
X0061500Y0117000D01*
X0061000Y0116500D01*
X0042000Y0116500D01*
X0041500Y0117000D01*
X0040000Y0117000D01*
X0039940Y0116998D01*
X0039879Y0116993D01*
X0039820Y0116984D01*
X0039761Y0116971D01*
X0039702Y0116955D01*
X0039645Y0116935D01*
X0039590Y0116912D01*
X0039535Y0116885D01*
X0039483Y0116856D01*
X0039432Y0116823D01*
X0039383Y0116787D01*
X0039337Y0116749D01*
X0039293Y0116707D01*
X0039251Y0116663D01*
X0039213Y0116617D01*
X0039177Y0116568D01*
X0039144Y0116517D01*
X0039115Y0116465D01*
X0039088Y0116410D01*
X0039065Y0116355D01*
X0039045Y0116298D01*
X0039029Y0116239D01*
X0039016Y0116180D01*
X0039007Y0116121D01*
X0039002Y0116060D01*
X0039000Y0116000D01*
X0039000Y0109000D01*
X0039002Y0108940D01*
X0039007Y0108879D01*
X0039016Y0108820D01*
X0039029Y0108761D01*
X0039045Y0108702D01*
X0039065Y0108645D01*
X0039088Y0108590D01*
X0039115Y0108535D01*
X0039144Y0108483D01*
X0039177Y0108432D01*
X0039213Y0108383D01*
X0039251Y0108337D01*
X0039293Y0108293D01*
X0039337Y0108251D01*
X0039383Y0108213D01*
X0039432Y0108177D01*
X0039483Y0108144D01*
X0039535Y0108115D01*
X0039590Y0108088D01*
X0039645Y0108065D01*
X0039702Y0108045D01*
X0039761Y0108029D01*
X0039820Y0108016D01*
X0039879Y0108007D01*
X0039940Y0108002D01*
X0040000Y0108000D01*
X0040000Y0128000D02*
X0041500Y0128000D01*
X0042000Y0128500D01*
X0061000Y0128500D01*
X0061500Y0128000D01*
X0063000Y0128000D01*
X0063060Y0128002D01*
X0063121Y0128007D01*
X0063180Y0128016D01*
X0063239Y0128029D01*
X0063298Y0128045D01*
X0063355Y0128065D01*
X0063410Y0128088D01*
X0063465Y0128115D01*
X0063517Y0128144D01*
X0063568Y0128177D01*
X0063617Y0128213D01*
X0063663Y0128251D01*
X0063707Y0128293D01*
X0063749Y0128337D01*
X0063787Y0128383D01*
X0063823Y0128432D01*
X0063856Y0128483D01*
X0063885Y0128535D01*
X0063912Y0128590D01*
X0063935Y0128645D01*
X0063955Y0128702D01*
X0063971Y0128761D01*
X0063984Y0128820D01*
X0063993Y0128879D01*
X0063998Y0128940D01*
X0064000Y0129000D01*
X0064000Y0136000D01*
X0063998Y0136060D01*
X0063993Y0136121D01*
X0063984Y0136180D01*
X0063971Y0136239D01*
X0063955Y0136298D01*
X0063935Y0136355D01*
X0063912Y0136410D01*
X0063885Y0136465D01*
X0063856Y0136517D01*
X0063823Y0136568D01*
X0063787Y0136617D01*
X0063749Y0136663D01*
X0063707Y0136707D01*
X0063663Y0136749D01*
X0063617Y0136787D01*
X0063568Y0136823D01*
X0063517Y0136856D01*
X0063465Y0136885D01*
X0063410Y0136912D01*
X0063355Y0136935D01*
X0063298Y0136955D01*
X0063239Y0136971D01*
X0063180Y0136984D01*
X0063121Y0136993D01*
X0063060Y0136998D01*
X0063000Y0137000D01*
X0061500Y0137000D01*
X0061000Y0136500D01*
X0042000Y0136500D01*
X0041500Y0137000D01*
X0040000Y0137000D01*
X0040000Y0138000D02*
X0041500Y0138000D01*
X0042000Y0138500D01*
X0061000Y0138500D01*
X0061500Y0138000D01*
X0063000Y0138000D01*
X0063060Y0138002D01*
X0063121Y0138007D01*
X0063180Y0138016D01*
X0063239Y0138029D01*
X0063298Y0138045D01*
X0063355Y0138065D01*
X0063410Y0138088D01*
X0063465Y0138115D01*
X0063517Y0138144D01*
X0063568Y0138177D01*
X0063617Y0138213D01*
X0063663Y0138251D01*
X0063707Y0138293D01*
X0063749Y0138337D01*
X0063787Y0138383D01*
X0063823Y0138432D01*
X0063856Y0138483D01*
X0063885Y0138535D01*
X0063912Y0138590D01*
X0063935Y0138645D01*
X0063955Y0138702D01*
X0063971Y0138761D01*
X0063984Y0138820D01*
X0063993Y0138879D01*
X0063998Y0138940D01*
X0064000Y0139000D01*
X0064000Y0146000D01*
X0063998Y0146060D01*
X0063993Y0146121D01*
X0063984Y0146180D01*
X0063971Y0146239D01*
X0063955Y0146298D01*
X0063935Y0146355D01*
X0063912Y0146410D01*
X0063885Y0146465D01*
X0063856Y0146517D01*
X0063823Y0146568D01*
X0063787Y0146617D01*
X0063749Y0146663D01*
X0063707Y0146707D01*
X0063663Y0146749D01*
X0063617Y0146787D01*
X0063568Y0146823D01*
X0063517Y0146856D01*
X0063465Y0146885D01*
X0063410Y0146912D01*
X0063355Y0146935D01*
X0063298Y0146955D01*
X0063239Y0146971D01*
X0063180Y0146984D01*
X0063121Y0146993D01*
X0063060Y0146998D01*
X0063000Y0147000D01*
X0061500Y0147000D01*
X0061000Y0146500D01*
X0042000Y0146500D01*
X0041500Y0147000D01*
X0040000Y0147000D01*
X0039940Y0146998D01*
X0039879Y0146993D01*
X0039820Y0146984D01*
X0039761Y0146971D01*
X0039702Y0146955D01*
X0039645Y0146935D01*
X0039590Y0146912D01*
X0039535Y0146885D01*
X0039483Y0146856D01*
X0039432Y0146823D01*
X0039383Y0146787D01*
X0039337Y0146749D01*
X0039293Y0146707D01*
X0039251Y0146663D01*
X0039213Y0146617D01*
X0039177Y0146568D01*
X0039144Y0146517D01*
X0039115Y0146465D01*
X0039088Y0146410D01*
X0039065Y0146355D01*
X0039045Y0146298D01*
X0039029Y0146239D01*
X0039016Y0146180D01*
X0039007Y0146121D01*
X0039002Y0146060D01*
X0039000Y0146000D01*
X0039000Y0139000D01*
X0039002Y0138940D01*
X0039007Y0138879D01*
X0039016Y0138820D01*
X0039029Y0138761D01*
X0039045Y0138702D01*
X0039065Y0138645D01*
X0039088Y0138590D01*
X0039115Y0138535D01*
X0039144Y0138483D01*
X0039177Y0138432D01*
X0039213Y0138383D01*
X0039251Y0138337D01*
X0039293Y0138293D01*
X0039337Y0138251D01*
X0039383Y0138213D01*
X0039432Y0138177D01*
X0039483Y0138144D01*
X0039535Y0138115D01*
X0039590Y0138088D01*
X0039645Y0138065D01*
X0039702Y0138045D01*
X0039761Y0138029D01*
X0039820Y0138016D01*
X0039879Y0138007D01*
X0039940Y0138002D01*
X0040000Y0138000D01*
X0040000Y0137000D02*
X0039940Y0136998D01*
X0039879Y0136993D01*
X0039820Y0136984D01*
X0039761Y0136971D01*
X0039702Y0136955D01*
X0039645Y0136935D01*
X0039590Y0136912D01*
X0039535Y0136885D01*
X0039483Y0136856D01*
X0039432Y0136823D01*
X0039383Y0136787D01*
X0039337Y0136749D01*
X0039293Y0136707D01*
X0039251Y0136663D01*
X0039213Y0136617D01*
X0039177Y0136568D01*
X0039144Y0136517D01*
X0039115Y0136465D01*
X0039088Y0136410D01*
X0039065Y0136355D01*
X0039045Y0136298D01*
X0039029Y0136239D01*
X0039016Y0136180D01*
X0039007Y0136121D01*
X0039002Y0136060D01*
X0039000Y0136000D01*
X0039000Y0129000D01*
X0039002Y0128940D01*
X0039007Y0128879D01*
X0039016Y0128820D01*
X0039029Y0128761D01*
X0039045Y0128702D01*
X0039065Y0128645D01*
X0039088Y0128590D01*
X0039115Y0128535D01*
X0039144Y0128483D01*
X0039177Y0128432D01*
X0039213Y0128383D01*
X0039251Y0128337D01*
X0039293Y0128293D01*
X0039337Y0128251D01*
X0039383Y0128213D01*
X0039432Y0128177D01*
X0039483Y0128144D01*
X0039535Y0128115D01*
X0039590Y0128088D01*
X0039645Y0128065D01*
X0039702Y0128045D01*
X0039761Y0128029D01*
X0039820Y0128016D01*
X0039879Y0128007D01*
X0039940Y0128002D01*
X0040000Y0128000D01*
X0040000Y0148000D02*
X0041500Y0148000D01*
X0042000Y0148500D01*
X0061000Y0148500D01*
X0061500Y0148000D01*
X0063000Y0148000D01*
X0063060Y0148002D01*
X0063121Y0148007D01*
X0063180Y0148016D01*
X0063239Y0148029D01*
X0063298Y0148045D01*
X0063355Y0148065D01*
X0063410Y0148088D01*
X0063465Y0148115D01*
X0063517Y0148144D01*
X0063568Y0148177D01*
X0063617Y0148213D01*
X0063663Y0148251D01*
X0063707Y0148293D01*
X0063749Y0148337D01*
X0063787Y0148383D01*
X0063823Y0148432D01*
X0063856Y0148483D01*
X0063885Y0148535D01*
X0063912Y0148590D01*
X0063935Y0148645D01*
X0063955Y0148702D01*
X0063971Y0148761D01*
X0063984Y0148820D01*
X0063993Y0148879D01*
X0063998Y0148940D01*
X0064000Y0149000D01*
X0064000Y0156000D01*
X0063998Y0156060D01*
X0063993Y0156121D01*
X0063984Y0156180D01*
X0063971Y0156239D01*
X0063955Y0156298D01*
X0063935Y0156355D01*
X0063912Y0156410D01*
X0063885Y0156465D01*
X0063856Y0156517D01*
X0063823Y0156568D01*
X0063787Y0156617D01*
X0063749Y0156663D01*
X0063707Y0156707D01*
X0063663Y0156749D01*
X0063617Y0156787D01*
X0063568Y0156823D01*
X0063517Y0156856D01*
X0063465Y0156885D01*
X0063410Y0156912D01*
X0063355Y0156935D01*
X0063298Y0156955D01*
X0063239Y0156971D01*
X0063180Y0156984D01*
X0063121Y0156993D01*
X0063060Y0156998D01*
X0063000Y0157000D01*
X0061500Y0157000D01*
X0061000Y0156500D01*
X0042000Y0156500D01*
X0041500Y0157000D01*
X0040000Y0157000D01*
X0040000Y0158000D02*
X0041500Y0158000D01*
X0042000Y0158500D01*
X0061000Y0158500D01*
X0061500Y0158000D01*
X0063000Y0158000D01*
X0063060Y0158002D01*
X0063121Y0158007D01*
X0063180Y0158016D01*
X0063239Y0158029D01*
X0063298Y0158045D01*
X0063355Y0158065D01*
X0063410Y0158088D01*
X0063465Y0158115D01*
X0063517Y0158144D01*
X0063568Y0158177D01*
X0063617Y0158213D01*
X0063663Y0158251D01*
X0063707Y0158293D01*
X0063749Y0158337D01*
X0063787Y0158383D01*
X0063823Y0158432D01*
X0063856Y0158483D01*
X0063885Y0158535D01*
X0063912Y0158590D01*
X0063935Y0158645D01*
X0063955Y0158702D01*
X0063971Y0158761D01*
X0063984Y0158820D01*
X0063993Y0158879D01*
X0063998Y0158940D01*
X0064000Y0159000D01*
X0064000Y0166000D01*
X0063998Y0166060D01*
X0063993Y0166121D01*
X0063984Y0166180D01*
X0063971Y0166239D01*
X0063955Y0166298D01*
X0063935Y0166355D01*
X0063912Y0166410D01*
X0063885Y0166465D01*
X0063856Y0166517D01*
X0063823Y0166568D01*
X0063787Y0166617D01*
X0063749Y0166663D01*
X0063707Y0166707D01*
X0063663Y0166749D01*
X0063617Y0166787D01*
X0063568Y0166823D01*
X0063517Y0166856D01*
X0063465Y0166885D01*
X0063410Y0166912D01*
X0063355Y0166935D01*
X0063298Y0166955D01*
X0063239Y0166971D01*
X0063180Y0166984D01*
X0063121Y0166993D01*
X0063060Y0166998D01*
X0063000Y0167000D01*
X0061500Y0167000D01*
X0061000Y0166500D01*
X0042000Y0166500D01*
X0041500Y0167000D01*
X0040000Y0167000D01*
X0039940Y0166998D01*
X0039879Y0166993D01*
X0039820Y0166984D01*
X0039761Y0166971D01*
X0039702Y0166955D01*
X0039645Y0166935D01*
X0039590Y0166912D01*
X0039535Y0166885D01*
X0039483Y0166856D01*
X0039432Y0166823D01*
X0039383Y0166787D01*
X0039337Y0166749D01*
X0039293Y0166707D01*
X0039251Y0166663D01*
X0039213Y0166617D01*
X0039177Y0166568D01*
X0039144Y0166517D01*
X0039115Y0166465D01*
X0039088Y0166410D01*
X0039065Y0166355D01*
X0039045Y0166298D01*
X0039029Y0166239D01*
X0039016Y0166180D01*
X0039007Y0166121D01*
X0039002Y0166060D01*
X0039000Y0166000D01*
X0039000Y0159000D01*
X0039002Y0158940D01*
X0039007Y0158879D01*
X0039016Y0158820D01*
X0039029Y0158761D01*
X0039045Y0158702D01*
X0039065Y0158645D01*
X0039088Y0158590D01*
X0039115Y0158535D01*
X0039144Y0158483D01*
X0039177Y0158432D01*
X0039213Y0158383D01*
X0039251Y0158337D01*
X0039293Y0158293D01*
X0039337Y0158251D01*
X0039383Y0158213D01*
X0039432Y0158177D01*
X0039483Y0158144D01*
X0039535Y0158115D01*
X0039590Y0158088D01*
X0039645Y0158065D01*
X0039702Y0158045D01*
X0039761Y0158029D01*
X0039820Y0158016D01*
X0039879Y0158007D01*
X0039940Y0158002D01*
X0040000Y0158000D01*
X0040000Y0157000D02*
X0039940Y0156998D01*
X0039879Y0156993D01*
X0039820Y0156984D01*
X0039761Y0156971D01*
X0039702Y0156955D01*
X0039645Y0156935D01*
X0039590Y0156912D01*
X0039535Y0156885D01*
X0039483Y0156856D01*
X0039432Y0156823D01*
X0039383Y0156787D01*
X0039337Y0156749D01*
X0039293Y0156707D01*
X0039251Y0156663D01*
X0039213Y0156617D01*
X0039177Y0156568D01*
X0039144Y0156517D01*
X0039115Y0156465D01*
X0039088Y0156410D01*
X0039065Y0156355D01*
X0039045Y0156298D01*
X0039029Y0156239D01*
X0039016Y0156180D01*
X0039007Y0156121D01*
X0039002Y0156060D01*
X0039000Y0156000D01*
X0039000Y0149000D01*
X0039002Y0148940D01*
X0039007Y0148879D01*
X0039016Y0148820D01*
X0039029Y0148761D01*
X0039045Y0148702D01*
X0039065Y0148645D01*
X0039088Y0148590D01*
X0039115Y0148535D01*
X0039144Y0148483D01*
X0039177Y0148432D01*
X0039213Y0148383D01*
X0039251Y0148337D01*
X0039293Y0148293D01*
X0039337Y0148251D01*
X0039383Y0148213D01*
X0039432Y0148177D01*
X0039483Y0148144D01*
X0039535Y0148115D01*
X0039590Y0148088D01*
X0039645Y0148065D01*
X0039702Y0148045D01*
X0039761Y0148029D01*
X0039820Y0148016D01*
X0039879Y0148007D01*
X0039940Y0148002D01*
X0040000Y0148000D01*
X0040000Y0168000D02*
X0041500Y0168000D01*
X0042000Y0168500D01*
X0061000Y0168500D01*
X0061500Y0168000D01*
X0063000Y0168000D01*
X0063060Y0168002D01*
X0063121Y0168007D01*
X0063180Y0168016D01*
X0063239Y0168029D01*
X0063298Y0168045D01*
X0063355Y0168065D01*
X0063410Y0168088D01*
X0063465Y0168115D01*
X0063517Y0168144D01*
X0063568Y0168177D01*
X0063617Y0168213D01*
X0063663Y0168251D01*
X0063707Y0168293D01*
X0063749Y0168337D01*
X0063787Y0168383D01*
X0063823Y0168432D01*
X0063856Y0168483D01*
X0063885Y0168535D01*
X0063912Y0168590D01*
X0063935Y0168645D01*
X0063955Y0168702D01*
X0063971Y0168761D01*
X0063984Y0168820D01*
X0063993Y0168879D01*
X0063998Y0168940D01*
X0064000Y0169000D01*
X0064000Y0176000D01*
X0063998Y0176060D01*
X0063993Y0176121D01*
X0063984Y0176180D01*
X0063971Y0176239D01*
X0063955Y0176298D01*
X0063935Y0176355D01*
X0063912Y0176410D01*
X0063885Y0176465D01*
X0063856Y0176517D01*
X0063823Y0176568D01*
X0063787Y0176617D01*
X0063749Y0176663D01*
X0063707Y0176707D01*
X0063663Y0176749D01*
X0063617Y0176787D01*
X0063568Y0176823D01*
X0063517Y0176856D01*
X0063465Y0176885D01*
X0063410Y0176912D01*
X0063355Y0176935D01*
X0063298Y0176955D01*
X0063239Y0176971D01*
X0063180Y0176984D01*
X0063121Y0176993D01*
X0063060Y0176998D01*
X0063000Y0177000D01*
X0061500Y0177000D01*
X0061000Y0176500D01*
X0042000Y0176500D01*
X0041500Y0177000D01*
X0040000Y0177000D01*
X0040000Y0178000D02*
X0041500Y0178000D01*
X0042000Y0178500D01*
X0061000Y0178500D01*
X0061500Y0178000D01*
X0063000Y0178000D01*
X0063060Y0178002D01*
X0063121Y0178007D01*
X0063180Y0178016D01*
X0063239Y0178029D01*
X0063298Y0178045D01*
X0063355Y0178065D01*
X0063410Y0178088D01*
X0063465Y0178115D01*
X0063517Y0178144D01*
X0063568Y0178177D01*
X0063617Y0178213D01*
X0063663Y0178251D01*
X0063707Y0178293D01*
X0063749Y0178337D01*
X0063787Y0178383D01*
X0063823Y0178432D01*
X0063856Y0178483D01*
X0063885Y0178535D01*
X0063912Y0178590D01*
X0063935Y0178645D01*
X0063955Y0178702D01*
X0063971Y0178761D01*
X0063984Y0178820D01*
X0063993Y0178879D01*
X0063998Y0178940D01*
X0064000Y0179000D01*
X0064000Y0186000D01*
X0063998Y0186060D01*
X0063993Y0186121D01*
X0063984Y0186180D01*
X0063971Y0186239D01*
X0063955Y0186298D01*
X0063935Y0186355D01*
X0063912Y0186410D01*
X0063885Y0186465D01*
X0063856Y0186517D01*
X0063823Y0186568D01*
X0063787Y0186617D01*
X0063749Y0186663D01*
X0063707Y0186707D01*
X0063663Y0186749D01*
X0063617Y0186787D01*
X0063568Y0186823D01*
X0063517Y0186856D01*
X0063465Y0186885D01*
X0063410Y0186912D01*
X0063355Y0186935D01*
X0063298Y0186955D01*
X0063239Y0186971D01*
X0063180Y0186984D01*
X0063121Y0186993D01*
X0063060Y0186998D01*
X0063000Y0187000D01*
X0061500Y0187000D01*
X0061000Y0186500D01*
X0042000Y0186500D01*
X0041500Y0187000D01*
X0040000Y0187000D01*
X0039940Y0186998D01*
X0039879Y0186993D01*
X0039820Y0186984D01*
X0039761Y0186971D01*
X0039702Y0186955D01*
X0039645Y0186935D01*
X0039590Y0186912D01*
X0039535Y0186885D01*
X0039483Y0186856D01*
X0039432Y0186823D01*
X0039383Y0186787D01*
X0039337Y0186749D01*
X0039293Y0186707D01*
X0039251Y0186663D01*
X0039213Y0186617D01*
X0039177Y0186568D01*
X0039144Y0186517D01*
X0039115Y0186465D01*
X0039088Y0186410D01*
X0039065Y0186355D01*
X0039045Y0186298D01*
X0039029Y0186239D01*
X0039016Y0186180D01*
X0039007Y0186121D01*
X0039002Y0186060D01*
X0039000Y0186000D01*
X0039000Y0179000D01*
X0039002Y0178940D01*
X0039007Y0178879D01*
X0039016Y0178820D01*
X0039029Y0178761D01*
X0039045Y0178702D01*
X0039065Y0178645D01*
X0039088Y0178590D01*
X0039115Y0178535D01*
X0039144Y0178483D01*
X0039177Y0178432D01*
X0039213Y0178383D01*
X0039251Y0178337D01*
X0039293Y0178293D01*
X0039337Y0178251D01*
X0039383Y0178213D01*
X0039432Y0178177D01*
X0039483Y0178144D01*
X0039535Y0178115D01*
X0039590Y0178088D01*
X0039645Y0178065D01*
X0039702Y0178045D01*
X0039761Y0178029D01*
X0039820Y0178016D01*
X0039879Y0178007D01*
X0039940Y0178002D01*
X0040000Y0178000D01*
X0040000Y0177000D02*
X0039940Y0176998D01*
X0039879Y0176993D01*
X0039820Y0176984D01*
X0039761Y0176971D01*
X0039702Y0176955D01*
X0039645Y0176935D01*
X0039590Y0176912D01*
X0039535Y0176885D01*
X0039483Y0176856D01*
X0039432Y0176823D01*
X0039383Y0176787D01*
X0039337Y0176749D01*
X0039293Y0176707D01*
X0039251Y0176663D01*
X0039213Y0176617D01*
X0039177Y0176568D01*
X0039144Y0176517D01*
X0039115Y0176465D01*
X0039088Y0176410D01*
X0039065Y0176355D01*
X0039045Y0176298D01*
X0039029Y0176239D01*
X0039016Y0176180D01*
X0039007Y0176121D01*
X0039002Y0176060D01*
X0039000Y0176000D01*
X0039000Y0169000D01*
X0039002Y0168940D01*
X0039007Y0168879D01*
X0039016Y0168820D01*
X0039029Y0168761D01*
X0039045Y0168702D01*
X0039065Y0168645D01*
X0039088Y0168590D01*
X0039115Y0168535D01*
X0039144Y0168483D01*
X0039177Y0168432D01*
X0039213Y0168383D01*
X0039251Y0168337D01*
X0039293Y0168293D01*
X0039337Y0168251D01*
X0039383Y0168213D01*
X0039432Y0168177D01*
X0039483Y0168144D01*
X0039535Y0168115D01*
X0039590Y0168088D01*
X0039645Y0168065D01*
X0039702Y0168045D01*
X0039761Y0168029D01*
X0039820Y0168016D01*
X0039879Y0168007D01*
X0039940Y0168002D01*
X0040000Y0168000D01*
X0041953Y0198193D02*
X0039453Y0200693D01*
X0036953Y0198193D01*
X0031953Y0198193D01*
X0029453Y0200693D01*
X0029453Y0215693D01*
X0031953Y0218193D01*
X0036953Y0218193D01*
X0039453Y0215693D01*
X0041953Y0218193D01*
X0046953Y0218193D01*
X0049453Y0215693D01*
X0051953Y0218193D01*
X0056953Y0218193D01*
X0059453Y0215693D01*
X0061953Y0218193D01*
X0066953Y0218193D01*
X0069453Y0215693D01*
X0071953Y0218193D01*
X0076953Y0218193D01*
X0079453Y0215693D01*
X0081953Y0218193D01*
X0086953Y0218193D01*
X0089453Y0215693D01*
X0091953Y0218193D01*
X0096953Y0218193D01*
X0099453Y0215693D01*
X0101953Y0218193D01*
X0106953Y0218193D01*
X0109453Y0215693D01*
X0111953Y0218193D01*
X0116953Y0218193D01*
X0119453Y0215693D01*
X0121953Y0218193D01*
X0126953Y0218193D01*
X0129453Y0215693D01*
X0131953Y0218193D01*
X0136953Y0218193D01*
X0139453Y0215693D01*
X0141953Y0218193D01*
X0146953Y0218193D01*
X0149453Y0215693D01*
X0151953Y0218193D01*
X0156953Y0218193D01*
X0159453Y0215693D01*
X0161953Y0218193D01*
X0166953Y0218193D01*
X0169453Y0215693D01*
X0171953Y0218193D01*
X0176953Y0218193D01*
X0179453Y0215693D01*
X0181953Y0218193D01*
X0186953Y0218193D01*
X0189453Y0215693D01*
X0191953Y0218193D01*
X0196953Y0218193D01*
X0199453Y0215693D01*
X0201953Y0218193D01*
X0206953Y0218193D01*
X0209453Y0215693D01*
X0211953Y0218193D01*
X0216953Y0218193D01*
X0219453Y0215693D01*
X0221953Y0218193D01*
X0226953Y0218193D01*
X0229453Y0215693D01*
X0229453Y0200693D01*
X0226953Y0198193D01*
X0221953Y0198193D01*
X0219453Y0200693D01*
X0216953Y0198193D01*
X0211953Y0198193D01*
X0209453Y0200693D01*
X0206953Y0198193D01*
X0201953Y0198193D01*
X0199453Y0200693D01*
X0196953Y0198193D01*
X0191953Y0198193D01*
X0189453Y0200693D01*
X0186953Y0198193D01*
X0181953Y0198193D01*
X0179453Y0200693D01*
X0176953Y0198193D01*
X0171953Y0198193D01*
X0169453Y0200693D01*
X0166953Y0198193D01*
X0161953Y0198193D01*
X0159453Y0200693D01*
X0156953Y0198193D01*
X0151953Y0198193D01*
X0149453Y0200693D01*
X0146953Y0198193D01*
X0141953Y0198193D01*
X0139453Y0200693D01*
X0136953Y0198193D01*
X0131953Y0198193D01*
X0129453Y0200693D01*
X0126953Y0198193D01*
X0121953Y0198193D01*
X0119453Y0200693D01*
X0116953Y0198193D01*
X0111953Y0198193D01*
X0109453Y0200693D01*
X0106953Y0198193D01*
X0101953Y0198193D01*
X0099453Y0200693D01*
X0096953Y0198193D01*
X0091953Y0198193D01*
X0089453Y0200693D01*
X0086953Y0198193D01*
X0081953Y0198193D01*
X0079453Y0200693D01*
X0076953Y0198193D01*
X0071953Y0198193D01*
X0069453Y0200693D01*
X0066953Y0198193D01*
X0061953Y0198193D01*
X0059453Y0200693D01*
X0056953Y0198193D01*
X0051953Y0198193D01*
X0049453Y0200693D01*
X0046953Y0198193D01*
X0041953Y0198193D01*
X0081500Y0185000D02*
X0081500Y0180000D01*
X0084000Y0177500D01*
X0081500Y0175000D01*
X0081500Y0170000D01*
X0084000Y0167500D01*
X0089000Y0167500D01*
X0091500Y0170000D01*
X0091500Y0175000D01*
X0089000Y0177500D01*
X0084000Y0177500D01*
X0089000Y0177500D02*
X0091500Y0180000D01*
X0091500Y0185000D01*
X0089000Y0187500D01*
X0084000Y0187500D01*
X0081500Y0185000D01*
X0084000Y0167500D02*
X0081500Y0165000D01*
X0081500Y0160000D01*
X0084000Y0157500D01*
X0081500Y0155000D01*
X0081500Y0150000D01*
X0084000Y0147500D01*
X0081500Y0145000D01*
X0081500Y0140000D01*
X0084000Y0137500D01*
X0089000Y0137500D01*
X0091500Y0140000D01*
X0091500Y0145000D01*
X0089000Y0147500D01*
X0084000Y0147500D01*
X0089000Y0147500D02*
X0091500Y0150000D01*
X0091500Y0155000D01*
X0089000Y0157500D01*
X0084000Y0157500D01*
X0089000Y0157500D02*
X0091500Y0160000D01*
X0091500Y0165000D01*
X0089000Y0167500D01*
X0109000Y0167500D02*
X0116500Y0167500D01*
X0116502Y0167374D01*
X0116508Y0167249D01*
X0116518Y0167124D01*
X0116532Y0166999D01*
X0116549Y0166874D01*
X0116571Y0166750D01*
X0116596Y0166627D01*
X0116626Y0166505D01*
X0116659Y0166384D01*
X0116696Y0166264D01*
X0116736Y0166145D01*
X0116781Y0166028D01*
X0116829Y0165911D01*
X0116881Y0165797D01*
X0116936Y0165684D01*
X0116995Y0165573D01*
X0117057Y0165464D01*
X0117123Y0165357D01*
X0117192Y0165252D01*
X0117264Y0165149D01*
X0117339Y0165048D01*
X0117418Y0164950D01*
X0117500Y0164855D01*
X0117584Y0164762D01*
X0117672Y0164672D01*
X0117762Y0164584D01*
X0117855Y0164500D01*
X0117950Y0164418D01*
X0118048Y0164339D01*
X0118149Y0164264D01*
X0118252Y0164192D01*
X0118357Y0164123D01*
X0118464Y0164057D01*
X0118573Y0163995D01*
X0118684Y0163936D01*
X0118797Y0163881D01*
X0118911Y0163829D01*
X0119028Y0163781D01*
X0119145Y0163736D01*
X0119264Y0163696D01*
X0119384Y0163659D01*
X0119505Y0163626D01*
X0119627Y0163596D01*
X0119750Y0163571D01*
X0119874Y0163549D01*
X0119999Y0163532D01*
X0120124Y0163518D01*
X0120249Y0163508D01*
X0120374Y0163502D01*
X0120500Y0163500D01*
X0120626Y0163502D01*
X0120751Y0163508D01*
X0120876Y0163518D01*
X0121001Y0163532D01*
X0121126Y0163549D01*
X0121250Y0163571D01*
X0121373Y0163596D01*
X0121495Y0163626D01*
X0121616Y0163659D01*
X0121736Y0163696D01*
X0121855Y0163736D01*
X0121972Y0163781D01*
X0122089Y0163829D01*
X0122203Y0163881D01*
X0122316Y0163936D01*
X0122427Y0163995D01*
X0122536Y0164057D01*
X0122643Y0164123D01*
X0122748Y0164192D01*
X0122851Y0164264D01*
X0122952Y0164339D01*
X0123050Y0164418D01*
X0123145Y0164500D01*
X0123238Y0164584D01*
X0123328Y0164672D01*
X0123416Y0164762D01*
X0123500Y0164855D01*
X0123582Y0164950D01*
X0123661Y0165048D01*
X0123736Y0165149D01*
X0123808Y0165252D01*
X0123877Y0165357D01*
X0123943Y0165464D01*
X0124005Y0165573D01*
X0124064Y0165684D01*
X0124119Y0165797D01*
X0124171Y0165911D01*
X0124219Y0166028D01*
X0124264Y0166145D01*
X0124304Y0166264D01*
X0124341Y0166384D01*
X0124374Y0166505D01*
X0124404Y0166627D01*
X0124429Y0166750D01*
X0124451Y0166874D01*
X0124468Y0166999D01*
X0124482Y0167124D01*
X0124492Y0167249D01*
X0124498Y0167374D01*
X0124500Y0167500D01*
X0132000Y0167500D01*
X0132000Y0087500D01*
X0109000Y0087500D01*
X0109000Y0167500D01*
X0089000Y0137500D02*
X0091500Y0135000D01*
X0091500Y0130000D01*
X0089000Y0127500D01*
X0091500Y0125000D01*
X0091500Y0120000D01*
X0089000Y0117500D01*
X0091500Y0115000D01*
X0091500Y0110000D01*
X0089000Y0107500D01*
X0084000Y0107500D01*
X0081500Y0110000D01*
X0081500Y0115000D01*
X0084000Y0117500D01*
X0081500Y0120000D01*
X0081500Y0125000D01*
X0084000Y0127500D01*
X0081500Y0130000D01*
X0081500Y0135000D01*
X0084000Y0137500D01*
X0084000Y0127500D02*
X0089000Y0127500D01*
X0089000Y0117500D02*
X0084000Y0117500D01*
X0084000Y0107500D02*
X0081500Y0105000D01*
X0081500Y0100000D01*
X0084000Y0097500D01*
X0081500Y0095000D01*
X0081500Y0090000D01*
X0084000Y0087500D01*
X0089000Y0087500D01*
X0091500Y0090000D01*
X0091500Y0095000D01*
X0089000Y0097500D01*
X0084000Y0097500D01*
X0089000Y0097500D02*
X0091500Y0100000D01*
X0091500Y0105000D01*
X0089000Y0107500D01*
X0160000Y0087500D02*
X0183000Y0087500D01*
X0183000Y0167500D01*
X0175500Y0167500D01*
X0175498Y0167374D01*
X0175492Y0167249D01*
X0175482Y0167124D01*
X0175468Y0166999D01*
X0175451Y0166874D01*
X0175429Y0166750D01*
X0175404Y0166627D01*
X0175374Y0166505D01*
X0175341Y0166384D01*
X0175304Y0166264D01*
X0175264Y0166145D01*
X0175219Y0166028D01*
X0175171Y0165911D01*
X0175119Y0165797D01*
X0175064Y0165684D01*
X0175005Y0165573D01*
X0174943Y0165464D01*
X0174877Y0165357D01*
X0174808Y0165252D01*
X0174736Y0165149D01*
X0174661Y0165048D01*
X0174582Y0164950D01*
X0174500Y0164855D01*
X0174416Y0164762D01*
X0174328Y0164672D01*
X0174238Y0164584D01*
X0174145Y0164500D01*
X0174050Y0164418D01*
X0173952Y0164339D01*
X0173851Y0164264D01*
X0173748Y0164192D01*
X0173643Y0164123D01*
X0173536Y0164057D01*
X0173427Y0163995D01*
X0173316Y0163936D01*
X0173203Y0163881D01*
X0173089Y0163829D01*
X0172972Y0163781D01*
X0172855Y0163736D01*
X0172736Y0163696D01*
X0172616Y0163659D01*
X0172495Y0163626D01*
X0172373Y0163596D01*
X0172250Y0163571D01*
X0172126Y0163549D01*
X0172001Y0163532D01*
X0171876Y0163518D01*
X0171751Y0163508D01*
X0171626Y0163502D01*
X0171500Y0163500D01*
X0171374Y0163502D01*
X0171249Y0163508D01*
X0171124Y0163518D01*
X0170999Y0163532D01*
X0170874Y0163549D01*
X0170750Y0163571D01*
X0170627Y0163596D01*
X0170505Y0163626D01*
X0170384Y0163659D01*
X0170264Y0163696D01*
X0170145Y0163736D01*
X0170028Y0163781D01*
X0169911Y0163829D01*
X0169797Y0163881D01*
X0169684Y0163936D01*
X0169573Y0163995D01*
X0169464Y0164057D01*
X0169357Y0164123D01*
X0169252Y0164192D01*
X0169149Y0164264D01*
X0169048Y0164339D01*
X0168950Y0164418D01*
X0168855Y0164500D01*
X0168762Y0164584D01*
X0168672Y0164672D01*
X0168584Y0164762D01*
X0168500Y0164855D01*
X0168418Y0164950D01*
X0168339Y0165048D01*
X0168264Y0165149D01*
X0168192Y0165252D01*
X0168123Y0165357D01*
X0168057Y0165464D01*
X0167995Y0165573D01*
X0167936Y0165684D01*
X0167881Y0165797D01*
X0167829Y0165911D01*
X0167781Y0166028D01*
X0167736Y0166145D01*
X0167696Y0166264D01*
X0167659Y0166384D01*
X0167626Y0166505D01*
X0167596Y0166627D01*
X0167571Y0166750D01*
X0167549Y0166874D01*
X0167532Y0166999D01*
X0167518Y0167124D01*
X0167508Y0167249D01*
X0167502Y0167374D01*
X0167500Y0167500D01*
X0160000Y0167500D01*
X0160000Y0087500D01*
X0183000Y0182000D02*
X0184500Y0182000D01*
X0185000Y0182500D01*
X0204000Y0182500D01*
X0204500Y0182000D01*
X0206000Y0182000D01*
X0206060Y0182002D01*
X0206121Y0182007D01*
X0206180Y0182016D01*
X0206239Y0182029D01*
X0206298Y0182045D01*
X0206355Y0182065D01*
X0206410Y0182088D01*
X0206465Y0182115D01*
X0206517Y0182144D01*
X0206568Y0182177D01*
X0206617Y0182213D01*
X0206663Y0182251D01*
X0206707Y0182293D01*
X0206749Y0182337D01*
X0206787Y0182383D01*
X0206823Y0182432D01*
X0206856Y0182483D01*
X0206885Y0182535D01*
X0206912Y0182590D01*
X0206935Y0182645D01*
X0206955Y0182702D01*
X0206971Y0182761D01*
X0206984Y0182820D01*
X0206993Y0182879D01*
X0206998Y0182940D01*
X0207000Y0183000D01*
X0207000Y0190000D01*
X0206998Y0190060D01*
X0206993Y0190121D01*
X0206984Y0190180D01*
X0206971Y0190239D01*
X0206955Y0190298D01*
X0206935Y0190355D01*
X0206912Y0190410D01*
X0206885Y0190465D01*
X0206856Y0190517D01*
X0206823Y0190568D01*
X0206787Y0190617D01*
X0206749Y0190663D01*
X0206707Y0190707D01*
X0206663Y0190749D01*
X0206617Y0190787D01*
X0206568Y0190823D01*
X0206517Y0190856D01*
X0206465Y0190885D01*
X0206410Y0190912D01*
X0206355Y0190935D01*
X0206298Y0190955D01*
X0206239Y0190971D01*
X0206180Y0190984D01*
X0206121Y0190993D01*
X0206060Y0190998D01*
X0206000Y0191000D01*
X0204500Y0191000D01*
X0204000Y0190500D01*
X0185000Y0190500D01*
X0184500Y0191000D01*
X0183000Y0191000D01*
X0182940Y0190998D01*
X0182879Y0190993D01*
X0182820Y0190984D01*
X0182761Y0190971D01*
X0182702Y0190955D01*
X0182645Y0190935D01*
X0182590Y0190912D01*
X0182535Y0190885D01*
X0182483Y0190856D01*
X0182432Y0190823D01*
X0182383Y0190787D01*
X0182337Y0190749D01*
X0182293Y0190707D01*
X0182251Y0190663D01*
X0182213Y0190617D01*
X0182177Y0190568D01*
X0182144Y0190517D01*
X0182115Y0190465D01*
X0182088Y0190410D01*
X0182065Y0190355D01*
X0182045Y0190298D01*
X0182029Y0190239D01*
X0182016Y0190180D01*
X0182007Y0190121D01*
X0182002Y0190060D01*
X0182000Y0190000D01*
X0182000Y0183000D01*
X0182002Y0182940D01*
X0182007Y0182879D01*
X0182016Y0182820D01*
X0182029Y0182761D01*
X0182045Y0182702D01*
X0182065Y0182645D01*
X0182088Y0182590D01*
X0182115Y0182535D01*
X0182144Y0182483D01*
X0182177Y0182432D01*
X0182213Y0182383D01*
X0182251Y0182337D01*
X0182293Y0182293D01*
X0182337Y0182251D01*
X0182383Y0182213D01*
X0182432Y0182177D01*
X0182483Y0182144D01*
X0182535Y0182115D01*
X0182590Y0182088D01*
X0182645Y0182065D01*
X0182702Y0182045D01*
X0182761Y0182029D01*
X0182820Y0182016D01*
X0182879Y0182007D01*
X0182940Y0182002D01*
X0183000Y0182000D01*
D11*
X0188750Y0184750D02*
X0188750Y0189254D01*
X0191002Y0189254D01*
X0191753Y0188503D01*
X0191753Y0187002D01*
X0191002Y0186251D01*
X0188750Y0186251D01*
X0190251Y0186251D02*
X0191753Y0184750D01*
X0193354Y0184750D02*
X0196356Y0184750D01*
X0194855Y0184750D02*
X0194855Y0189254D01*
X0193354Y0187753D01*
X0197958Y0188503D02*
X0197958Y0185501D01*
X0200960Y0188503D01*
X0200960Y0185501D01*
X0200210Y0184750D01*
X0198708Y0184750D01*
X0197958Y0185501D01*
X0197958Y0188503D02*
X0198708Y0189254D01*
X0200210Y0189254D01*
X0200960Y0188503D01*
X0201652Y0173754D02*
X0201652Y0169250D01*
X0198583Y0169250D02*
X0197081Y0169250D01*
X0197832Y0169250D02*
X0197832Y0173754D01*
X0197081Y0173754D02*
X0198583Y0173754D01*
X0200151Y0173754D02*
X0203153Y0173754D01*
X0204755Y0173003D02*
X0204755Y0172253D01*
X0205505Y0171502D01*
X0207007Y0171502D01*
X0207757Y0170751D01*
X0207757Y0170001D01*
X0207007Y0169250D01*
X0205505Y0169250D01*
X0204755Y0170001D01*
X0204755Y0173003D02*
X0205505Y0173754D01*
X0207007Y0173754D01*
X0207757Y0173003D01*
X0195480Y0173003D02*
X0195480Y0172253D01*
X0194729Y0171502D01*
X0192477Y0171502D01*
X0192477Y0169250D02*
X0192477Y0173754D01*
X0194729Y0173754D01*
X0195480Y0173003D01*
X0194729Y0171502D02*
X0195480Y0170751D01*
X0195480Y0170001D01*
X0194729Y0169250D01*
X0192477Y0169250D01*
X0190876Y0168499D02*
X0187874Y0168499D01*
X0184771Y0169250D02*
X0184771Y0173754D01*
X0183270Y0173754D02*
X0186272Y0173754D01*
X0181668Y0173003D02*
X0180918Y0173754D01*
X0179416Y0173754D01*
X0178666Y0173003D01*
X0178666Y0170001D01*
X0179416Y0169250D01*
X0180918Y0169250D01*
X0181668Y0170001D01*
X0177064Y0169250D02*
X0174062Y0169250D01*
X0174062Y0173754D01*
X0177064Y0173754D01*
X0175563Y0171502D02*
X0174062Y0171502D01*
X0172460Y0169250D02*
X0169458Y0169250D01*
X0169458Y0173754D01*
X0167856Y0173754D02*
X0164854Y0173754D01*
X0164854Y0169250D01*
X0167856Y0169250D01*
X0166355Y0171502D02*
X0164854Y0171502D01*
X0163253Y0170751D02*
X0163253Y0170001D01*
X0162502Y0169250D01*
X0161001Y0169250D01*
X0160250Y0170001D01*
X0161001Y0171502D02*
X0160250Y0172253D01*
X0160250Y0173003D01*
X0161001Y0173754D01*
X0162502Y0173754D01*
X0163253Y0173003D01*
X0162502Y0171502D02*
X0163253Y0170751D01*
X0162502Y0171502D02*
X0161001Y0171502D01*
X0139876Y0173754D02*
X0136874Y0169250D01*
X0135272Y0170001D02*
X0135272Y0173754D01*
X0136874Y0173754D02*
X0139876Y0169250D01*
X0135272Y0170001D02*
X0134522Y0169250D01*
X0133020Y0169250D01*
X0132270Y0170001D01*
X0132270Y0173754D01*
X0130668Y0173754D02*
X0130668Y0169250D01*
X0127666Y0169250D02*
X0127666Y0173754D01*
X0129167Y0172253D01*
X0130668Y0173754D01*
X0126064Y0168499D02*
X0123062Y0168499D01*
X0121460Y0169250D02*
X0119959Y0170751D01*
X0118458Y0169250D01*
X0118458Y0173754D01*
X0116856Y0173003D02*
X0116106Y0173754D01*
X0114605Y0173754D01*
X0113854Y0173003D01*
X0113854Y0170001D01*
X0114605Y0169250D01*
X0116106Y0169250D01*
X0116856Y0170001D01*
X0116856Y0173003D01*
X0121460Y0173754D02*
X0121460Y0169250D01*
X0112253Y0169250D02*
X0110751Y0170751D01*
X0111502Y0170751D02*
X0109250Y0170751D01*
X0109250Y0169250D02*
X0109250Y0173754D01*
X0111502Y0173754D01*
X0112253Y0173003D01*
X0112253Y0171502D01*
X0111502Y0170751D01*
X0054356Y0170750D02*
X0051354Y0170750D01*
X0054356Y0173753D01*
X0054356Y0174503D01*
X0053606Y0175254D01*
X0052105Y0175254D01*
X0051354Y0174503D01*
X0049753Y0174503D02*
X0049753Y0173002D01*
X0049002Y0172251D01*
X0046750Y0172251D01*
X0046750Y0170750D02*
X0046750Y0175254D01*
X0049002Y0175254D01*
X0049753Y0174503D01*
X0048251Y0172251D02*
X0049753Y0170750D01*
X0049002Y0165254D02*
X0049753Y0164503D01*
X0049753Y0163002D01*
X0049002Y0162251D01*
X0046750Y0162251D01*
X0046750Y0160750D02*
X0046750Y0165254D01*
X0049002Y0165254D01*
X0051354Y0164503D02*
X0052105Y0165254D01*
X0053606Y0165254D01*
X0054356Y0164503D01*
X0054356Y0163753D01*
X0053606Y0163002D01*
X0054356Y0162251D01*
X0054356Y0161501D01*
X0053606Y0160750D01*
X0052105Y0160750D01*
X0051354Y0161501D01*
X0049753Y0160750D02*
X0048251Y0162251D01*
X0052855Y0163002D02*
X0053606Y0163002D01*
X0053606Y0155254D02*
X0051354Y0153002D01*
X0054356Y0153002D01*
X0053606Y0150750D02*
X0053606Y0155254D01*
X0049753Y0154503D02*
X0049753Y0153002D01*
X0049002Y0152251D01*
X0046750Y0152251D01*
X0046750Y0150750D02*
X0046750Y0155254D01*
X0049002Y0155254D01*
X0049753Y0154503D01*
X0048251Y0152251D02*
X0049753Y0150750D01*
X0049002Y0145254D02*
X0049753Y0144503D01*
X0049753Y0143002D01*
X0049002Y0142251D01*
X0046750Y0142251D01*
X0046750Y0140750D02*
X0046750Y0145254D01*
X0049002Y0145254D01*
X0051354Y0145254D02*
X0051354Y0143002D01*
X0052855Y0143753D01*
X0053606Y0143753D01*
X0054356Y0143002D01*
X0054356Y0141501D01*
X0053606Y0140750D01*
X0052105Y0140750D01*
X0051354Y0141501D01*
X0049753Y0140750D02*
X0048251Y0142251D01*
X0051354Y0145254D02*
X0054356Y0145254D01*
X0054356Y0135254D02*
X0052855Y0134503D01*
X0051354Y0133002D01*
X0053606Y0133002D01*
X0054356Y0132251D01*
X0054356Y0131501D01*
X0053606Y0130750D01*
X0052105Y0130750D01*
X0051354Y0131501D01*
X0051354Y0133002D01*
X0049753Y0133002D02*
X0049002Y0132251D01*
X0046750Y0132251D01*
X0046750Y0130750D02*
X0046750Y0135254D01*
X0049002Y0135254D01*
X0049753Y0134503D01*
X0049753Y0133002D01*
X0048251Y0132251D02*
X0049753Y0130750D01*
X0049002Y0115254D02*
X0049753Y0114503D01*
X0049753Y0113002D01*
X0049002Y0112251D01*
X0046750Y0112251D01*
X0046750Y0110750D02*
X0046750Y0115254D01*
X0049002Y0115254D01*
X0051354Y0115254D02*
X0054356Y0115254D01*
X0054356Y0114503D01*
X0051354Y0111501D01*
X0051354Y0110750D01*
X0049753Y0110750D02*
X0048251Y0112251D01*
X0049002Y0105254D02*
X0049753Y0104503D01*
X0049753Y0103002D01*
X0049002Y0102251D01*
X0046750Y0102251D01*
X0046750Y0100750D02*
X0046750Y0105254D01*
X0049002Y0105254D01*
X0051354Y0104503D02*
X0051354Y0103753D01*
X0052105Y0103002D01*
X0053606Y0103002D01*
X0054356Y0102251D01*
X0054356Y0101501D01*
X0053606Y0100750D01*
X0052105Y0100750D01*
X0051354Y0101501D01*
X0051354Y0102251D01*
X0052105Y0103002D01*
X0053606Y0103002D02*
X0054356Y0103753D01*
X0054356Y0104503D01*
X0053606Y0105254D01*
X0052105Y0105254D01*
X0051354Y0104503D01*
X0048251Y0102251D02*
X0049753Y0100750D01*
X0049002Y0095254D02*
X0049753Y0094503D01*
X0049753Y0093002D01*
X0049002Y0092251D01*
X0046750Y0092251D01*
X0046750Y0090750D02*
X0046750Y0095254D01*
X0049002Y0095254D01*
X0051354Y0094503D02*
X0051354Y0093753D01*
X0052105Y0093002D01*
X0054356Y0093002D01*
X0054356Y0091501D02*
X0054356Y0094503D01*
X0053606Y0095254D01*
X0052105Y0095254D01*
X0051354Y0094503D01*
X0048251Y0092251D02*
X0049753Y0090750D01*
X0051354Y0091501D02*
X0052105Y0090750D01*
X0053606Y0090750D01*
X0054356Y0091501D01*
X0111238Y0077202D02*
X0115742Y0074200D01*
X0114991Y0072598D02*
X0111238Y0072598D01*
X0111238Y0074200D02*
X0115742Y0077202D01*
X0114991Y0072598D02*
X0115742Y0071848D01*
X0115742Y0070346D01*
X0114991Y0069596D01*
X0111238Y0069596D01*
X0111238Y0067994D02*
X0115742Y0067994D01*
X0115742Y0064992D02*
X0111238Y0064992D01*
X0112740Y0066493D01*
X0111238Y0067994D01*
X0111238Y0063390D02*
X0111238Y0060388D01*
X0115742Y0060388D01*
X0115742Y0063390D01*
X0113490Y0061889D02*
X0113490Y0060388D01*
X0111989Y0058786D02*
X0111238Y0058036D01*
X0111238Y0055784D01*
X0115742Y0055784D01*
X0115742Y0058036D01*
X0114991Y0058786D01*
X0111989Y0058786D01*
X0116493Y0054182D02*
X0116493Y0051180D01*
X0115742Y0049579D02*
X0115742Y0046576D01*
X0111238Y0046576D01*
X0111989Y0044975D02*
X0111238Y0044224D01*
X0111238Y0042723D01*
X0111989Y0041972D01*
X0114991Y0041972D01*
X0115742Y0042723D01*
X0115742Y0044224D01*
X0114991Y0044975D01*
X0111989Y0044975D01*
X0111989Y0040371D02*
X0111238Y0039620D01*
X0111238Y0038119D01*
X0111989Y0037368D01*
X0114991Y0037368D01*
X0115742Y0038119D01*
X0115742Y0039620D01*
X0114991Y0040371D01*
X0054356Y0180750D02*
X0051354Y0180750D01*
X0052855Y0180750D02*
X0052855Y0185254D01*
X0051354Y0183753D01*
X0049753Y0184503D02*
X0049753Y0183002D01*
X0049002Y0182251D01*
X0046750Y0182251D01*
X0046750Y0180750D02*
X0046750Y0185254D01*
X0049002Y0185254D01*
X0049753Y0184503D01*
X0048251Y0182251D02*
X0049753Y0180750D01*
X0035705Y0191943D02*
X0032703Y0191943D01*
X0034204Y0191943D02*
X0034204Y0196447D01*
X0032703Y0194945D01*
D12*
X0037300Y0182500D03*
X0037300Y0172500D03*
X0037300Y0162500D03*
X0037300Y0152500D03*
X0037300Y0142500D03*
X0037300Y0132500D03*
X0037300Y0112500D03*
X0037300Y0102500D03*
X0037300Y0092500D03*
X0065700Y0092500D03*
X0065700Y0102500D03*
X0065700Y0112500D03*
X0065700Y0132500D03*
X0065700Y0142500D03*
X0065700Y0152500D03*
X0065700Y0162500D03*
X0065700Y0172500D03*
X0065700Y0182500D03*
X0180300Y0186500D03*
X0208700Y0186500D03*
M02*
