%
M48
M72
T01C0.0320
T02C0.0400
T03C0.1102
%
T01
X3149Y4662
X4149Y4662
X5149Y4662
X6149Y4662
X7149Y4662
X8149Y4662
X9149Y4662
X10149Y4662
X10149Y7662
X9149Y7662
X8149Y7662
X7149Y7662
X6149Y7662
X5149Y7662
X4149Y7662
X3149Y7662
X3150Y9250
X3150Y10250
X3150Y11250
X3150Y13250
X3150Y14250
X3150Y15250
X3150Y16250
X3150Y17250
X3150Y18250
X7150Y18250
X7150Y17250
X7150Y16250
X7150Y15250
X7150Y14250
X7150Y13250
X7150Y11250
X7150Y10250
X7150Y9250
X10550Y9250
X10550Y10250
X10550Y11250
X10550Y12250
X10550Y13250
X10550Y14250
X10550Y15250
X10550Y16250
X13550Y16250
X13550Y15250
X13550Y14250
X13550Y13250
X13550Y12250
X13550Y11250
X13550Y10250
X13550Y9250
X15650Y9250
X15650Y10250
X15650Y11250
X15650Y12250
X15650Y13250
X15650Y14250
X15650Y15250
X15650Y16250
X17450Y18650
X18650Y16250
X18650Y15250
X18650Y14250
X18650Y13250
X18650Y12250
X18650Y11250
X18650Y10250
X18650Y9250
X21450Y18650
T02
X21445Y20319
X20445Y20319
X19445Y20319
X18445Y20319
X17445Y20319
X16445Y20319
X15445Y20319
X14445Y20319
X13445Y20319
X12445Y20319
X11445Y20319
X10445Y20319
X9445Y20319
X8445Y20319
X7445Y20319
X6445Y20319
X5445Y20319
X4445Y20319
X3445Y20319
X3445Y21319
X4445Y21319
X5445Y21319
X6445Y21319
X7445Y21319
X8445Y21319
X9445Y21319
X10445Y21319
X11445Y21319
X12445Y21319
X13445Y21319
X14445Y21319
X15445Y21319
X16445Y21319
X17445Y21319
X18445Y21319
X19445Y21319
X20445Y21319
X21445Y21319
X22445Y21319
X22445Y20319
X8650Y18250
X8650Y17250
X8650Y16250
X8650Y15250
X8650Y14250
X8650Y13250
X8650Y12250
X8650Y11250
X8650Y10250
X8650Y9250
T03
X1528Y1528
X1528Y20819
X24363Y20819
X24363Y1528
M30
